<mxfile host="app.diagrams.net" agent="Mozilla/5.0 (Macintosh; Intel Mac OS X 10_15_7) AppleWebKit/605.1.15 (KHTML, like Gecko) Version/18.3 Safari/605.1.15" version="28.1.0">
  <diagram name="第 1 页" id="vaFjkA6ZWze_ULUKWe5W">
    <mxGraphModel dx="1273" dy="914" grid="1" gridSize="10" guides="1" tooltips="1" connect="1" arrows="1" fold="1" page="1" pageScale="1" pageWidth="827" pageHeight="1169" math="0" shadow="0">
      <root>
        <mxCell id="0" />
        <mxCell id="1" parent="0" />
        <mxCell id="Az45LCxhIKdniQeji25l-1" value="&lt;div style=&quot;font-style: normal; font-variant-caps: normal; font-weight: normal; letter-spacing: normal; orphans: auto; text-align: start; text-indent: 0px; text-transform: none; widows: auto; word-spacing: 0px; -webkit-text-stroke-width: 0px; text-decoration: none; color: rgb(101, 123, 131); background-color: rgb(253, 246, 227); font-family: Menlo, Monaco, &amp;quot;Courier New&amp;quot;, monospace; font-size: 12px; line-height: 18px; white-space: pre;&quot;&gt;&lt;div&gt;&lt;span style=&quot;color: rgb(147, 161, 161); font-style: italic;&quot;&gt;&amp;lt;!-- Motorcycle Body --&amp;gt;&lt;/span&gt;&lt;/div&gt;&lt;div&gt;&lt;span style=&quot;color: rgb(101, 123, 131);&quot;&gt;  &lt;/span&gt;&lt;span style=&quot;color: rgb(147, 161, 161);&quot;&gt;&amp;lt;&lt;/span&gt;&lt;span style=&quot;color: rgb(38, 139, 210);&quot;&gt;rect&lt;/span&gt;&lt;span style=&quot;color: rgb(101, 123, 131);&quot;&gt; &lt;/span&gt;&lt;span style=&quot;color: rgb(147, 161, 161);&quot;&gt;x&lt;/span&gt;&lt;span style=&quot;color: rgb(101, 123, 131);&quot;&gt;=&lt;/span&gt;&lt;span style=&quot;color: rgb(42, 161, 152);&quot;&gt;&quot;110&quot;&lt;/span&gt;&lt;span style=&quot;color: rgb(101, 123, 131);&quot;&gt; &lt;/span&gt;&lt;span style=&quot;color: rgb(147, 161, 161);&quot;&gt;y&lt;/span&gt;&lt;span style=&quot;color: rgb(101, 123, 131);&quot;&gt;=&lt;/span&gt;&lt;span style=&quot;color: rgb(42, 161, 152);&quot;&gt;&quot;112&quot;&lt;/span&gt;&lt;span style=&quot;color: rgb(101, 123, 131);&quot;&gt; &lt;/span&gt;&lt;span style=&quot;color: rgb(147, 161, 161);&quot;&gt;width&lt;/span&gt;&lt;span style=&quot;color: rgb(101, 123, 131);&quot;&gt;=&lt;/span&gt;&lt;span style=&quot;color: rgb(42, 161, 152);&quot;&gt;&quot;42&quot;&lt;/span&gt;&lt;span style=&quot;color: rgb(101, 123, 131);&quot;&gt; &lt;/span&gt;&lt;span style=&quot;color: rgb(147, 161, 161);&quot;&gt;height&lt;/span&gt;&lt;span style=&quot;color: rgb(101, 123, 131);&quot;&gt;=&lt;/span&gt;&lt;span style=&quot;color: rgb(42, 161, 152);&quot;&gt;&quot;24&quot;&lt;/span&gt;&lt;span style=&quot;color: rgb(101, 123, 131);&quot;&gt; &lt;/span&gt;&lt;span style=&quot;color: rgb(147, 161, 161);&quot;&gt;rx&lt;/span&gt;&lt;span style=&quot;color: rgb(101, 123, 131);&quot;&gt;=&lt;/span&gt;&lt;span style=&quot;color: rgb(42, 161, 152);&quot;&gt;&quot;14&quot;&lt;/span&gt;&lt;span style=&quot;color: rgb(101, 123, 131);&quot;&gt; &lt;/span&gt;&lt;span style=&quot;color: rgb(147, 161, 161);&quot;&gt;ry&lt;/span&gt;&lt;span style=&quot;color: rgb(101, 123, 131);&quot;&gt;=&lt;/span&gt;&lt;span style=&quot;color: rgb(42, 161, 152);&quot;&gt;&quot;14&quot;&lt;/span&gt;&lt;span style=&quot;color: rgb(101, 123, 131);&quot;&gt; &lt;/span&gt;&lt;span style=&quot;color: rgb(147, 161, 161);&quot;&gt;fill&lt;/span&gt;&lt;span style=&quot;color: rgb(101, 123, 131);&quot;&gt;=&lt;/span&gt;&lt;span style=&quot;color: rgb(42, 161, 152);&quot;&gt;&quot;#817B8F&quot;&lt;/span&gt;&lt;span style=&quot;color: rgb(101, 123, 131);&quot;&gt; &lt;/span&gt;&lt;span style=&quot;color: rgb(147, 161, 161);&quot;&gt;/&amp;gt;&lt;/span&gt;&lt;/div&gt;&lt;div&gt;&lt;span style=&quot;color: rgb(101, 123, 131);&quot;&gt;  &lt;/span&gt;&lt;/div&gt;&lt;div&gt;&lt;span style=&quot;color: rgb(101, 123, 131);&quot;&gt;  &lt;/span&gt;&lt;span style=&quot;color: rgb(147, 161, 161); font-style: italic;&quot;&gt;&amp;lt;!-- Motorcycle Wheels --&amp;gt;&lt;/span&gt;&lt;/div&gt;&lt;div&gt;&lt;span style=&quot;color: rgb(101, 123, 131);&quot;&gt;  &lt;/span&gt;&lt;span style=&quot;color: rgb(147, 161, 161);&quot;&gt;&amp;lt;&lt;/span&gt;&lt;span style=&quot;color: rgb(38, 139, 210);&quot;&gt;circle&lt;/span&gt;&lt;span style=&quot;color: rgb(101, 123, 131);&quot;&gt; &lt;/span&gt;&lt;span style=&quot;color: rgb(147, 161, 161);&quot;&gt;cx&lt;/span&gt;&lt;span style=&quot;color: rgb(101, 123, 131);&quot;&gt;=&lt;/span&gt;&lt;span style=&quot;color: rgb(42, 161, 152);&quot;&gt;&quot;111&quot;&lt;/span&gt;&lt;span style=&quot;color: rgb(101, 123, 131);&quot;&gt; &lt;/span&gt;&lt;span style=&quot;color: rgb(147, 161, 161);&quot;&gt;cy&lt;/span&gt;&lt;span style=&quot;color: rgb(101, 123, 131);&quot;&gt;=&lt;/span&gt;&lt;span style=&quot;color: rgb(42, 161, 152);&quot;&gt;&quot;135&quot;&lt;/span&gt;&lt;span style=&quot;color: rgb(101, 123, 131);&quot;&gt; &lt;/span&gt;&lt;span style=&quot;color: rgb(147, 161, 161);&quot;&gt;r&lt;/span&gt;&lt;span style=&quot;color: rgb(101, 123, 131);&quot;&gt;=&lt;/span&gt;&lt;span style=&quot;color: rgb(42, 161, 152);&quot;&gt;&quot;13&quot;&lt;/span&gt;&lt;span style=&quot;color: rgb(101, 123, 131);&quot;&gt; &lt;/span&gt;&lt;span style=&quot;color: rgb(147, 161, 161);&quot;&gt;fill&lt;/span&gt;&lt;span style=&quot;color: rgb(101, 123, 131);&quot;&gt;=&lt;/span&gt;&lt;span style=&quot;color: rgb(42, 161, 152);&quot;&gt;&quot;#99999C&quot;&lt;/span&gt;&lt;span style=&quot;color: rgb(101, 123, 131);&quot;&gt; &lt;/span&gt;&lt;span style=&quot;color: rgb(147, 161, 161);&quot;&gt;/&amp;gt;&lt;/span&gt;&lt;/div&gt;&lt;div&gt;&lt;span style=&quot;color: rgb(101, 123, 131);&quot;&gt;  &lt;/span&gt;&lt;span style=&quot;color: rgb(147, 161, 161);&quot;&gt;&amp;lt;&lt;/span&gt;&lt;span style=&quot;color: rgb(38, 139, 210);&quot;&gt;circle&lt;/span&gt;&lt;span style=&quot;color: rgb(101, 123, 131);&quot;&gt; &lt;/span&gt;&lt;span style=&quot;color: rgb(147, 161, 161);&quot;&gt;cx&lt;/span&gt;&lt;span style=&quot;color: rgb(101, 123, 131);&quot;&gt;=&lt;/span&gt;&lt;span style=&quot;color: rgb(42, 161, 152);&quot;&gt;&quot;150&quot;&lt;/span&gt;&lt;span style=&quot;color: rgb(101, 123, 131);&quot;&gt; &lt;/span&gt;&lt;span style=&quot;color: rgb(147, 161, 161);&quot;&gt;cy&lt;/span&gt;&lt;span style=&quot;color: rgb(101, 123, 131);&quot;&gt;=&lt;/span&gt;&lt;span style=&quot;color: rgb(42, 161, 152);&quot;&gt;&quot;135&quot;&lt;/span&gt;&lt;span style=&quot;color: rgb(101, 123, 131);&quot;&gt; &lt;/span&gt;&lt;span style=&quot;color: rgb(147, 161, 161);&quot;&gt;r&lt;/span&gt;&lt;span style=&quot;color: rgb(101, 123, 131);&quot;&gt;=&lt;/span&gt;&lt;span style=&quot;color: rgb(42, 161, 152);&quot;&gt;&quot;13&quot;&lt;/span&gt;&lt;span style=&quot;color: rgb(101, 123, 131);&quot;&gt; &lt;/span&gt;&lt;span style=&quot;color: rgb(147, 161, 161);&quot;&gt;fill&lt;/span&gt;&lt;span style=&quot;color: rgb(101, 123, 131);&quot;&gt;=&lt;/span&gt;&lt;span style=&quot;color: rgb(42, 161, 152);&quot;&gt;&quot;#99999C&quot;&lt;/span&gt;&lt;span style=&quot;color: rgb(101, 123, 131);&quot;&gt; &lt;/span&gt;&lt;span style=&quot;color: rgb(147, 161, 161);&quot;&gt;/&amp;gt;&lt;/span&gt;&lt;/div&gt;&lt;div&gt;&lt;span style=&quot;color: rgb(101, 123, 131);&quot;&gt;  &lt;/span&gt;&lt;/div&gt;&lt;div&gt;&lt;span style=&quot;color: rgb(101, 123, 131);&quot;&gt;  &lt;/span&gt;&lt;span style=&quot;color: rgb(147, 161, 161); font-style: italic;&quot;&gt;&amp;lt;!-- Motorcycle Hubs --&amp;gt;&lt;/span&gt;&lt;/div&gt;&lt;div&gt;&lt;span style=&quot;color: rgb(101, 123, 131);&quot;&gt;  &lt;/span&gt;&lt;span style=&quot;color: rgb(147, 161, 161);&quot;&gt;&amp;lt;&lt;/span&gt;&lt;span style=&quot;color: rgb(38, 139, 210);&quot;&gt;circle&lt;/span&gt;&lt;span style=&quot;color: rgb(101, 123, 131);&quot;&gt; &lt;/span&gt;&lt;span style=&quot;color: rgb(147, 161, 161);&quot;&gt;cx&lt;/span&gt;&lt;span style=&quot;color: rgb(101, 123, 131);&quot;&gt;=&lt;/span&gt;&lt;span style=&quot;color: rgb(42, 161, 152);&quot;&gt;&quot;111&quot;&lt;/span&gt;&lt;span style=&quot;color: rgb(101, 123, 131);&quot;&gt; &lt;/span&gt;&lt;span style=&quot;color: rgb(147, 161, 161);&quot;&gt;cy&lt;/span&gt;&lt;span style=&quot;color: rgb(101, 123, 131);&quot;&gt;=&lt;/span&gt;&lt;span style=&quot;color: rgb(42, 161, 152);&quot;&gt;&quot;135&quot;&lt;/span&gt;&lt;span style=&quot;color: rgb(101, 123, 131);&quot;&gt; &lt;/span&gt;&lt;span style=&quot;color: rgb(147, 161, 161);&quot;&gt;r&lt;/span&gt;&lt;span style=&quot;color: rgb(101, 123, 131);&quot;&gt;=&lt;/span&gt;&lt;span style=&quot;color: rgb(42, 161, 152);&quot;&gt;&quot;5&quot;&lt;/span&gt;&lt;span style=&quot;color: rgb(101, 123, 131);&quot;&gt; &lt;/span&gt;&lt;span style=&quot;color: rgb(147, 161, 161);&quot;&gt;fill&lt;/span&gt;&lt;span style=&quot;color: rgb(101, 123, 131);&quot;&gt;=&lt;/span&gt;&lt;span style=&quot;color: rgb(42, 161, 152);&quot;&gt;&quot;#001940&quot;&lt;/span&gt;&lt;span style=&quot;color: rgb(101, 123, 131);&quot;&gt; &lt;/span&gt;&lt;span style=&quot;color: rgb(147, 161, 161);&quot;&gt;/&amp;gt;&lt;/span&gt;&lt;/div&gt;&lt;div&gt;&lt;span style=&quot;color: rgb(101, 123, 131);&quot;&gt;  &lt;/span&gt;&lt;span style=&quot;color: rgb(147, 161, 161);&quot;&gt;&amp;lt;&lt;/span&gt;&lt;span style=&quot;color: rgb(38, 139, 210);&quot;&gt;circle&lt;/span&gt;&lt;span style=&quot;color: rgb(101, 123, 131);&quot;&gt; &lt;/span&gt;&lt;span style=&quot;color: rgb(147, 161, 161);&quot;&gt;cx&lt;/span&gt;&lt;span style=&quot;color: rgb(101, 123, 131);&quot;&gt;=&lt;/span&gt;&lt;span style=&quot;color: rgb(42, 161, 152);&quot;&gt;&quot;150&quot;&lt;/span&gt;&lt;span style=&quot;color: rgb(101, 123, 131);&quot;&gt; &lt;/span&gt;&lt;span style=&quot;color: rgb(147, 161, 161);&quot;&gt;cy&lt;/span&gt;&lt;span style=&quot;color: rgb(101, 123, 131);&quot;&gt;=&lt;/span&gt;&lt;span style=&quot;color: rgb(42, 161, 152);&quot;&gt;&quot;135&quot;&lt;/span&gt;&lt;span style=&quot;color: rgb(101, 123, 131);&quot;&gt; &lt;/span&gt;&lt;span style=&quot;color: rgb(147, 161, 161);&quot;&gt;r&lt;/span&gt;&lt;span style=&quot;color: rgb(101, 123, 131);&quot;&gt;=&lt;/span&gt;&lt;span style=&quot;color: rgb(42, 161, 152);&quot;&gt;&quot;5&quot;&lt;/span&gt;&lt;span style=&quot;color: rgb(101, 123, 131);&quot;&gt; &lt;/span&gt;&lt;span style=&quot;color: rgb(147, 161, 161);&quot;&gt;fill&lt;/span&gt;&lt;span style=&quot;color: rgb(101, 123, 131);&quot;&gt;=&lt;/span&gt;&lt;span style=&quot;color: rgb(42, 161, 152);&quot;&gt;&quot;#001940&quot;&lt;/span&gt;&lt;span style=&quot;color: rgb(101, 123, 131);&quot;&gt; &lt;/span&gt;&lt;span style=&quot;color: rgb(147, 161, 161);&quot;&gt;/&amp;gt;&lt;/span&gt;&lt;/div&gt;&lt;div&gt;&lt;span style=&quot;color: rgb(101, 123, 131);&quot;&gt;  &lt;/span&gt;&lt;/div&gt;&lt;div&gt;&lt;span style=&quot;color: rgb(101, 123, 131);&quot;&gt;  &lt;/span&gt;&lt;span style=&quot;color: rgb(147, 161, 161); font-style: italic;&quot;&gt;&amp;lt;!-- Motorcycle Frame --&amp;gt;&lt;/span&gt;&lt;/div&gt;&lt;div&gt;&lt;span style=&quot;color: rgb(101, 123, 131);&quot;&gt;  &lt;/span&gt;&lt;span style=&quot;color: rgb(147, 161, 161);&quot;&gt;&amp;lt;&lt;/span&gt;&lt;span style=&quot;color: rgb(38, 139, 210);&quot;&gt;line&lt;/span&gt;&lt;span style=&quot;color: rgb(101, 123, 131);&quot;&gt; &lt;/span&gt;&lt;span style=&quot;color: rgb(147, 161, 161);&quot;&gt;x1&lt;/span&gt;&lt;span style=&quot;color: rgb(101, 123, 131);&quot;&gt;=&lt;/span&gt;&lt;span style=&quot;color: rgb(42, 161, 152);&quot;&gt;&quot;110&quot;&lt;/span&gt;&lt;span style=&quot;color: rgb(101, 123, 131);&quot;&gt; &lt;/span&gt;&lt;span style=&quot;color: rgb(147, 161, 161);&quot;&gt;y1&lt;/span&gt;&lt;span style=&quot;color: rgb(101, 123, 131);&quot;&gt;=&lt;/span&gt;&lt;span style=&quot;color: rgb(42, 161, 152);&quot;&gt;&quot;134&quot;&lt;/span&gt;&lt;span style=&quot;color: rgb(101, 123, 131);&quot;&gt; &lt;/span&gt;&lt;span style=&quot;color: rgb(147, 161, 161);&quot;&gt;x2&lt;/span&gt;&lt;span style=&quot;color: rgb(101, 123, 131);&quot;&gt;=&lt;/span&gt;&lt;span style=&quot;color: rgb(42, 161, 152);&quot;&gt;&quot;151&quot;&lt;/span&gt;&lt;span style=&quot;color: rgb(101, 123, 131);&quot;&gt; &lt;/span&gt;&lt;span style=&quot;color: rgb(147, 161, 161);&quot;&gt;y2&lt;/span&gt;&lt;span style=&quot;color: rgb(101, 123, 131);&quot;&gt;=&lt;/span&gt;&lt;span style=&quot;color: rgb(42, 161, 152);&quot;&gt;&quot;146&quot;&lt;/span&gt;&lt;span style=&quot;color: rgb(101, 123, 131);&quot;&gt; &lt;/span&gt;&lt;span style=&quot;color: rgb(147, 161, 161);&quot;&gt;stroke&lt;/span&gt;&lt;span style=&quot;color: rgb(101, 123, 131);&quot;&gt;=&lt;/span&gt;&lt;span style=&quot;color: rgb(42, 161, 152);&quot;&gt;&quot;#646A6E&quot;&lt;/span&gt;&lt;span style=&quot;color: rgb(101, 123, 131);&quot;&gt; &lt;/span&gt;&lt;span style=&quot;color: rgb(147, 161, 161);&quot;&gt;stroke-width&lt;/span&gt;&lt;span style=&quot;color: rgb(101, 123, 131);&quot;&gt;=&lt;/span&gt;&lt;span style=&quot;color: rgb(42, 161, 152);&quot;&gt;&quot;4&quot;&lt;/span&gt;&lt;span style=&quot;color: rgb(101, 123, 131);&quot;&gt; &lt;/span&gt;&lt;span style=&quot;color: rgb(147, 161, 161);&quot;&gt;fill&lt;/span&gt;&lt;span style=&quot;color: rgb(101, 123, 131);&quot;&gt;=&lt;/span&gt;&lt;span style=&quot;color: rgb(42, 161, 152);&quot;&gt;&quot;none&quot;&lt;/span&gt;&lt;span style=&quot;color: rgb(101, 123, 131);&quot;&gt; &lt;/span&gt;&lt;span style=&quot;color: rgb(147, 161, 161);&quot;&gt;/&amp;gt;&lt;/span&gt;&lt;/div&gt;&lt;div&gt;&lt;span style=&quot;color: rgb(101, 123, 131);&quot;&gt;  &lt;/span&gt;&lt;/div&gt;&lt;div&gt;&lt;span style=&quot;color: rgb(101, 123, 131);&quot;&gt;  &lt;/span&gt;&lt;span style=&quot;color: rgb(147, 161, 161); font-style: italic;&quot;&gt;&amp;lt;!-- Motorcycle Head --&amp;gt;&lt;/span&gt;&lt;/div&gt;&lt;div&gt;&lt;span style=&quot;color: rgb(101, 123, 131);&quot;&gt;  &lt;/span&gt;&lt;span style=&quot;color: rgb(147, 161, 161);&quot;&gt;&amp;lt;&lt;/span&gt;&lt;span style=&quot;color: rgb(38, 139, 210);&quot;&gt;ellipse&lt;/span&gt;&lt;span style=&quot;color: rgb(101, 123, 131);&quot;&gt; &lt;/span&gt;&lt;span style=&quot;color: rgb(147, 161, 161);&quot;&gt;cx&lt;/span&gt;&lt;span style=&quot;color: rgb(101, 123, 131);&quot;&gt;=&lt;/span&gt;&lt;span style=&quot;color: rgb(42, 161, 152);&quot;&gt;&quot;113&quot;&lt;/span&gt;&lt;span style=&quot;color: rgb(101, 123, 131);&quot;&gt; &lt;/span&gt;&lt;span style=&quot;color: rgb(147, 161, 161);&quot;&gt;cy&lt;/span&gt;&lt;span style=&quot;color: rgb(101, 123, 131);&quot;&gt;=&lt;/span&gt;&lt;span style=&quot;color: rgb(42, 161, 152);&quot;&gt;&quot;114&quot;&lt;/span&gt;&lt;span style=&quot;color: rgb(101, 123, 131);&quot;&gt; &lt;/span&gt;&lt;span style=&quot;color: rgb(147, 161, 161);&quot;&gt;rx&lt;/span&gt;&lt;span style=&quot;color: rgb(101, 123, 131);&quot;&gt;=&lt;/span&gt;&lt;span style=&quot;color: rgb(42, 161, 152);&quot;&gt;&quot;6&quot;&lt;/span&gt;&lt;span style=&quot;color: rgb(101, 123, 131);&quot;&gt; &lt;/span&gt;&lt;span style=&quot;color: rgb(147, 161, 161);&quot;&gt;ry&lt;/span&gt;&lt;span style=&quot;color: rgb(101, 123, 131);&quot;&gt;=&lt;/span&gt;&lt;span style=&quot;color: rgb(42, 161, 152);&quot;&gt;&quot;5&quot;&lt;/span&gt;&lt;span style=&quot;color: rgb(101, 123, 131);&quot;&gt; &lt;/span&gt;&lt;span style=&quot;color: rgb(147, 161, 161);&quot;&gt;fill&lt;/span&gt;&lt;span style=&quot;color: rgb(101, 123, 131);&quot;&gt;=&lt;/span&gt;&lt;span style=&quot;color: rgb(42, 161, 152);&quot;&gt;&quot;#645E64&quot;&lt;/span&gt;&lt;span style=&quot;color: rgb(101, 123, 131);&quot;&gt; &lt;/span&gt;&lt;span style=&quot;color: rgb(147, 161, 161);&quot;&gt;/&amp;gt;&lt;/span&gt;&lt;/div&gt;&lt;div&gt;&lt;span style=&quot;color: rgb(101, 123, 131);&quot;&gt;  &lt;/span&gt;&lt;/div&gt;&lt;div&gt;&lt;span style=&quot;color: rgb(101, 123, 131);&quot;&gt;  &lt;/span&gt;&lt;span style=&quot;color: rgb(147, 161, 161); font-style: italic;&quot;&gt;&amp;lt;!-- Motorcycle Handlebars --&amp;gt;&lt;/span&gt;&lt;/div&gt;&lt;div&gt;&lt;span style=&quot;color: rgb(101, 123, 131);&quot;&gt;  &lt;/span&gt;&lt;span style=&quot;color: rgb(147, 161, 161);&quot;&gt;&amp;lt;&lt;/span&gt;&lt;span style=&quot;color: rgb(38, 139, 210);&quot;&gt;line&lt;/span&gt;&lt;span style=&quot;color: rgb(101, 123, 131);&quot;&gt; &lt;/span&gt;&lt;span style=&quot;color: rgb(147, 161, 161);&quot;&gt;x1&lt;/span&gt;&lt;span style=&quot;color: rgb(101, 123, 131);&quot;&gt;=&lt;/span&gt;&lt;span style=&quot;color: rgb(42, 161, 152);&quot;&gt;&quot;113&quot;&lt;/span&gt;&lt;span style=&quot;color: rgb(101, 123, 131);&quot;&gt; &lt;/span&gt;&lt;span style=&quot;color: rgb(147, 161, 161);&quot;&gt;y1&lt;/span&gt;&lt;span style=&quot;color: rgb(101, 123, 131);&quot;&gt;=&lt;/span&gt;&lt;span style=&quot;color: rgb(42, 161, 152);&quot;&gt;&quot;112&quot;&lt;/span&gt;&lt;span style=&quot;color: rgb(101, 123, 131);&quot;&gt; &lt;/span&gt;&lt;span style=&quot;color: rgb(147, 161, 161);&quot;&gt;x2&lt;/span&gt;&lt;span style=&quot;color: rgb(101, 123, 131);&quot;&gt;=&lt;/span&gt;&lt;span style=&quot;color: rgb(42, 161, 152);&quot;&gt;&quot;125&quot;&lt;/span&gt;&lt;span style=&quot;color: rgb(101, 123, 131);&quot;&gt; &lt;/span&gt;&lt;span style=&quot;color: rgb(147, 161, 161);&quot;&gt;y2&lt;/span&gt;&lt;span style=&quot;color: rgb(101, 123, 131);&quot;&gt;=&lt;/span&gt;&lt;span style=&quot;color: rgb(42, 161, 152);&quot;&gt;&quot;109&quot;&lt;/span&gt;&lt;span style=&quot;color: rgb(101, 123, 131);&quot;&gt; &lt;/span&gt;&lt;span style=&quot;color: rgb(147, 161, 161);&quot;&gt;stroke&lt;/span&gt;&lt;span style=&quot;color: rgb(101, 123, 131);&quot;&gt;=&lt;/span&gt;&lt;span style=&quot;color: rgb(42, 161, 152);&quot;&gt;&quot;#646A6C&quot;&lt;/span&gt;&lt;span style=&quot;color: rgb(101, 123, 131);&quot;&gt; &lt;/span&gt;&lt;span style=&quot;color: rgb(147, 161, 161);&quot;&gt;stroke-width&lt;/span&gt;&lt;span style=&quot;color: rgb(101, 123, 131);&quot;&gt;=&lt;/span&gt;&lt;span style=&quot;color: rgb(42, 161, 152);&quot;&gt;&quot;4&quot;&lt;/span&gt;&lt;span style=&quot;color: rgb(101, 123, 131);&quot;&gt; &lt;/span&gt;&lt;span style=&quot;color: rgb(147, 161, 161);&quot;&gt;/&amp;gt;&lt;/span&gt;&lt;/div&gt;&lt;div&gt;&lt;span style=&quot;color: rgb(101, 123, 131);&quot;&gt;  &lt;/span&gt;&lt;span style=&quot;color: rgb(147, 161, 161);&quot;&gt;&amp;lt;&lt;/span&gt;&lt;span style=&quot;color: rgb(38, 139, 210);&quot;&gt;line&lt;/span&gt;&lt;span style=&quot;color: rgb(101, 123, 131);&quot;&gt; &lt;/span&gt;&lt;span style=&quot;color: rgb(147, 161, 161);&quot;&gt;x1&lt;/span&gt;&lt;span style=&quot;color: rgb(101, 123, 131);&quot;&gt;=&lt;/span&gt;&lt;span style=&quot;color: rgb(42, 161, 152);&quot;&gt;&quot;143&quot;&lt;/span&gt;&lt;span style=&quot;color: rgb(101, 123, 131);&quot;&gt; &lt;/span&gt;&lt;span style=&quot;color: rgb(147, 161, 161);&quot;&gt;y1&lt;/span&gt;&lt;span style=&quot;color: rgb(101, 123, 131);&quot;&gt;=&lt;/span&gt;&lt;span style=&quot;color: rgb(42, 161, 152);&quot;&gt;&quot;112&quot;&lt;/span&gt;&lt;span style=&quot;color: rgb(101, 123, 131);&quot;&gt; &lt;/span&gt;&lt;span style=&quot;color: rgb(147, 161, 161);&quot;&gt;x2&lt;/span&gt;&lt;span style=&quot;color: rgb(101, 123, 131);&quot;&gt;=&lt;/span&gt;&lt;span style=&quot;color: rgb(42, 161, 152);&quot;&gt;&quot;150&quot;&lt;/span&gt;&lt;span style=&quot;color: rgb(101, 123, 131);&quot;&gt; &lt;/span&gt;&lt;span style=&quot;color: rgb(147, 161, 161);&quot;&gt;y2&lt;/span&gt;&lt;span style=&quot;color: rgb(101, 123, 131);&quot;&gt;=&lt;/span&gt;&lt;span style=&quot;color: rgb(42, 161, 152);&quot;&gt;&quot;108&quot;&lt;/span&gt;&lt;span style=&quot;color: rgb(101, 123, 131);&quot;&gt; &lt;/span&gt;&lt;span style=&quot;color: rgb(147, 161, 161);&quot;&gt;stroke&lt;/span&gt;&lt;span style=&quot;color: rgb(101, 123, 131);&quot;&gt;=&lt;/span&gt;&lt;span style=&quot;color: rgb(42, 161, 152);&quot;&gt;&quot;#646A6C&quot;&lt;/span&gt;&lt;span style=&quot;color: rgb(101, 123, 131);&quot;&gt; &lt;/span&gt;&lt;span style=&quot;color: rgb(147, 161, 161);&quot;&gt;stroke-width&lt;/span&gt;&lt;span style=&quot;color: rgb(101, 123, 131);&quot;&gt;=&lt;/span&gt;&lt;span style=&quot;color: rgb(42, 161, 152);&quot;&gt;&quot;4&quot;&lt;/span&gt;&lt;span style=&quot;color: rgb(101, 123, 131);&quot;&gt; &lt;/span&gt;&lt;span style=&quot;color: rgb(147, 161, 161);&quot;&gt;/&amp;gt;&lt;/span&gt;&lt;/div&gt;&lt;div&gt;&lt;span style=&quot;color: rgb(101, 123, 131);&quot;&gt;  &lt;/span&gt;&lt;/div&gt;&lt;div&gt;&lt;span style=&quot;color: rgb(101, 123, 131);&quot;&gt;  &lt;/span&gt;&lt;span style=&quot;color: rgb(147, 161, 161); font-style: italic;&quot;&gt;&amp;lt;!-- Motorcycle Headlights --&amp;gt;&lt;/span&gt;&lt;/div&gt;&lt;div&gt;&lt;span style=&quot;color: rgb(101, 123, 131);&quot;&gt;  &lt;/span&gt;&lt;span style=&quot;color: rgb(147, 161, 161);&quot;&gt;&amp;lt;&lt;/span&gt;&lt;span style=&quot;color: rgb(38, 139, 210);&quot;&gt;rect&lt;/span&gt;&lt;span style=&quot;color: rgb(101, 123, 131);&quot;&gt; &lt;/span&gt;&lt;span style=&quot;color: rgb(147, 161, 161);&quot;&gt;x&lt;/span&gt;&lt;span style=&quot;color: rgb(101, 123, 131);&quot;&gt;=&lt;/span&gt;&lt;span style=&quot;color: rgb(42, 161, 152);&quot;&gt;&quot;113&quot;&lt;/span&gt;&lt;span style=&quot;color: rgb(101, 123, 131);&quot;&gt; &lt;/span&gt;&lt;span style=&quot;color: rgb(147, 161, 161);&quot;&gt;y&lt;/span&gt;&lt;span style=&quot;color: rgb(101, 123, 131);&quot;&gt;=&lt;/span&gt;&lt;span style=&quot;color: rgb(42, 161, 152);&quot;&gt;&quot;109&quot;&lt;/span&gt;&lt;span style=&quot;color: rgb(101, 123, 131);&quot;&gt; &lt;/span&gt;&lt;span style=&quot;color: rgb(147, 161, 161);&quot;&gt;width&lt;/span&gt;&lt;span style=&quot;color: rgb(101, 123, 131);&quot;&gt;=&lt;/span&gt;&lt;span style=&quot;color: rgb(42, 161, 152);&quot;&gt;&quot;4&quot;&lt;/span&gt;&lt;span style=&quot;color: rgb(101, 123, 131);&quot;&gt; &lt;/span&gt;&lt;span style=&quot;color: rgb(147, 161, 161);&quot;&gt;height&lt;/span&gt;&lt;span style=&quot;color: rgb(101, 123, 131);&quot;&gt;=&lt;/span&gt;&lt;span style=&quot;color: rgb(42, 161, 152);&quot;&gt;&quot;5&quot;&lt;/span&gt;&lt;span style=&quot;color: rgb(101, 123, 131);&quot;&gt; &lt;/span&gt;&lt;span style=&quot;color: rgb(147, 161, 161);&quot;&gt;rx&lt;/span&gt;&lt;span style=&quot;color: rgb(101, 123, 131);&quot;&gt;=&lt;/span&gt;&lt;span style=&quot;color: rgb(42, 161, 152);&quot;&gt;&quot;2&quot;&lt;/span&gt;&lt;span style=&quot;color: rgb(101, 123, 131);&quot;&gt; &lt;/span&gt;&lt;span style=&quot;color: rgb(147, 161, 161);&quot;&gt;ry&lt;/span&gt;&lt;span style=&quot;color: rgb(101, 123, 131);&quot;&gt;=&lt;/span&gt;&lt;span style=&quot;color: rgb(42, 161, 152);&quot;&gt;&quot;2&quot;&lt;/span&gt;&lt;span style=&quot;color: rgb(101, 123, 131);&quot;&gt; &lt;/span&gt;&lt;span style=&quot;color: rgb(147, 161, 161);&quot;&gt;fill&lt;/span&gt;&lt;span style=&quot;color: rgb(101, 123, 131);&quot;&gt;=&lt;/span&gt;&lt;span style=&quot;color: rgb(42, 161, 152);&quot;&gt;&quot;#B4B0AC&quot;&lt;/span&gt;&lt;span style=&quot;color: rgb(101, 123, 131);&quot;&gt; &lt;/span&gt;&lt;span style=&quot;color: rgb(147, 161, 161);&quot;&gt;/&amp;gt;&lt;/span&gt;&lt;/div&gt;&lt;div&gt;&lt;span style=&quot;color: rgb(101, 123, 131);&quot;&gt;  &lt;/span&gt;&lt;/div&gt;&lt;div&gt;&lt;span style=&quot;color: rgb(101, 123, 131);&quot;&gt;  &lt;/span&gt;&lt;span style=&quot;color: rgb(147, 161, 161); font-style: italic;&quot;&gt;&amp;lt;!-- Motorcycle Tail Light (Optional) --&amp;gt;&lt;/span&gt;&lt;/div&gt;&lt;div&gt;&lt;span style=&quot;color: rgb(101, 123, 131);&quot;&gt;  &lt;/span&gt;&lt;span style=&quot;color: rgb(147, 161, 161);&quot;&gt;&amp;lt;&lt;/span&gt;&lt;span style=&quot;color: rgb(38, 139, 210);&quot;&gt;rect&lt;/span&gt;&lt;span style=&quot;color: rgb(101, 123, 131);&quot;&gt; &lt;/span&gt;&lt;span style=&quot;color: rgb(147, 161, 161);&quot;&gt;x&lt;/span&gt;&lt;span style=&quot;color: rgb(101, 123, 131);&quot;&gt;=&lt;/span&gt;&lt;span style=&quot;color: rgb(42, 161, 152);&quot;&gt;&quot;156&quot;&lt;/span&gt;&lt;span style=&quot;color: rgb(101, 123, 131);&quot;&gt; &lt;/span&gt;&lt;span style=&quot;color: rgb(147, 161, 161);&quot;&gt;y&lt;/span&gt;&lt;span style=&quot;color: rgb(101, 123, 131);&quot;&gt;=&lt;/span&gt;&lt;span style=&quot;color: rgb(42, 161, 152);&quot;&gt;&quot;116&quot;&lt;/span&gt;&lt;span style=&quot;color: rgb(101, 123, 131);&quot;&gt; &lt;/span&gt;&lt;span style=&quot;color: rgb(147, 161, 161);&quot;&gt;width&lt;/span&gt;&lt;span style=&quot;color: rgb(101, 123, 131);&quot;&gt;=&lt;/span&gt;&lt;span style=&quot;color: rgb(42, 161, 152);&quot;&gt;&quot;5&quot;&lt;/span&gt;&lt;span style=&quot;color: rgb(101, 123, 131);&quot;&gt; &lt;/span&gt;&lt;span style=&quot;color: rgb(147, 161, 161);&quot;&gt;height&lt;/span&gt;&lt;span style=&quot;color: rgb(101, 123, 131);&quot;&gt;=&lt;/span&gt;&lt;span style=&quot;color: rgb(42, 161, 152);&quot;&gt;&quot;6&quot;&lt;/span&gt;&lt;span style=&quot;color: rgb(101, 123, 131);&quot;&gt; &lt;/span&gt;&lt;span style=&quot;color: rgb(147, 161, 161);&quot;&gt;rx&lt;/span&gt;&lt;span style=&quot;color: rgb(101, 123, 131);&quot;&gt;=&lt;/span&gt;&lt;span style=&quot;color: rgb(42, 161, 152);&quot;&gt;&quot;2&quot;&lt;/span&gt;&lt;span style=&quot;color: rgb(101, 123, 131);&quot;&gt; &lt;/span&gt;&lt;span style=&quot;color: rgb(147, 161, 161);&quot;&gt;ry&lt;/span&gt;&lt;span style=&quot;color: rgb(101, 123, 131);&quot;&gt;=&lt;/span&gt;&lt;span style=&quot;color: rgb(42, 161, 152);&quot;&gt;&quot;2&quot;&lt;/span&gt;&lt;span style=&quot;color: rgb(101, 123, 131);&quot;&gt; &lt;/span&gt;&lt;span style=&quot;color: rgb(147, 161, 161);&quot;&gt;fill&lt;/span&gt;&lt;span style=&quot;color: rgb(101, 123, 131);&quot;&gt;=&lt;/span&gt;&lt;span style=&quot;color: rgb(42, 161, 152);&quot;&gt;&quot;#DF2A3B&quot;&lt;/span&gt;&lt;span style=&quot;color: rgb(101, 123, 131);&quot;&gt; &lt;/span&gt;&lt;span style=&quot;color: rgb(147, 161, 161);&quot;&gt;/&amp;gt;&lt;/span&gt;&lt;/div&gt;&lt;/div&gt;" style="text;whiteSpace=wrap;html=1;fillColor=#f5f5f5;fontColor=#333333;strokeColor=#666666;" vertex="1" parent="1">
          <mxGeometry x="970" y="1310" width="560" height="490" as="geometry" />
        </mxCell>
        <mxCell id="Az45LCxhIKdniQeji25l-2" value="&lt;div style=&quot;line-height: 100%;&quot;&gt;&lt;div style=&quot;caret-color: rgb(101, 123, 131); color: rgb(101, 123, 131); text-align: start; white-space: pre;&quot;&gt;&lt;span style=&quot;color: rgb(147, 161, 161); font-style: italic;&quot;&gt;&lt;font face=&quot;Helvetica&quot;&gt;&amp;lt;!-- Motorcycle Body --&amp;gt;&lt;/font&gt;&lt;/span&gt;&lt;/div&gt;&lt;div style=&quot;caret-color: rgb(101, 123, 131); color: rgb(101, 123, 131); text-align: start; white-space: pre;&quot;&gt;&lt;font face=&quot;Helvetica&quot;&gt;&lt;span style=&quot;color: rgb(101, 123, 131);&quot;&gt;  &lt;/span&gt;&lt;span style=&quot;color: rgb(147, 161, 161);&quot;&gt;&amp;lt;&lt;/span&gt;&lt;span style=&quot;color: rgb(38, 139, 210);&quot;&gt;rect&lt;/span&gt;&lt;span style=&quot;color: rgb(101, 123, 131);&quot;&gt; &lt;/span&gt;&lt;span style=&quot;color: rgb(147, 161, 161);&quot;&gt;x&lt;/span&gt;&lt;span style=&quot;color: rgb(101, 123, 131);&quot;&gt;=&lt;/span&gt;&lt;span style=&quot;color: rgb(42, 161, 152);&quot;&gt;&quot;110&quot;&lt;/span&gt;&lt;span style=&quot;color: rgb(101, 123, 131);&quot;&gt; &lt;/span&gt;&lt;span style=&quot;color: rgb(147, 161, 161);&quot;&gt;y&lt;/span&gt;&lt;span style=&quot;color: rgb(101, 123, 131);&quot;&gt;=&lt;/span&gt;&lt;span style=&quot;color: rgb(42, 161, 152);&quot;&gt;&quot;112&quot;&lt;/span&gt;&lt;span style=&quot;color: rgb(101, 123, 131);&quot;&gt; &lt;/span&gt;&lt;span style=&quot;color: rgb(147, 161, 161);&quot;&gt;width&lt;/span&gt;&lt;span style=&quot;color: rgb(101, 123, 131);&quot;&gt;=&lt;/span&gt;&lt;span style=&quot;color: rgb(42, 161, 152);&quot;&gt;&quot;42&quot;&lt;/span&gt;&lt;span style=&quot;color: rgb(101, 123, 131);&quot;&gt; &lt;/span&gt;&lt;span style=&quot;color: rgb(147, 161, 161);&quot;&gt;height&lt;/span&gt;&lt;span style=&quot;color: rgb(101, 123, 131);&quot;&gt;=&lt;/span&gt;&lt;span style=&quot;color: rgb(42, 161, 152);&quot;&gt;&quot;24&quot;&lt;/span&gt;&lt;span style=&quot;color: rgb(101, 123, 131);&quot;&gt; &lt;/span&gt;&lt;span style=&quot;color: rgb(147, 161, 161);&quot;&gt;rx&lt;/span&gt;&lt;span style=&quot;color: rgb(101, 123, 131);&quot;&gt;=&lt;/span&gt;&lt;span style=&quot;color: rgb(42, 161, 152);&quot;&gt;&quot;14&quot;&lt;/span&gt;&lt;span style=&quot;color: rgb(101, 123, 131);&quot;&gt; &lt;/span&gt;&lt;span style=&quot;color: rgb(147, 161, 161);&quot;&gt;ry&lt;/span&gt;&lt;span style=&quot;color: rgb(101, 123, 131);&quot;&gt;=&lt;/span&gt;&lt;span style=&quot;color: rgb(42, 161, 152);&quot;&gt;&quot;14&quot;&lt;/span&gt;&lt;span style=&quot;color: rgb(101, 123, 131);&quot;&gt; &lt;/span&gt;&lt;span style=&quot;color: rgb(147, 161, 161);&quot;&gt;fill&lt;/span&gt;&lt;span style=&quot;color: rgb(101, 123, 131);&quot;&gt;=&lt;/span&gt;&lt;span style=&quot;color: rgb(42, 161, 152);&quot;&gt;&quot;#817B8F&quot;&lt;/span&gt;&lt;span style=&quot;color: rgb(101, 123, 131);&quot;&gt; &lt;/span&gt;&lt;span style=&quot;color: rgb(147, 161, 161);&quot;&gt;/&amp;gt;&lt;/span&gt;&lt;/font&gt;&lt;/div&gt;&lt;div style=&quot;caret-color: rgb(101, 123, 131); color: rgb(101, 123, 131); text-align: start; white-space: pre;&quot;&gt;&lt;span style=&quot;color: rgb(101, 123, 131);&quot;&gt;&lt;font face=&quot;Helvetica&quot;&gt;  &lt;/font&gt;&lt;/span&gt;&lt;/div&gt;&lt;div style=&quot;caret-color: rgb(101, 123, 131); color: rgb(101, 123, 131); text-align: start; white-space: pre;&quot;&gt;&lt;font face=&quot;Helvetica&quot;&gt;&lt;span style=&quot;color: rgb(101, 123, 131);&quot;&gt;  &lt;/span&gt;&lt;span style=&quot;color: rgb(147, 161, 161); font-style: italic;&quot;&gt;&amp;lt;!-- Motorcycle Wheels --&amp;gt;&lt;/span&gt;&lt;/font&gt;&lt;/div&gt;&lt;div style=&quot;caret-color: rgb(101, 123, 131); color: rgb(101, 123, 131); text-align: start; white-space: pre;&quot;&gt;&lt;font face=&quot;Helvetica&quot;&gt;&lt;span style=&quot;color: rgb(101, 123, 131);&quot;&gt;  &lt;/span&gt;&lt;span style=&quot;color: rgb(147, 161, 161);&quot;&gt;&amp;lt;&lt;/span&gt;&lt;span style=&quot;color: rgb(38, 139, 210);&quot;&gt;circle&lt;/span&gt;&lt;span style=&quot;color: rgb(101, 123, 131);&quot;&gt; &lt;/span&gt;&lt;span style=&quot;color: rgb(147, 161, 161);&quot;&gt;cx&lt;/span&gt;&lt;span style=&quot;color: rgb(101, 123, 131);&quot;&gt;=&lt;/span&gt;&lt;span style=&quot;color: rgb(42, 161, 152);&quot;&gt;&quot;111&quot;&lt;/span&gt;&lt;span style=&quot;color: rgb(101, 123, 131);&quot;&gt; &lt;/span&gt;&lt;span style=&quot;color: rgb(147, 161, 161);&quot;&gt;cy&lt;/span&gt;&lt;span style=&quot;color: rgb(101, 123, 131);&quot;&gt;=&lt;/span&gt;&lt;span style=&quot;color: rgb(42, 161, 152);&quot;&gt;&quot;135&quot;&lt;/span&gt;&lt;span style=&quot;color: rgb(101, 123, 131);&quot;&gt; &lt;/span&gt;&lt;span style=&quot;color: rgb(147, 161, 161);&quot;&gt;r&lt;/span&gt;&lt;span style=&quot;color: rgb(101, 123, 131);&quot;&gt;=&lt;/span&gt;&lt;span style=&quot;color: rgb(42, 161, 152);&quot;&gt;&quot;13&quot;&lt;/span&gt;&lt;span style=&quot;color: rgb(101, 123, 131);&quot;&gt; &lt;/span&gt;&lt;span style=&quot;color: rgb(147, 161, 161);&quot;&gt;fill&lt;/span&gt;&lt;span style=&quot;color: rgb(101, 123, 131);&quot;&gt;=&lt;/span&gt;&lt;span style=&quot;color: rgb(42, 161, 152);&quot;&gt;&quot;#99999C&quot;&lt;/span&gt;&lt;span style=&quot;color: rgb(101, 123, 131);&quot;&gt; &lt;/span&gt;&lt;span style=&quot;color: rgb(147, 161, 161);&quot;&gt;/&amp;gt;&lt;/span&gt;&lt;/font&gt;&lt;/div&gt;&lt;div style=&quot;caret-color: rgb(101, 123, 131); color: rgb(101, 123, 131); text-align: start; white-space: pre;&quot;&gt;&lt;font face=&quot;Helvetica&quot;&gt;&lt;span style=&quot;color: rgb(101, 123, 131);&quot;&gt;  &lt;/span&gt;&lt;span style=&quot;color: rgb(147, 161, 161);&quot;&gt;&amp;lt;&lt;/span&gt;&lt;span style=&quot;color: rgb(38, 139, 210);&quot;&gt;circle&lt;/span&gt;&lt;span style=&quot;color: rgb(101, 123, 131);&quot;&gt; &lt;/span&gt;&lt;span style=&quot;color: rgb(147, 161, 161);&quot;&gt;cx&lt;/span&gt;&lt;span style=&quot;color: rgb(101, 123, 131);&quot;&gt;=&lt;/span&gt;&lt;span style=&quot;color: rgb(42, 161, 152);&quot;&gt;&quot;150&quot;&lt;/span&gt;&lt;span style=&quot;color: rgb(101, 123, 131);&quot;&gt; &lt;/span&gt;&lt;span style=&quot;color: rgb(147, 161, 161);&quot;&gt;cy&lt;/span&gt;&lt;span style=&quot;color: rgb(101, 123, 131);&quot;&gt;=&lt;/span&gt;&lt;span style=&quot;color: rgb(42, 161, 152);&quot;&gt;&quot;135&quot;&lt;/span&gt;&lt;span style=&quot;color: rgb(101, 123, 131);&quot;&gt; &lt;/span&gt;&lt;span style=&quot;color: rgb(147, 161, 161);&quot;&gt;r&lt;/span&gt;&lt;span style=&quot;color: rgb(101, 123, 131);&quot;&gt;=&lt;/span&gt;&lt;span style=&quot;color: rgb(42, 161, 152);&quot;&gt;&quot;13&quot;&lt;/span&gt;&lt;span style=&quot;color: rgb(101, 123, 131);&quot;&gt; &lt;/span&gt;&lt;span style=&quot;color: rgb(147, 161, 161);&quot;&gt;fill&lt;/span&gt;&lt;span style=&quot;color: rgb(101, 123, 131);&quot;&gt;=&lt;/span&gt;&lt;span style=&quot;color: rgb(42, 161, 152);&quot;&gt;&quot;#99999C&quot;&lt;/span&gt;&lt;span style=&quot;color: rgb(101, 123, 131);&quot;&gt; &lt;/span&gt;&lt;span style=&quot;color: rgb(147, 161, 161);&quot;&gt;/&amp;gt;&lt;/span&gt;&lt;/font&gt;&lt;/div&gt;&lt;div style=&quot;caret-color: rgb(101, 123, 131); color: rgb(101, 123, 131); text-align: start; white-space: pre;&quot;&gt;&lt;span style=&quot;color: rgb(101, 123, 131);&quot;&gt;&lt;font face=&quot;Helvetica&quot;&gt;  &lt;/font&gt;&lt;/span&gt;&lt;/div&gt;&lt;div style=&quot;caret-color: rgb(101, 123, 131); color: rgb(101, 123, 131); text-align: start; white-space: pre;&quot;&gt;&lt;font face=&quot;Helvetica&quot;&gt;&lt;span style=&quot;color: rgb(101, 123, 131);&quot;&gt;  &lt;/span&gt;&lt;span style=&quot;color: rgb(147, 161, 161); font-style: italic;&quot;&gt;&amp;lt;!-- Motorcycle Hubs --&amp;gt;&lt;/span&gt;&lt;/font&gt;&lt;/div&gt;&lt;div style=&quot;caret-color: rgb(101, 123, 131); color: rgb(101, 123, 131); text-align: start; white-space: pre;&quot;&gt;&lt;font face=&quot;Helvetica&quot;&gt;&lt;span style=&quot;color: rgb(101, 123, 131);&quot;&gt;  &lt;/span&gt;&lt;span style=&quot;color: rgb(147, 161, 161);&quot;&gt;&amp;lt;&lt;/span&gt;&lt;span style=&quot;color: rgb(38, 139, 210);&quot;&gt;circle&lt;/span&gt;&lt;span style=&quot;color: rgb(101, 123, 131);&quot;&gt; &lt;/span&gt;&lt;span style=&quot;color: rgb(147, 161, 161);&quot;&gt;cx&lt;/span&gt;&lt;span style=&quot;color: rgb(101, 123, 131);&quot;&gt;=&lt;/span&gt;&lt;span style=&quot;color: rgb(42, 161, 152);&quot;&gt;&quot;111&quot;&lt;/span&gt;&lt;span style=&quot;color: rgb(101, 123, 131);&quot;&gt; &lt;/span&gt;&lt;span style=&quot;color: rgb(147, 161, 161);&quot;&gt;cy&lt;/span&gt;&lt;span style=&quot;color: rgb(101, 123, 131);&quot;&gt;=&lt;/span&gt;&lt;span style=&quot;color: rgb(42, 161, 152);&quot;&gt;&quot;135&quot;&lt;/span&gt;&lt;span style=&quot;color: rgb(101, 123, 131);&quot;&gt; &lt;/span&gt;&lt;span style=&quot;color: rgb(147, 161, 161);&quot;&gt;r&lt;/span&gt;&lt;span style=&quot;color: rgb(101, 123, 131);&quot;&gt;=&lt;/span&gt;&lt;span style=&quot;color: rgb(42, 161, 152);&quot;&gt;&quot;5&quot;&lt;/span&gt;&lt;span style=&quot;color: rgb(101, 123, 131);&quot;&gt; &lt;/span&gt;&lt;span style=&quot;color: rgb(147, 161, 161);&quot;&gt;fill&lt;/span&gt;&lt;span style=&quot;color: rgb(101, 123, 131);&quot;&gt;=&lt;/span&gt;&lt;span style=&quot;color: rgb(42, 161, 152);&quot;&gt;&quot;#001940&quot;&lt;/span&gt;&lt;span style=&quot;color: rgb(101, 123, 131);&quot;&gt; &lt;/span&gt;&lt;span style=&quot;color: rgb(147, 161, 161);&quot;&gt;/&amp;gt;&lt;/span&gt;&lt;/font&gt;&lt;/div&gt;&lt;div style=&quot;caret-color: rgb(101, 123, 131); color: rgb(101, 123, 131); text-align: start; white-space: pre;&quot;&gt;&lt;font face=&quot;Helvetica&quot;&gt;&lt;span style=&quot;color: rgb(101, 123, 131);&quot;&gt;  &lt;/span&gt;&lt;span style=&quot;color: rgb(147, 161, 161);&quot;&gt;&amp;lt;&lt;/span&gt;&lt;span style=&quot;color: rgb(38, 139, 210);&quot;&gt;circle&lt;/span&gt;&lt;span style=&quot;color: rgb(101, 123, 131);&quot;&gt; &lt;/span&gt;&lt;span style=&quot;color: rgb(147, 161, 161);&quot;&gt;cx&lt;/span&gt;&lt;span style=&quot;color: rgb(101, 123, 131);&quot;&gt;=&lt;/span&gt;&lt;span style=&quot;color: rgb(42, 161, 152);&quot;&gt;&quot;150&quot;&lt;/span&gt;&lt;span style=&quot;color: rgb(101, 123, 131);&quot;&gt; &lt;/span&gt;&lt;span style=&quot;color: rgb(147, 161, 161);&quot;&gt;cy&lt;/span&gt;&lt;span style=&quot;color: rgb(101, 123, 131);&quot;&gt;=&lt;/span&gt;&lt;span style=&quot;color: rgb(42, 161, 152);&quot;&gt;&quot;135&quot;&lt;/span&gt;&lt;span style=&quot;color: rgb(101, 123, 131);&quot;&gt; &lt;/span&gt;&lt;span style=&quot;color: rgb(147, 161, 161);&quot;&gt;r&lt;/span&gt;&lt;span style=&quot;color: rgb(101, 123, 131);&quot;&gt;=&lt;/span&gt;&lt;span style=&quot;color: rgb(42, 161, 152);&quot;&gt;&quot;5&quot;&lt;/span&gt;&lt;span style=&quot;color: rgb(101, 123, 131);&quot;&gt; &lt;/span&gt;&lt;span style=&quot;color: rgb(147, 161, 161);&quot;&gt;fill&lt;/span&gt;&lt;span style=&quot;color: rgb(101, 123, 131);&quot;&gt;=&lt;/span&gt;&lt;span style=&quot;color: rgb(42, 161, 152);&quot;&gt;&quot;#001940&quot;&lt;/span&gt;&lt;span style=&quot;color: rgb(101, 123, 131);&quot;&gt; &lt;/span&gt;&lt;span style=&quot;color: rgb(147, 161, 161);&quot;&gt;/&amp;gt;&lt;/span&gt;&lt;/font&gt;&lt;/div&gt;&lt;div style=&quot;caret-color: rgb(101, 123, 131); color: rgb(101, 123, 131); text-align: start; white-space: pre;&quot;&gt;&lt;span style=&quot;color: rgb(101, 123, 131);&quot;&gt;&lt;font face=&quot;Helvetica&quot;&gt;  &lt;/font&gt;&lt;/span&gt;&lt;/div&gt;&lt;div style=&quot;caret-color: rgb(101, 123, 131); color: rgb(101, 123, 131); text-align: start; white-space: pre;&quot;&gt;&lt;font face=&quot;Helvetica&quot;&gt;&lt;span style=&quot;color: rgb(101, 123, 131);&quot;&gt;  &lt;/span&gt;&lt;span style=&quot;color: rgb(147, 161, 161); font-style: italic;&quot;&gt;&amp;lt;!-- Motorcycle Frame --&amp;gt;&lt;/span&gt;&lt;/font&gt;&lt;/div&gt;&lt;div style=&quot;caret-color: rgb(101, 123, 131); color: rgb(101, 123, 131); text-align: start; white-space: pre;&quot;&gt;&lt;font face=&quot;Helvetica&quot;&gt;&lt;span style=&quot;color: rgb(101, 123, 131);&quot;&gt;  &lt;/span&gt;&lt;span style=&quot;color: rgb(147, 161, 161);&quot;&gt;&amp;lt;&lt;/span&gt;&lt;span style=&quot;color: rgb(38, 139, 210);&quot;&gt;line&lt;/span&gt;&lt;span style=&quot;color: rgb(101, 123, 131);&quot;&gt; &lt;/span&gt;&lt;span style=&quot;color: rgb(147, 161, 161);&quot;&gt;x1&lt;/span&gt;&lt;span style=&quot;color: rgb(101, 123, 131);&quot;&gt;=&lt;/span&gt;&lt;span style=&quot;color: rgb(42, 161, 152);&quot;&gt;&quot;110&quot;&lt;/span&gt;&lt;span style=&quot;color: rgb(101, 123, 131);&quot;&gt; &lt;/span&gt;&lt;span style=&quot;color: rgb(147, 161, 161);&quot;&gt;y1&lt;/span&gt;&lt;span style=&quot;color: rgb(101, 123, 131);&quot;&gt;=&lt;/span&gt;&lt;span style=&quot;color: rgb(42, 161, 152);&quot;&gt;&quot;134&quot;&lt;/span&gt;&lt;span style=&quot;color: rgb(101, 123, 131);&quot;&gt; &lt;/span&gt;&lt;span style=&quot;color: rgb(147, 161, 161);&quot;&gt;x2&lt;/span&gt;&lt;span style=&quot;color: rgb(101, 123, 131);&quot;&gt;=&lt;/span&gt;&lt;span style=&quot;color: rgb(42, 161, 152);&quot;&gt;&quot;151&quot;&lt;/span&gt;&lt;span style=&quot;color: rgb(101, 123, 131);&quot;&gt; &lt;/span&gt;&lt;span style=&quot;color: rgb(147, 161, 161);&quot;&gt;y2&lt;/span&gt;&lt;span style=&quot;color: rgb(101, 123, 131);&quot;&gt;=&lt;/span&gt;&lt;span style=&quot;color: rgb(42, 161, 152);&quot;&gt;&quot;146&quot;&lt;/span&gt;&lt;span style=&quot;color: rgb(101, 123, 131);&quot;&gt; &lt;/span&gt;&lt;span style=&quot;color: rgb(147, 161, 161);&quot;&gt;stroke&lt;/span&gt;&lt;span style=&quot;color: rgb(101, 123, 131);&quot;&gt;=&lt;/span&gt;&lt;span style=&quot;color: rgb(42, 161, 152);&quot;&gt;&quot;#646A6E&quot;&lt;/span&gt;&lt;span style=&quot;color: rgb(101, 123, 131);&quot;&gt;&amp;nbsp;&lt;/span&gt;&lt;/font&gt;&lt;span style=&quot;caret-color: rgb(101, 123, 131); color: rgb(147, 161, 161);&quot;&gt;stroke-width&lt;/span&gt;&lt;span style=&quot;caret-color: rgb(101, 123, 131); color: rgb(101, 123, 131);&quot;&gt;=&lt;/span&gt;&lt;span style=&quot;caret-color: rgb(101, 123, 131); color: rgb(42, 161, 152);&quot;&gt;&quot;4&quot;&lt;/span&gt;&lt;span style=&quot;caret-color: rgb(101, 123, 131); color: rgb(101, 123, 131);&quot;&gt; &lt;/span&gt;&lt;span style=&quot;caret-color: rgb(101, 123, 131); color: rgb(147, 161, 161);&quot;&gt;fill&lt;/span&gt;&lt;span style=&quot;caret-color: rgb(101, 123, 131); color: rgb(101, 123, 131);&quot;&gt;=&lt;/span&gt;&lt;span style=&quot;caret-color: rgb(101, 123, 131); color: rgb(42, 161, 152);&quot;&gt;&quot;none&quot;&lt;/span&gt;&lt;span style=&quot;caret-color: rgb(101, 123, 131); color: rgb(101, 123, 131);&quot;&gt; &lt;/span&gt;&lt;span style=&quot;caret-color: rgb(101, 123, 131); color: rgb(147, 161, 161);&quot;&gt;/&amp;gt;&lt;/span&gt;&lt;/div&gt;&lt;div style=&quot;caret-color: rgb(101, 123, 131); color: rgb(101, 123, 131); text-align: start; white-space: pre;&quot;&gt;&lt;span style=&quot;color: rgb(101, 123, 131);&quot;&gt;&lt;font face=&quot;Helvetica&quot;&gt;  &lt;/font&gt;&lt;/span&gt;&lt;/div&gt;&lt;div style=&quot;caret-color: rgb(101, 123, 131); color: rgb(101, 123, 131); text-align: start; white-space: pre;&quot;&gt;&lt;font face=&quot;Helvetica&quot;&gt;&lt;span style=&quot;color: rgb(101, 123, 131);&quot;&gt;  &lt;/span&gt;&lt;span style=&quot;color: rgb(147, 161, 161); font-style: italic;&quot;&gt;&amp;lt;!-- Motorcycle Head --&amp;gt;&lt;/span&gt;&lt;/font&gt;&lt;/div&gt;&lt;div style=&quot;caret-color: rgb(101, 123, 131); color: rgb(101, 123, 131); text-align: start; white-space: pre;&quot;&gt;&lt;font face=&quot;Helvetica&quot;&gt;&lt;span style=&quot;color: rgb(101, 123, 131);&quot;&gt;  &lt;/span&gt;&lt;span style=&quot;color: rgb(147, 161, 161);&quot;&gt;&amp;lt;&lt;/span&gt;&lt;span style=&quot;color: rgb(38, 139, 210);&quot;&gt;ellipse&lt;/span&gt;&lt;span style=&quot;color: rgb(101, 123, 131);&quot;&gt; &lt;/span&gt;&lt;span style=&quot;color: rgb(147, 161, 161);&quot;&gt;cx&lt;/span&gt;&lt;span style=&quot;color: rgb(101, 123, 131);&quot;&gt;=&lt;/span&gt;&lt;span style=&quot;color: rgb(42, 161, 152);&quot;&gt;&quot;113&quot;&lt;/span&gt;&lt;span style=&quot;color: rgb(101, 123, 131);&quot;&gt; &lt;/span&gt;&lt;span style=&quot;color: rgb(147, 161, 161);&quot;&gt;cy&lt;/span&gt;&lt;span style=&quot;color: rgb(101, 123, 131);&quot;&gt;=&lt;/span&gt;&lt;span style=&quot;color: rgb(42, 161, 152);&quot;&gt;&quot;114&quot;&lt;/span&gt;&lt;span style=&quot;color: rgb(101, 123, 131);&quot;&gt; &lt;/span&gt;&lt;span style=&quot;color: rgb(147, 161, 161);&quot;&gt;rx&lt;/span&gt;&lt;span style=&quot;color: rgb(101, 123, 131);&quot;&gt;=&lt;/span&gt;&lt;span style=&quot;color: rgb(42, 161, 152);&quot;&gt;&quot;6&quot;&lt;/span&gt;&lt;span style=&quot;color: rgb(101, 123, 131);&quot;&gt; &lt;/span&gt;&lt;span style=&quot;color: rgb(147, 161, 161);&quot;&gt;ry&lt;/span&gt;&lt;span style=&quot;color: rgb(101, 123, 131);&quot;&gt;=&lt;/span&gt;&lt;span style=&quot;color: rgb(42, 161, 152);&quot;&gt;&quot;5&quot;&lt;/span&gt;&lt;span style=&quot;color: rgb(101, 123, 131);&quot;&gt; &lt;/span&gt;&lt;span style=&quot;color: rgb(147, 161, 161);&quot;&gt;fill&lt;/span&gt;&lt;span style=&quot;color: rgb(101, 123, 131);&quot;&gt;=&lt;/span&gt;&lt;span style=&quot;color: rgb(42, 161, 152);&quot;&gt;&quot;#645E64&quot;&lt;/span&gt;&lt;span style=&quot;color: rgb(101, 123, 131);&quot;&gt; &lt;/span&gt;&lt;span style=&quot;color: rgb(147, 161, 161);&quot;&gt;/&amp;gt;&lt;/span&gt;&lt;/font&gt;&lt;/div&gt;&lt;div style=&quot;caret-color: rgb(101, 123, 131); color: rgb(101, 123, 131); text-align: start; white-space: pre;&quot;&gt;&lt;span style=&quot;color: rgb(101, 123, 131);&quot;&gt;&lt;font face=&quot;Helvetica&quot;&gt;  &lt;/font&gt;&lt;/span&gt;&lt;/div&gt;&lt;div style=&quot;caret-color: rgb(101, 123, 131); color: rgb(101, 123, 131); text-align: start; white-space: pre;&quot;&gt;&lt;font face=&quot;Helvetica&quot;&gt;&lt;span style=&quot;color: rgb(101, 123, 131);&quot;&gt;  &lt;/span&gt;&lt;span style=&quot;color: rgb(147, 161, 161); font-style: italic;&quot;&gt;&amp;lt;!-- Motorcycle Handlebars --&amp;gt;&lt;/span&gt;&lt;/font&gt;&lt;/div&gt;&lt;div style=&quot;caret-color: rgb(101, 123, 131); color: rgb(101, 123, 131); text-align: start; white-space: pre;&quot;&gt;&lt;font face=&quot;Helvetica&quot;&gt;&lt;span style=&quot;color: rgb(101, 123, 131);&quot;&gt;  &lt;/span&gt;&lt;span style=&quot;color: rgb(147, 161, 161);&quot;&gt;&amp;lt;&lt;/span&gt;&lt;span style=&quot;color: rgb(38, 139, 210);&quot;&gt;line&lt;/span&gt;&lt;span style=&quot;color: rgb(101, 123, 131);&quot;&gt; &lt;/span&gt;&lt;span style=&quot;color: rgb(147, 161, 161);&quot;&gt;x1&lt;/span&gt;&lt;span style=&quot;color: rgb(101, 123, 131);&quot;&gt;=&lt;/span&gt;&lt;span style=&quot;color: rgb(42, 161, 152);&quot;&gt;&quot;113&quot;&lt;/span&gt;&lt;span style=&quot;color: rgb(101, 123, 131);&quot;&gt; &lt;/span&gt;&lt;span style=&quot;color: rgb(147, 161, 161);&quot;&gt;y1&lt;/span&gt;&lt;span style=&quot;color: rgb(101, 123, 131);&quot;&gt;=&lt;/span&gt;&lt;span style=&quot;color: rgb(42, 161, 152);&quot;&gt;&quot;112&quot;&lt;/span&gt;&lt;span style=&quot;color: rgb(101, 123, 131);&quot;&gt; &lt;/span&gt;&lt;span style=&quot;color: rgb(147, 161, 161);&quot;&gt;x2&lt;/span&gt;&lt;span style=&quot;color: rgb(101, 123, 131);&quot;&gt;=&lt;/span&gt;&lt;span style=&quot;color: rgb(42, 161, 152);&quot;&gt;&quot;125&quot;&lt;/span&gt;&lt;span style=&quot;color: rgb(101, 123, 131);&quot;&gt; &lt;/span&gt;&lt;span style=&quot;color: rgb(147, 161, 161);&quot;&gt;y2&lt;/span&gt;&lt;span style=&quot;color: rgb(101, 123, 131);&quot;&gt;=&lt;/span&gt;&lt;span style=&quot;color: rgb(42, 161, 152);&quot;&gt;&quot;109&quot;&lt;/span&gt;&lt;span style=&quot;color: rgb(101, 123, 131);&quot;&gt; &lt;/span&gt;&lt;span style=&quot;color: rgb(147, 161, 161);&quot;&gt;stroke&lt;/span&gt;&lt;span style=&quot;color: rgb(101, 123, 131);&quot;&gt;=&lt;/span&gt;&lt;span style=&quot;color: rgb(42, 161, 152);&quot;&gt;&quot;#646A6C&quot;&lt;/span&gt;&lt;span style=&quot;color: rgb(101, 123, 131);&quot;&gt; &lt;/span&gt;&lt;span style=&quot;color: rgb(147, 161, 161);&quot;&gt;stroke-width&lt;/span&gt;&lt;span style=&quot;color: rgb(101, 123, 131);&quot;&gt;=&lt;/span&gt;&lt;span style=&quot;color: rgb(42, 161, 152);&quot;&gt;&quot;4&quot;&lt;/span&gt;&lt;span style=&quot;color: rgb(101, 123, 131);&quot;&gt; &lt;/span&gt;&lt;span style=&quot;color: rgb(147, 161, 161);&quot;&gt;/&amp;gt;&lt;/span&gt;&lt;/font&gt;&lt;/div&gt;&lt;div style=&quot;caret-color: rgb(101, 123, 131); color: rgb(101, 123, 131); text-align: start; white-space: pre;&quot;&gt;&lt;font face=&quot;Helvetica&quot;&gt;&lt;span style=&quot;color: rgb(101, 123, 131);&quot;&gt;  &lt;/span&gt;&lt;span style=&quot;color: rgb(147, 161, 161);&quot;&gt;&amp;lt;&lt;/span&gt;&lt;span style=&quot;color: rgb(38, 139, 210);&quot;&gt;line&lt;/span&gt;&lt;span style=&quot;color: rgb(101, 123, 131);&quot;&gt; &lt;/span&gt;&lt;span style=&quot;color: rgb(147, 161, 161);&quot;&gt;x1&lt;/span&gt;&lt;span style=&quot;color: rgb(101, 123, 131);&quot;&gt;=&lt;/span&gt;&lt;span style=&quot;color: rgb(42, 161, 152);&quot;&gt;&quot;143&quot;&lt;/span&gt;&lt;span style=&quot;color: rgb(101, 123, 131);&quot;&gt; &lt;/span&gt;&lt;span style=&quot;color: rgb(147, 161, 161);&quot;&gt;y1&lt;/span&gt;&lt;span style=&quot;color: rgb(101, 123, 131);&quot;&gt;=&lt;/span&gt;&lt;span style=&quot;color: rgb(42, 161, 152);&quot;&gt;&quot;112&quot;&lt;/span&gt;&lt;span style=&quot;color: rgb(101, 123, 131);&quot;&gt; &lt;/span&gt;&lt;span style=&quot;color: rgb(147, 161, 161);&quot;&gt;x2&lt;/span&gt;&lt;span style=&quot;color: rgb(101, 123, 131);&quot;&gt;=&lt;/span&gt;&lt;span style=&quot;color: rgb(42, 161, 152);&quot;&gt;&quot;150&quot;&lt;/span&gt;&lt;span style=&quot;color: rgb(101, 123, 131);&quot;&gt; &lt;/span&gt;&lt;span style=&quot;color: rgb(147, 161, 161);&quot;&gt;y2&lt;/span&gt;&lt;span style=&quot;color: rgb(101, 123, 131);&quot;&gt;=&lt;/span&gt;&lt;span style=&quot;color: rgb(42, 161, 152);&quot;&gt;&quot;108&quot;&lt;/span&gt;&lt;span style=&quot;color: rgb(101, 123, 131);&quot;&gt; &lt;/span&gt;&lt;span style=&quot;color: rgb(147, 161, 161);&quot;&gt;stroke&lt;/span&gt;&lt;span style=&quot;color: rgb(101, 123, 131);&quot;&gt;=&lt;/span&gt;&lt;span style=&quot;color: rgb(42, 161, 152);&quot;&gt;&quot;#646A6C&quot;&lt;/span&gt;&lt;span style=&quot;color: rgb(101, 123, 131);&quot;&gt; &lt;/span&gt;&lt;span style=&quot;color: rgb(147, 161, 161);&quot;&gt;stroke-width&lt;/span&gt;&lt;span style=&quot;color: rgb(101, 123, 131);&quot;&gt;=&lt;/span&gt;&lt;span style=&quot;color: rgb(42, 161, 152);&quot;&gt;&quot;4&quot;&lt;/span&gt;&lt;span style=&quot;color: rgb(101, 123, 131);&quot;&gt; &lt;/span&gt;&lt;span style=&quot;color: rgb(147, 161, 161);&quot;&gt;/&amp;gt;&lt;/span&gt;&lt;/font&gt;&lt;/div&gt;&lt;div style=&quot;caret-color: rgb(101, 123, 131); color: rgb(101, 123, 131); text-align: start; white-space: pre;&quot;&gt;&lt;span style=&quot;color: rgb(101, 123, 131);&quot;&gt;&lt;font face=&quot;Helvetica&quot;&gt;  &lt;/font&gt;&lt;/span&gt;&lt;/div&gt;&lt;div style=&quot;caret-color: rgb(101, 123, 131); color: rgb(101, 123, 131); text-align: start; white-space: pre;&quot;&gt;&lt;font face=&quot;Helvetica&quot;&gt;&lt;span style=&quot;color: rgb(101, 123, 131);&quot;&gt;  &lt;/span&gt;&lt;span style=&quot;color: rgb(147, 161, 161); font-style: italic;&quot;&gt;&amp;lt;!-- Motorcycle Headlights --&amp;gt;&lt;/span&gt;&lt;/font&gt;&lt;/div&gt;&lt;div style=&quot;caret-color: rgb(101, 123, 131); color: rgb(101, 123, 131); text-align: start; white-space: pre;&quot;&gt;&lt;font face=&quot;Helvetica&quot;&gt;&lt;span style=&quot;color: rgb(101, 123, 131);&quot;&gt;  &lt;/span&gt;&lt;span style=&quot;color: rgb(147, 161, 161);&quot;&gt;&amp;lt;&lt;/span&gt;&lt;span style=&quot;color: rgb(38, 139, 210);&quot;&gt;rect&lt;/span&gt;&lt;span style=&quot;color: rgb(101, 123, 131);&quot;&gt; &lt;/span&gt;&lt;span style=&quot;color: rgb(147, 161, 161);&quot;&gt;x&lt;/span&gt;&lt;span style=&quot;color: rgb(101, 123, 131);&quot;&gt;=&lt;/span&gt;&lt;span style=&quot;color: rgb(42, 161, 152);&quot;&gt;&quot;113&quot;&lt;/span&gt;&lt;span style=&quot;color: rgb(101, 123, 131);&quot;&gt; &lt;/span&gt;&lt;span style=&quot;color: rgb(147, 161, 161);&quot;&gt;y&lt;/span&gt;&lt;span style=&quot;color: rgb(101, 123, 131);&quot;&gt;=&lt;/span&gt;&lt;span style=&quot;color: rgb(42, 161, 152);&quot;&gt;&quot;109&quot;&lt;/span&gt;&lt;span style=&quot;color: rgb(101, 123, 131);&quot;&gt; &lt;/span&gt;&lt;span style=&quot;color: rgb(147, 161, 161);&quot;&gt;width&lt;/span&gt;&lt;span style=&quot;color: rgb(101, 123, 131);&quot;&gt;=&lt;/span&gt;&lt;span style=&quot;color: rgb(42, 161, 152);&quot;&gt;&quot;4&quot;&lt;/span&gt;&lt;span style=&quot;color: rgb(101, 123, 131);&quot;&gt; &lt;/span&gt;&lt;span style=&quot;color: rgb(147, 161, 161);&quot;&gt;height&lt;/span&gt;&lt;span style=&quot;color: rgb(101, 123, 131);&quot;&gt;=&lt;/span&gt;&lt;span style=&quot;color: rgb(42, 161, 152);&quot;&gt;&quot;5&quot;&lt;/span&gt;&lt;span style=&quot;color: rgb(101, 123, 131);&quot;&gt; &lt;/span&gt;&lt;span style=&quot;color: rgb(147, 161, 161);&quot;&gt;rx&lt;/span&gt;&lt;span style=&quot;color: rgb(101, 123, 131);&quot;&gt;=&lt;/span&gt;&lt;span style=&quot;color: rgb(42, 161, 152);&quot;&gt;&quot;2&quot;&lt;/span&gt;&lt;span style=&quot;color: rgb(101, 123, 131);&quot;&gt; &lt;/span&gt;&lt;span style=&quot;color: rgb(147, 161, 161);&quot;&gt;ry&lt;/span&gt;&lt;span style=&quot;color: rgb(101, 123, 131);&quot;&gt;=&lt;/span&gt;&lt;span style=&quot;color: rgb(42, 161, 152);&quot;&gt;&quot;2&quot;&lt;/span&gt;&lt;span style=&quot;color: rgb(101, 123, 131);&quot;&gt; &lt;/span&gt;&lt;span style=&quot;color: rgb(147, 161, 161);&quot;&gt;fill&lt;/span&gt;&lt;span style=&quot;color: rgb(101, 123, 131);&quot;&gt;=&lt;/span&gt;&lt;span style=&quot;color: rgb(42, 161, 152);&quot;&gt;&quot;#B4B0AC&quot;&lt;/span&gt;&lt;span style=&quot;color: rgb(101, 123, 131);&quot;&gt; &lt;/span&gt;&lt;span style=&quot;color: rgb(147, 161, 161);&quot;&gt;/&amp;gt;&lt;/span&gt;&lt;/font&gt;&lt;/div&gt;&lt;div style=&quot;caret-color: rgb(101, 123, 131); color: rgb(101, 123, 131); text-align: start; white-space: pre;&quot;&gt;&lt;span style=&quot;color: rgb(101, 123, 131);&quot;&gt;&lt;font face=&quot;Helvetica&quot;&gt;  &lt;/font&gt;&lt;/span&gt;&lt;/div&gt;&lt;div style=&quot;caret-color: rgb(101, 123, 131); color: rgb(101, 123, 131); text-align: start; white-space: pre;&quot;&gt;&lt;font face=&quot;Helvetica&quot;&gt;&lt;span style=&quot;color: rgb(101, 123, 131);&quot;&gt;  &lt;/span&gt;&lt;span style=&quot;color: rgb(147, 161, 161); font-style: italic;&quot;&gt;&amp;lt;!-- Motorcycle Tail Light (Optional) --&amp;gt;&lt;/span&gt;&lt;/font&gt;&lt;/div&gt;&lt;div style=&quot;caret-color: rgb(101, 123, 131); color: rgb(101, 123, 131); text-align: start; white-space: pre;&quot;&gt;&lt;font face=&quot;Helvetica&quot;&gt;&lt;span style=&quot;color: rgb(101, 123, 131);&quot;&gt;  &lt;/span&gt;&lt;span style=&quot;color: rgb(147, 161, 161);&quot;&gt;&amp;lt;&lt;/span&gt;&lt;span style=&quot;color: rgb(38, 139, 210);&quot;&gt;rect&lt;/span&gt;&lt;span style=&quot;color: rgb(101, 123, 131);&quot;&gt; &lt;/span&gt;&lt;span style=&quot;color: rgb(147, 161, 161);&quot;&gt;x&lt;/span&gt;&lt;span style=&quot;color: rgb(101, 123, 131);&quot;&gt;=&lt;/span&gt;&lt;span style=&quot;color: rgb(42, 161, 152);&quot;&gt;&quot;156&quot;&lt;/span&gt;&lt;span style=&quot;color: rgb(101, 123, 131);&quot;&gt; &lt;/span&gt;&lt;span style=&quot;color: rgb(147, 161, 161);&quot;&gt;y&lt;/span&gt;&lt;span style=&quot;color: rgb(101, 123, 131);&quot;&gt;=&lt;/span&gt;&lt;span style=&quot;color: rgb(42, 161, 152);&quot;&gt;&quot;116&quot;&lt;/span&gt;&lt;span style=&quot;color: rgb(101, 123, 131);&quot;&gt; &lt;/span&gt;&lt;span style=&quot;color: rgb(147, 161, 161);&quot;&gt;width&lt;/span&gt;&lt;span style=&quot;color: rgb(101, 123, 131);&quot;&gt;=&lt;/span&gt;&lt;span style=&quot;color: rgb(42, 161, 152);&quot;&gt;&quot;5&quot;&lt;/span&gt;&lt;span style=&quot;color: rgb(101, 123, 131);&quot;&gt; &lt;/span&gt;&lt;span style=&quot;color: rgb(147, 161, 161);&quot;&gt;height&lt;/span&gt;&lt;span style=&quot;color: rgb(101, 123, 131);&quot;&gt;=&lt;/span&gt;&lt;span style=&quot;color: rgb(42, 161, 152);&quot;&gt;&quot;6&quot;&lt;/span&gt;&lt;span style=&quot;color: rgb(101, 123, 131);&quot;&gt; &lt;/span&gt;&lt;span style=&quot;color: rgb(147, 161, 161);&quot;&gt;rx&lt;/span&gt;&lt;span style=&quot;color: rgb(101, 123, 131);&quot;&gt;=&lt;/span&gt;&lt;span style=&quot;color: rgb(42, 161, 152);&quot;&gt;&quot;2&quot;&lt;/span&gt;&lt;span style=&quot;color: rgb(101, 123, 131);&quot;&gt; &lt;/span&gt;&lt;span style=&quot;color: rgb(147, 161, 161);&quot;&gt;ry&lt;/span&gt;&lt;span style=&quot;color: rgb(101, 123, 131);&quot;&gt;=&lt;/span&gt;&lt;span style=&quot;color: rgb(42, 161, 152);&quot;&gt;&quot;2&quot;&lt;/span&gt;&lt;span style=&quot;color: rgb(101, 123, 131);&quot;&gt; &lt;/span&gt;&lt;span style=&quot;color: rgb(147, 161, 161);&quot;&gt;fill&lt;/span&gt;&lt;span style=&quot;color: rgb(101, 123, 131);&quot;&gt;=&lt;/span&gt;&lt;span style=&quot;color: rgb(42, 161, 152);&quot;&gt;&quot;#DF2A3B&quot;&lt;/span&gt;&lt;span style=&quot;color: rgb(101, 123, 131);&quot;&gt; &lt;/span&gt;&lt;span style=&quot;color: rgb(147, 161, 161);&quot;&gt;/&amp;gt;&lt;/span&gt;&lt;/font&gt;&lt;/div&gt;&lt;/div&gt;" style="rounded=1;whiteSpace=wrap;html=1;arcSize=4;" vertex="1" parent="1">
          <mxGeometry x="320" y="400" width="520" height="330" as="geometry" />
        </mxCell>
        <mxCell id="Az45LCxhIKdniQeji25l-3" value="" style="shape=image;verticalLabelPosition=bottom;labelBackgroundColor=default;verticalAlign=top;aspect=fixed;imageAspect=0;image=data:image/png,iVBORw0KGgoAAAANSUhEUgAAAOgAAACWCAYAAADUgcTJAAAAAXNSR0IArs4c6QAAAERlWElmTU0AKgAAAAgAAYdpAAQAAAABAAAAGgAAAAAAA6ABAAMAAAABAAEAAKACAAQAAAABAAAA6KADAAQAAAABAAAAlgAAAAAy237FAAAMxElEQVR4Ae3dC3BU1RkH8HPuJuGl8rA8pFWxLVhQpo7QihIIjyZFBOtoS6ftFKuMOmVqIGEQSJbk7i5JgEpCpGUGRscOfYxSmdYBC8kUE14FKcVOlGmhHQs6ClUwKh0JbO79+t0IQxo3zWbdDee7978zye7evffud37nfHvu4+xdpXCDAAQgAAEIQAACEIAABCAAAQhAAAIQgAAEIAABCEAAAhCAAAQgAAEIQAACEIAABCAAAQhAAAIQgAAEIAABCEAAAhCAAAQgAAEIQAACEIAABCAAAQhAAAIQgAAEIAABCEAAAhCAAASMFtBGRycwuJVLVva/kJNzAznWMFJqqKXVIKXcAUrpfq6i3kpZWZbAciUKmfimLH2ByD3HZTpLLjUrS50OqayTpK2TTtaZE7Ztu4mWxbTkBJCgyTklnCsWXneTUs5Y16WxSqvRitQobqAj+Z4TEjcWOMF/x0jRUU7gI8rVr/3HudC0evWSs9BJTgAJmpxT21yVy54aHLdaJ3C3MUGTe4fS+nZ+YWA3VoFZlTrKCIe00geVo/aXrVz4Z6B0LoAE7dym7RXbfuoaHXfzGWoaKXcKb6qO6WIRvJykAJvGeTegkbc4GkjTTrui+GCSiwZmNiRoJ1Vtl1Z/XWs9k1+ewQ3ojk5mw+T0CXygtarnzeEd1OK8ZD+5+N30rVrumpCgHerODlfP0KTu502w+/jTfXCHl/G0JwRIvcJbKr+jHHeLbRf/syfe0tT3QIJerBk7vGamJmsO95Zz+IBPH1MrLGBxNXF9bKYcej6oiRr4BLVL10ywVOiHvGk1lxv/VQFLABHF5S2ZQ7z5u6lX/PympauWfigi6DQFGdgErShZO7RV0cPcW/6ILUelyROryagAvcirf7a8oti7D8QtkAkaC9fO5B7zMT7Pfm8gatlfhTzNdbdRtYY22KsWvOmvon26NIFK0FVPrLq6JavXfKXpx0xx46c5MEWKACfpNk16fXll0XYpMacSZyiVhSQuE11efUurFbJ5k/YJjh8jfSRWYruY+Sj7KD4NNiFvcoHbuKfOt+dPA9GDxsLVBUR6ER9sKGhXx3joD4ELpHR1jmtVl1QVvuePIl0uhe97UO4553ByRrjIEy8XG498JBDiXiaXRyINzJs440jj3rpmH5VN+TpBI+Hah5Srom0D2f1UayhLIoHbrZAeOjWv4FjD7jrfjELybYJGS2r4FApFuSZxMChRc/bntFt5YMOQKbn3vN64d7svNnd9maB2yRoedNC2WXu9P9shStW5gB6jNX1uSm5BU+Pe+jOdzyfjFd8laCy8ls9tWhHerP2SjCpAlBkQuFVrq29B7qx9O/f+4VwG1t9jq+Tv0frnZpfW3sVXLeDTKPQV/5QKJUlNgObFQ/HFqS1rzlK+6UErSmqu4yN53tHaGebwIpIrKkBq4rTJd59p2LND7HlS3/Sgca0LuTF854o2CLy5WQI8moFHHD3ufYXQrMCSj8YXPWiktOYH/EkT42LnJF90zBkQgWs5T/tPuXPWrsZ928VdC0l8D8oHhW7mA0KP8CihfgFpcChm9wVm66zWR7q/2JVfQnyC8hX1HuJzX3lXnhIRmCzA3yedFwvXTDM5xkSxiU7QSNnafL6y3oOJCoZpEGgvwFtY1/MftxUSNf5cdIKSQ99n8GHtKwKPIdCZAF9me26ktHZOZ6+bOF1sgvK+5yz+KBSFbWIDCFpM/CX9OXy1+ywp5RaboA7RA4zcVwo04jRDgPdF79fxq79lRjRdRyEyQaPLqidx73lf18XDHBBIJGAhQROxpG2aZXknnnFVhLSBBm5F90aXrRVxMXJxPahtVw/i0SG4MkLgciqtBe7PP3KVn9Y1Zmhl4hJUx9vOeY7PkAdWGxgBmi6hqOISVGlrkgRYxGi8wKToshrjL4MjL0FdyjW+6hGg8QI8aCHEm7nG74eKStDo8tpxPO72a8bXPgIUIeASGd+WRCWo67hjRdQ8ghQhwNfVHceDFoz+BpSoBNWKxoioeQQpRWCk5QwabXKwohKUB8aPMhkTsckTIJe+aHLUshJUqREmYyI2gQLkGN2mxCToo49uyObqv1FgE0DIBguQ1sMNDo8PNAu5DR/wwWAOFcP7hNSXlDD5uIbXroy9iUnQUE4f/Cy9sc1IcmDa6A99MQlKurW35GaA2I0VMLpdiUlQ1/F+xAo3CKRbQBudA0YH174qQhbF2z/HYwikR4Ba07OezKxFTII6rXQ+MwRYa8AFPjK5/GISVPUOvc+X13RMxkRsAgVIvW9y1GIS1LYLvU+6t0zGRGzyBHg87imToxaToBcRkaAmtyaBsfFABaPblKgE5UsO/0NgG0DIJgu46rjJ4YlKUE367yZjIjZxAh9Ra8tRk6MWlaBk6SMmYyI2WQJ8Yv2wvXrJOyZHLSpBs133VcY8aTIoYpMj4HKCmh6tqAQtrSw6yVcG32c6KuKTIWBZ9IrpkYpKUA/TJSSo6Y1KRHykjluu+W1JXILyYIXd3ACMPrksooEGPEg+I/ByuKL4bdMZxCWoXVl0mH9G7o+mwyI+swX4AJGINiQuQb1q1xbtMLv6EZ3ZAvpAthtCgmaqkqjFeYk3dY3fwc9U+bHezybAvefWkqrC9z7bWnpmaZE9qP3k4ne5H93SM0R4F58J/E1Z7otSyiQyQT1cyqHf8uX7D0mBRpyGCGj1QlmsWMyAF7EJattFx/mbCL8xpNoRhgyBv5JrbZYR6idRik1QL3zKiv+a7+o+KQr+Q6ALAa032ZULXu9iLqNeFp2gtt22L/osp+pZo1QRjHECmtTvs52sTcYF1kVAohPUK1t5xcLn+Yju012UEy8HWoBOueQ+U1L1kzPSGMQnqAdOlL2R/++Uho94e0aAT6v83K5atK1n3i297+KLBLWrHve+J7qO/4z+dnx6qw5rS0aANP3KzdY/S2ZeE+cJmRhUKjE17qk7OnXSN/kH0HQBL88fmrhBQO22LCtWHi16Q6qFbxLUqwBO0gN5k2f05eycKLVCEHfaBPhKCRQpX1HUkLY1XoEV+WIT93/cWpyf8gAG3ifFLbACpN7hL1SsLK8o3irdwFc9qFcZjfvrP/7G5PzXSFnX8tOvSq8gxN9tgdN8VD9iVxX54si+7xLUq86X99R/OD3vniZS1J+f3tbtKsYCUgX+zUcfouWVReulFqBj3L5MUK+QDbu3N3NPytcwsvry03EdC47n/hLQSv+LByNEyiuKNvipZL5NUK+SvJ40P3f2fke7/EvF+i6ehKO7fmq9l8vyF65ar+f85eVJ/ngUmAYbCa8t4qN6xbx/8gV/VB1KcVFgq7ZCa8pihbv8KOLrHrR9hTXu3nFg6qS73+RPpCE8fUT71/BYpEArbw+ti2trRWTFAuMvn5mqcGB60EtA0eXVt7iums/7LPMvTcO9OIEmHpGyvnzFQl/tbyaqhcAl6CWEaEnNwzwMbB7vu3j7prjJEODTm+oZy9JPl8UWBuKSN4FNUK89xsI1o/nq4g/y0b+5XPHXyWijAY2SqEEr6xdllQs3BUkg0Al6qaIjJbXTlXa+x73pd3naVZem494IgcO8OftciJznwhWL3jIioh4MAgnaDjsWrp3pEn2bj/Y+wJOvafcSHva8wGGtaIvr0gv8VbFjPf/2ZrwjEjRBPUTKaqeqVmc2f3LP5JdvTjALJmVOoI4P4G1zHdpmryw6nrm3kbFmJOj/qSd7afWXrZBVwEMGva+w5fOfNyoJt/QLHOXz0/W82rq3T/et37jxsXj630LmGpGgSdbbitLq8a7Sk0npXP4Jpzt5f3VYkotitoQC+lWl6U9a096Qo3d5v1yXcLaAT0SCptAA7KU1I/gk+Xhl0ThLWbdxDzuWV/P5FFYVpEWaiKhJW+qwdtSh5hZ1qKam+FyQAFIpKxI0FbUOy1QtXT/wfKhlJO878R/dxKdsbuAe1htSOJQTeQhvvg3gx34+Osxnq1Qzl7OZy3uKy36SHfiIqz7havWGcpxjQT7Q06G5dOspErRbXKnNvHnz5tCJgyd6x7P79PbWcKFXi0/cLbdXy3nqN7zfx4WFhedT08FSEIAABCAAAQhAAAIQgAAEIAABCEAAAhCAAAQgAAEIQAACEIAABCAAAQhAAAIQgAAEIAABCEAAAhCAAAQgAAEIQAACEIAABCAAAQhAAAIQgAAEIAABCEAAAhCAAAQgAAEIQAACEIAABCAAAQhAAAIQgAAEIAABCEAAAhCAAAQgAAEIQAACEIAABCAAAQhAAAIQgAAEIAABCEAAAhCAAAQgAAEIQAACEIAABCAAAQhAAAIQgAAEIAABCEAAAhCAAAQgAAEIQAACEIAABCAAAQhAIFMC/wUTutZSJQ5KsgAAAABJRU5ErkJggg==;imageBorder=default;" vertex="1" parent="1">
          <mxGeometry x="40" y="400" width="123.73" height="80" as="geometry" />
        </mxCell>
        <mxCell id="Az45LCxhIKdniQeji25l-4" value="" style="shape=image;verticalLabelPosition=bottom;labelBackgroundColor=default;verticalAlign=top;aspect=fixed;imageAspect=0;image=data:image/png,iVBORw0KGgoAAAANSUhEUgAAAOgAAACWCAYAAADUgcTJAAAAAXNSR0IArs4c6QAAAERlWElmTU0AKgAAAAgAAYdpAAQAAAABAAAAGgAAAAAAA6ABAAMAAAABAAEAAKACAAQAAAABAAAA6KADAAQAAAABAAAAlgAAAAAy237FAAAWt0lEQVR4Ae1dC5QU1ZmuW93z4I1uBAyLLwhRohsJqxJFeeTIQSSJ0Q1r3BXDMI8eOJpdTTTAqA0EI5wwCAbmyaCwGwkbg1kVfERBAyYqaNbXqksSwQgaFVF5TnfV3e+vnmYe3T3Tj+rqulX/Paema+7z/797v7qvv25pGjtGgBFgBBgBRoARYAQYAUaAEWAEGAFGgBFgBBgBRoARYAQYAUaAEWAEGAFGgBFgBBgBRoARYAQYAUaAEWAEGAFGgBFgBBgBRoARYAQYAUaAEWAEGAFGgBFgBBgBRoARYAQYAUaAEWAEGAFGgBFgBBgBRoARYAQYAUaAEWAEGAFGgBFwNQLC1dIpKNzdt909oLW4+DRp6EOkpg3WhXayppkDNU30MTVZqml6UFdQr2QiSzhNF61Smkeh0+fSlJ9ouvZRQAvul0LfbwQ/3hMOh81kadkvPQSYoOnhlDTWopp7z9Q04zzTlOdpQjtHk9pINNAv4ReEZAcE9uB6W2ryLRD4dc0Urx4yWl9ZuvS2zxmd9BBggqaHkxXrrrkrT4no0bHoNsYKaV6kCfE1BJyUQRYcVdPeAgg7hSZe0Azt93fc/W8vMiipEWCCpsbGCgmHV/YXEfNyADVJauYEDFVH9ZCEg9NEAJhGMA3YhhHHVinkU+HFN7+QZlLfRGOCpqjq8PzaC4UQUxE8BQ3oohTR2Ns+BA4KoT2B4fBj8pjxaPhnP/qbfVmrmxMTtEvdhWtqpwipXY0h2FV4up/SJZj/dQIBqT2PkcomWWw+GA7fvNuJIt1aBhO0rWbCNcumCqlPR285HQs+vdxaYT6T6xXUx0ZZLH/pV6L6nqDh+cvG6lrgegytZqDx9/UZAZRQFyOZnRj+riuJHF/34yU//lQJoW0S0rcEXTzvnsFRTZaht/w+sBxpE56cTV4RkL9B9mvvXHwz/frC+ZKgi2pWTEWPWYV99m/5opa9peRHqLtGLRpoCC/5wV5vqZaoja8IuuTWJf2OBUtma0JWA4rTE+FgH1UQAEkfEVKsvvOuf9+iiszZyBnIJpGKaRbeXvuVqB4IY0h7K+RnSx8VK7GDzFhlH4ltsLHjL5tsbvvd457dP/VFD7qopnaylOIWLDZM7lDHfOsNBFqlJmqLTb123k9v+tAbKrVr4fkeFD3ndJBzAVS+pF1tvvMQAgH0MuNgiXTS+EumvL5t++OfeEg3zdMEXVCzYqZmagstQ3Yv1RrrkgyBr+kBMXji+Mlvb332cc9YIXmWoAvnLccWilyImuTFoGTN2Zt+58KwYdCEcVe+tm37Fk8Mdz1J0PC8ZTA6sIa1w7zZDlmr1AiIUULIL0wYN/mVbduf+Dh1PDVCPEfQRTX3YG9TX4Bh7XA1qoClzAMC5wqh9548btqOp7ZvPpqH/B3LEu/ReseF56+4GKcWYBtFnu0drViT7BCQsyKByI+yS+ueVJ7pQRfPW34qVvJotXaKe+BlSQqKgNQumXTZFR9v/d1jyu6TeqYHjQhxExrDdwvaILhwdyEAawZYHN1IrxC6S7D0pfFED7pg/vJ/wZNmEdQuTl91jukTBP4OPB0w4evTntm2Y4tyZyEp34NiUejLWBCqgJVQH580OFYzcwS+KYLRisyTFT6F8gTFiXozsfc1vvBQsgRuRgDvk85aVLN8kptlTCab0gRdcMc9l+NkvRuSKcZ+jEBHBDDCGoYLbUUqZX+uNEGlIa8D4EM6VgTfMwKpEMAx2zMWzF8xPVW4G/2VJSjmntPwKFQKbDc2AL/JhJf0p+O0+6AqeitLUEPKawByb1WAZjndgQDmoleLSL9vu0OanqVQkqAL59Zeit7zqp7V4xiMQDIEdCZoMlhs89N12njmUxFsA9R3GX1r4dx7lDiMXLkeNByuPRnWIXwygu84ZavCA/CRq8ttzTFPmSlHUBGx9jz/MU94cLa+QUB+QwVVlSOoJvRLVQCWZXQ9ApcunLvc9cfgqEdQU45zfdWzgK5HAEYLAQxzXT8PVYqgC29fMQZ2txe4vvZZQCUQMKV0fVtSiqCmYZ6nRM2zkEoggHN1x8BowdVvQLnSLrGhoeE0XS8aAauP4TDlOw3HZg7FOTODoxF5Pvy+iM1mHDmEC+MUmG9p0sSndXEZBn4NUzOiuI+aWjRiWv5KtBYWMisEdF1owSJ8/ipIl9D0AH5xECf5C7pStBWrvaCdlPQOLiwpCT5jmpHdVVVVe7MSIo+JXEHQ+vqWUSDehbpuYnXW+qz8udC5X656UyVEW00t0mrEruMgLwjMTl0EiIhFxXQFrCuIeyKjDY7eFX0Nj/uXTFPH19TEC6FQ2Rs25JtTFrZolo0ETU1NY0xTmwRCjkf6i3GdlE0+maQx0cO2Ho9qrccM/BpWD5tJeo5bGASohywuCWjFpbhKguglHWm2dAD2cyDsM7quPV1RUbGrENo7omlcsebm5pNByisxLJ0KvytwDYiHOf1LQ+DjIOrxo1Hrcrp8Lq9nBEp6BTXrAjGp5yygo2+SbsFweTPI+mh5efkBp2RxhKB1dWvP0HXjO1CK7Gcvc0q5dMshkh47ggu/NJ9lVzgEaN5YCmKW9o6Rs3CSpCz5WYQ8ZJqBTdXVM99JGcumgLwSFMPYwRjPfw+yXouhguv3nI4fA0kPR7WjhyM2wcvZZIJArz5FWmkfELNUhbfBxPPQbQPWTR7A8PeDTPTMJG7eCFpf3/SvmGhfD2GUs5ul3pRISj0ru/wjQMNYi5zoNRV0T2CBc30oVPEf+ZDddoKuXt00BsvcdEATXQWdOOQCGC0oHQFJjx6KWFs2ueTFaZMjQPPKXn2LtN7oOR1a+EkuSO6+tDXQhG2+ptmz7V1MspWgDQ3N5ZhIh7AINCZ3nd2RA/WiR0BS7k3trQ/qNXuDnPTrFYe2vwttv76qqrzZLp1sIWhLS8uwaNS8CcLR4dGutszIBjjqTQ9/3qodwQUd2eWAABkO9O5XrPXBpXivmQqFVui4MhjUV5aVlb2bKlK6/jkTtL5+zdc1zbwZ881/SrdQVeMd+TxiEZW2aNhljgANaYmYvfsVZZ5YsRSYl/4KM7zaUGjW73MRPSeC1tc3fxP7QrehV3H9azu5gNQxLS0gHf6s1bJM6ujP990jQJY/ffoXW9sn3cf0Tih60h3Y918SCpU/nK1WWRMUq7Tfwyfe5mL7xHcG7GSJdOiz45ZFUrbA+ykdWQD17V9iWQL5Se+YruJVKc2fYpX3gWx0z4qgjY3N16PXDKPAs7Ip1AtpyFTw0KdM0p7q0iLnAJATpno+dn9GbxqurCxfnykGGW+DYKX2OpDzDhTkW3ISyNTg+lLDQ+/ALjkCTM4TuJxFnGlqaiGjnYxcRgRtbFyDr1drNbhGZFSKRyMTSWleRfMrdp0RIEz6Ahuf95wdQRlhmubtbRzq6N/tfdoEhaE7FoLo69XaOd3m6LNAMksjkhbYmNtVqFurtUROJUz2HIUO3JG3xriUXrlpERQ2tWcahvZDP63WpgdfLBYZdvfxwdZBupgQFoQJu0QEiEPEJeJUYmiiT1oExVIxGSDwSe6J+J3wiW++n/Dw6U1sn9Nztip21+ZVbZzqMd8eCQpDhBBeqiaCsusBAdqA95LpWg/qJgRb5ns8kkjAJbmHuCnGreShcd9uCVpX13yJEOZsRO42Xjwzv//S3IvsS+lMHL850tnSvbAvVqsEu07cIo51J3RK4sFUSeCsl1noPX1niNAdYD2FUS9Cb2j4zZHOfh49ZFff4jziGHEtVfqU+wOnnvr3s7C5emeqhOyfGoFAUQDnHRnW6YKpY3knxNrvHFhq1+Fd3gEmPU1G79z50ruPPPLwy8miJ+1BsQx8Oozfv58sAfv1jAAN9+gFZL840tWPw3q76pe4RpxLll9SgmKFCZ+W1/gTC8kQS9NP4RMC0tQwFo22U/z0MMoInPQjj2vjXEKKBIKuXr3myxgTZ2ySlJAze1gNF9MEzzrSjclpW/VeS9zrmlsCQQMBE+918sJQV6Cy+Z8WTUp6e3eoS7rxwlA2LSMxDQwY/iHGvc5hnQi6alXLMJDzms5R+L9cEKAjJL3qvKxbYepMXBPjYHvpnQgaDBrTEDS6PZjvckXA6kU9aJNKNsjce+baOhLSj27j4ImATgRFN0snvrOzEQGapxX3SrmbZWNJzmZFOnl5fu0smu2ldeXgCYLCeHcClnuVO8O2XTX33lFv46VtCNJFjcOl3dsmUklGHCQuxsNPEBQnwE+CJ1s5x5Gx8df6+I+Hhrn0GhnpxC4vCBS3cdHK3EJ548aNAWytTMhLcZyphYCXXlz2ki5ubJ7EReIkyWYR9ODBgxdhPnGpG4X1ikxFOH3Bpu9YFhQS0oF0YZc/BIiLxEkqwSKolLrrP2yUPzicyZmGhF5o2KQDD2/z32binIxPJPBla3b5RoC+DK2684IOitSBxUkRDoeL8eYKWdKPUkRwZcWkQ68PfnRUWflJ8IFf6MXHmThTg2/s3//X0frQoUPPRnlMTgdAt3oflW1zITv3oA40lFgRo4ibOsa6RFB2DiBAJy7gozoOlJSfIkh2Pr0wP9gmy5W4idYihycLZL/8IKByA1dZ9vzUZr5zlcPRg4oz8l0M59+OgMqNXGXZ22tAnTviJvWgeIOFnVMIqGzyp7LsTtWvveXIYUTQwfZmyrl1h4DKH61VWfbu6sS9YXIwCCoGuVdA70mmsjWRyrKr2ZLEIBBU66em8GpKjbcV1BQcUqssu6Kg92OCOlxzghBX1Kksu6KQWwRVuMkoCjuLzQikh4CObRYZTS8ux7IFAWlLLoXJRGXZC4NYTqUSN/F9CO1YTrlw4owQwJEWyjqVZVcRdOImhrfigIrCqyoznoqqiq6pLLuaoIsDdCYkEfQ0NRVQT2qcRvCALDKU/JwjvsGyEojzoebONbsDQXSj+/BQP9+5Mv1dEj4Ztycc/uFHKqLQ0LBmDwxbVBRdSZmJmzq+CfGektIrKrSUxj5FRccQV13ZVcScuIlFIvGOisKrK7PYy7Kri4CTkhM3aRV3t5OF+r0svKHwJ1UxUFl2FTEnbmIV13hbReEVlXl3aWlA2Qdim+zKyq9emzHe1vft2/catlreVE949STGNsWrM2fOVHbfmWQnHdRDXkWJxZvETR2HhsGSSL6kogqqyYwhS9LPnKukhxd0UANv+RJx07LDldLcpYbQaksphNyptgb0Rov6OqhQB3FOWgQVIvCCCkKrLCP2mt/C8PBFlXUg2UkH0kV1Pdwuf5yTFkH373/3OQxddrhdaJXlw8vO26uqqpQ0UOiIO+lAunT043t7ESAuEicpV4ugGOuauN9qbzGcW0cEsOn8bMf/Vb73ki4urYetbZyMEZSExNziKfwYLhVYdbHeCgTMp1VXIi5/my48zI0DYu+v0cZFK1erB6W7ioqKbdiI3mJvWZwbIYA522PA969eQSOmC7eVfNQncZC4GM/7BEHJA69vM0HjyNj3GwkE5KP2ZeeOnHTd3AxJIu6QxjtSdOVgJ4IaRoRAV36vzmXV9RCeiE+6TKacxWnT6aGcM+IMOiLwchsHT/h1Imh1dfU7GJBtOhHKN3Yg4OVG7GXd7Kj7DPOQm2IcbE/WiaDkjVeKHsRfNudqxyiXu//GupuHG7GlG3RklzsC8tUY9zrnlEDQUCj0BmajGzpH4/+yQQCb+huwb3gkm7QqpCHdSEcVZHW/jPqGGPc6S5pAUAouKhIEOm9Gd8Yq0//Wh0IVnm+8bTquzxQcjt8Jge1tnOvkSf8kJWhZWdmfEXZ/Qmz2SBMBuR89CzVaP5wPAlXleli/KHtSRJqVms9o97dxLqGMpASlWCNHDr8PoN+XkII9ekQAe1lN6Fk8t3KbSnHSFdZFzanC2T81AjGOGSk7w5QEnThxYlTXLdAxJ2WXLgIAfDP2PZvSje+VeFIWNZLuXtHHIT3eII5hLp9yPzklQUnA8vLyHQB9FW7JVpddzwjsRU9SH7O06Tmyl2JUV9/wHukOnfZ6Sa886mISt4hj3ZXRLUEpYWVl+WpY6v68u0w4LIYAAL83FCp/2K94kO6EgV/1z0xv8fMYt7pP1SNBKXk0Ku8F8L/pPiu/h8pVAwf2p4Odfe3aMOAHejetgLiEaVBaD7K0CDpnTvluLHz8DBn/oZtyfRwkHjSMQO306dNbfQyCpTphYBj6cvwDgxd2XREgDhGXMLRN6/C1tAhKhVRVzcK+qLkUOwd8wFgn1OVvhdCXzJ5tbU11CvHrP4QFTgRYgrbyW79ikFxv4o65NMal5DG6+qZNUEpYWVm5CY3xJ7j9S9eM/Pm/wFvv+l2VlTOVP8rE7vqLYaLfhfUL62QAu/NXML+/EHeIQ5nInhFBKePKyln/iZ8FuHxOUuvYjwV4GvJJFNQwkrg2bNBWfH9ECnFlQRt3kiCV2kukDuo+pKGh+ToAPx/DmFHdx/Rk6FZd139SUVHmmVMS8llLTU1Nk0xT1KCMifksx515C9gRyMVVVeW/yEa+rAlKhTU1tXzbNOWtEODibApXNM2vMazFPKLseUXlL4jYDQ0tF2H+hbaiXV0QAQpSqHgOB6wtxYM86x2QnAhKOjc2Nl4spX4Lbj0PPM6KqQfgy9JdgStIm3Bxoc3NzSPwQL8Fq5ghF4tpl2i/FsJchjlnTnPwnAlK2mAIcyaGMDdiCXkOzt8ptktDt+QDvfANVdq3Mld6+fUxJ/DeuHFjr08++fQH+HLXjWgrX3SiTCfLQFtphV6rcHTJvbAoy3mdxhaCxgFoaGiqxLx0Nv7/atxP9V8A/iQAX405hIdfvHa+lrCGcRWwnQ1sL3e+9LyV+D+Y7qGtVDTaVYKtBCWhMIy5MBrVygF+Of61PX+7FE8jnw8A9tpoVKwhQ4004nOUDBFYtap5RDAoZ6GZzETSwRkmd1N0DLC05mBQa8b0x9avNOSNQPX1TTMwjJkBFL/hJiTTkQVo/wqy34de03On8aWjv9Nx0JteiTJvwPVdp8u2obyn0F7W4ZW7dTbklZBF3ghKJdXV3T9U11uvxe0/4yl5QULpLvPAU/BJvP6zoago8IuZCn8m0GWwpiXO2rVrSyMR4zosIl2Lh6MCw17rOzu/NM3iDfQmT1pKZhEprwSNy0OLSIYhrsEq6HdAVDduydB5wNg+Mf4Li0CfxuXmX+cRaGhoGKBpAepJaVfgCucl6KlE+RxWoTfB2P1BOxaBeirNEYLGhairWzcoEIhMNU3zCjwlp8C/fzysAL97UeYTGJ5sef/99x7BtzBaCyADF5kCAdRH8ZAhQ6ehnRBJJ+M6LUVUB7zFZ/gc4GMwTtliGEWbq6tn/M2BQq0iHCVoR6Wwf4ohrw4LEzkRlTAOYX06hufp/kPkuw0LWNsiEbl1zpyK/81TOZytjQisWtV0Dg7VmogpyASMwMZj8W6QjdmnyuowHt7bse+9FdtrT2M/syD21gUjaEdU6uvXfBXD3wsAyBiQdTTCvoKrb8c4Wd4fwHDkj9iT+iMqd1dRkf6HVIczZZk/J3MYgZaWlrMiEXMsHrJjsPd+PtrN+RDhZBvEOIQ8XkcbfBltcBfazYuh0CxsmxTWuYKgXSGoq6s7Q4jgl9DDDkdFnI4n5lD8DgHJqCIG4v9ShAVwbwDQQwD0M1TUh7j/APfvold+B0/aP0kZeRMndTs2HOmqB/+ffwTQVgYJUXQ22sRw9HZnoA0MQxsYDIKdgvv+uKcHPdqKiS/3iWO4P4i2hAe39j7+fw+/exCGthL9v66nuudf+p5L+H8u50ydeeQGNwAAAABJRU5ErkJggg==;imageBorder=default;" vertex="1" parent="1">
          <mxGeometry x="180" y="400" width="123.73" height="80" as="geometry" />
        </mxCell>
        <mxCell id="Az45LCxhIKdniQeji25l-5" value="" style="shape=image;verticalLabelPosition=bottom;labelBackgroundColor=default;verticalAlign=top;aspect=fixed;imageAspect=0;image=data:image/png,iVBORw0KGgoAAAANSUhEUgAAAOgAAACWCAYAAADUgcTJAAAAAXNSR0IArs4c6QAAAERlWElmTU0AKgAAAAgAAYdpAAQAAAABAAAAGgAAAAAAA6ABAAMAAAABAAEAAKACAAQAAAABAAAA6KADAAQAAAABAAAAlgAAAAAy237FAAAc2UlEQVR4Ae1dCXwURbqv7pkcJIRTEhTDfSsK4oEKcrjwkMPzLU99T10gkIA/3X26q6uiO8Dqir8VBBdISADF91aWty6uIHisEhVREERBUA6RSw6FcB/JzHS//9chMElmMldPVXdP1e/XSU91ddX3/ev7d1VXVX/FmAwSAYmAREAiIBGQCEgEJAISAYmAREAiIBGQCEgEJAISAYmAREAiIBGQCEgEJAISAYmAREAiIBGQCEgEJAISAYmAREAiIBGQCEgEJAISAYmAREAiIBGQCEgEJAISAYmAREAiIBGQCEgEJAISAYmAREAiIBGQCEgEJAISAYmAREAiIBGQCEgEJAISAYmApRFQLC2dDYV7/vHnG1akprbU/WpznbEcVWFNGNMaMaZkakxPZ0x1qzbUK5jIOgJTlQpd185ApxO6ph9hKjvkYu79uqLu97sP7/J4PFqwe2VcZAhIgkaGU9BUkye83IYxfzdN07sxhXVhOusIA+2A/yCkDEBgF46tOtO3gMCbmKZsPOmv2PDCC4+fkOhEhoAkaGQ4Gamee2JGM6/q64Vmo5eia9cxRbkKFxpHkYVMytgWgLBWYcoa5mefPfP8b76QoIRGQBI0NDbGFY9nRgPFqw0EUAN0pvVDV7VrmFvk5QgRAKZevAaUosexQlf0DzzPPrImwluTJpkkaIiq9jw19VpFUYbg8mAY0HUhkslo8xA4qijsPXSH39HP+t/2/Pl3P5mXtX1zkgStUXeeCVMHKzq7E12w2/F0b1bjsvzJAwGdrUZPZbGeqr3h8TyynUeRVi1DEvRczXgmvDhE0dURaC1HYMCnnlUrLMnk2oD6WKSn6n9LVqImPUE9T73YS2Wu+9C1uh/GXz/JCGALddGTWYvu74I0b/mC30/5/TFbCG2SkElL0GeffCnHx/RRaC1/BSw7moSnzCahCOj/RPbz//DsI/Q/KUJSEnTyhOlD0GLmY5791qSoZWcpeQh1N4f5XEWeKb/e7SzVamuTVASd8tiUrLPutPFM0ccBila14ZAxdkEAJF2q6MqsPzz338vtInMscrpiucmO90x6euplPtXlQZf2McgvV/rYsRIDZMYoe0dMg/Xqe9MgrfSTdx07f5oULejkCVMH6bryKAYbBgXUsTx1BgIVOlOmpmrq1Cf/9PDPzlDpghaOb0HRco4AOSdC5RsvqC3PHISAC61Mb6xEatz3xsGbSle+e8RBujFHE3TihOkjmcYmGQvZnVRrUpdgCFylupSc/n0HbV3x8buOWYXkWIJOenIaplD0SahJORgUzJydGXc5FjZk9+s99JvSlcsd0d11JEE9T76IRQdGtzbXmXYotQqNgNJVUfSL+vUetKF05XuHQ6ezxxXHEXTyhJcwt6lORLe2nT2qQEqZAAQuVxQ1Y1DvYZ9+sHLZmQTkzy1LfEfrnOB5avoN8FqAaRS9s3O0kprEhoA+2uvy/i62e61zl2Na0GefnHYxRvJotHawdeCVkghFQGc3DrjplsMrPnnHtvOkjmlBvYryMIzhl0INQhZuLQSwmgErjh6iTwitJVjk0jiiBZ341LT/xJNmMtROjVx1mTJJEGgKnjbsd/2wj0o/XW47X0i2b0ExKNQJA0JjsEooM0kMTqoZPQLDFbdvTPS3ib/D9gSFR72RmPvqKx5KKYGVEcD3pKMnT5g2wMoyBpPN1gSd+MxLA+FZ74Fgisk4iUAgAuhh5eKArei2Wn9ua4Lqfv1eAN48sCLkuUQgFAJws33/xKemjwh13YrxtiUo3j2H4VFoK7CtaADJJhM+0h8Bb/duu+htW4L6df0ugJxhF6ClnNZAAO+idyrerNusIU14KWxJ0ElPTO2D1vP28OrJFBKBYAiokqDBYDEtTlVp4ll6RTAN0KTL6NZJT7xkC2fktmtBPZ6pTbA6RHpGSDpOmapwQ2xyNdDUHBOUme0IqniNOc+rE4SHzDZpENBvtoOqtiMoU9Q+dgBWymh5BPpMemKa5d3g2I+gmt7b8lUvBbQ8Ali04EI31/LvobYi6KSnp/fEuttrLF/7UkBbIKDpuuVtyVYE1fxaN1vUvBTSFgjAr25PLFqw9BdQllyXWFRU1FJVU9pj1Uc7LOVrCbeZLeBnJsfn1bsj7hJMNsPlEA70U7B8i+kattbF4ffjv19jfh/OfRrzeTUj3hbWIoWMCQFVVZg7BdtfuelQmOrCfzjipHiFjhC2YtgL7CQtwz0pLc39kaZ5t+fn5++OSYgE3mQJghYWzusK4l2rqhpGZ41t5S+Hzlnx6k2V4KvQmLfCX3mUg7wgsAz2RYCImJJKh8s43DgnMpoQ6FvRb/C4/1LTVOympqwpKBi12YR848rCFM1ikaC4uLinprEBIGRf3H8Djsax5BPNPRpa2IpyH6s468d/v9HCRnO/TCsGAWohU9NcLDUdR5obrSQXsyUH2KtA2I9UlX04ZsyYdSK056JplWIlJSVNQMqh6JYOQdwtOBpWXeP9n7rA5SBq+RmfcfAuX5YXHoG0em5mHCAmtZwCA+1Juhzd5WUg69t5eXllvGThQtDZs+e3VlX/HVCK1s/exEu5SMshkp49jQP/6X1WBnEI0HtjOoiZnlFJTnGShCz5Y1x5U9Nci8eNG7kzZCqTLiSUoOjG5qA/fw9kvRtdBcvPOZWfBUlP+diZU16T4JXZRINAvcwUlp4JYqbb4WswZTV0W4hxk9fR/T0YjZ7RpE0YQQsLi/8LL9r3QRjbrZul1pRISi2rDIlHgLqxBjnRatowvIcBztcKCsb8TyJkN52gs2YV98QwNzlookPoi0M8gNGA0mmQ9MxJrzFlE09e8t7gCNB7Zb36KSwDLSengZ/ggsQfS1MDxZjmKx4/3tzBJFMJWlRUkocX6QIMAvWMX2dr5ECt6GmQVLam5tYHtZoZICf9d0qA7a+D7Rfm5+eVmKWTKQSdN29ers+nPQzhyHm0pVdmxAIctaanTlSw0zigowxxIEALBzKyUlkmDpu3mqFQqICOM9xudcaoUaP2hEoUaXzcBC0snHs9Y9ojeN/890gLtWu60ye8BlFpikaG6BGgLi0RMyMrJfqbbXYH3kv/jje8qQUFoz+LR/S4CFpYWDIc80KPo1Wx/Gc78YAUeC8NIJ06XmGsTAqMl+d1I0ArfzIbpBrTJ3WndM5VtKSfYt5/SkFB3pJYtYqZoBilvQdbvD2B6ZOkW8BOK5FOHi83ViTFCnwy3UcrgOo3SDNWAiWT3pW6Kht1XfsTRnlfj0X3mAg6Z07JfWg1PSiwbSyFOuEeWip48pgkabi6NMjZEOTEUr0kDjvQmnrGjs17LVoMop4GwUjtvSDnMygoaclJIJPB1SfDQ+sgQ3AEJDnP49KWOFNcPI8W7UQVoiLonDlzsXs1m4CjfVSlODQxkZTeq+j9SobqCBAm9YFNkrecgaC01zTt6XMcCoyv8zxigmKhOwaCaPdq1qXOHJPsIi1LI5IKXsxtKdSN0Voipy2W7HGFDtzRH6vkUmTlRkRQrKlt4/ez3ybTaG1k8FWmooXdmUkwdRApJoQFYSJDbQSIQ8Ql4lTtq7VjIiIohoppAYL05F4bv/MxVZPv5yOS9KRyntNxa1XMrs3bz3EqbL5hCYqFCAX4qJoIKkMYBGgC3klL18KoW+uysXxP9iRq4RI8Qnm4klvBr1bF1knQ2bNLblQUbTwS15muKrNk/0/vXrS+lHziJFsgnQ3dxX5YbSfYVeIWcawuoUMSD0uVFPh6GY3WM+kWItQFWLhr1IrQFxrJFkjnZO49xFbfSjfiGHEt1P0h5wcuvvjS0Zhc/UOoG2V8aARcKS74O/Ib3gVDp3LOFWO+s1G6Wc67nANMZJr0WLv2yz1Lly5ZHyx50BYUw8CtsPj9V8FukHHhEaDuHn2AnCyBdE3Gbr1Z9UtcI84Fyy8oQTHChK3lmdxiIRhiEcbZ2ENAhBpWJqPplGR6GEUFTuSJe5/jXK07ahF01qy5ndAnjnpJUq2cZYRhuHhNcGwg3SQ5Taveu4l7NXOrRVCXS8N3nXJgqCZQsfymQZO0DOd2dUk3OTAUi2XUvgcLGK6o5F71a9UIOnPmvFyQ867qSeSveBAgF5JODU7WTUydKXdVcvBC6dWsx+32DwNBe1y4bJ0zH7ZsOHDoGDtx6iw7fabC2HPF7XaxemkprGmjTNYEhwtfj1stGK0o1qSSS08nBVqDbNXW048XurKjp9hhHGfKvczn8xsjzBn1UllWZjprflFD5sYeLhYMPSo5yGZXyVaNoGhmh1jpnYkA3vLDAbZ110H2/e6f2U9ltH1G8NDy4ias7aUXsY6tc9hlHS5h6anW6FoSnqn1XI4jKOlkJVs5W+Flm7btY1t3HmQ79h5iu/eXBTcUxGY3yWLtWjZjHVvlsE5tmhsP+JCJOV8gDqLI8wQ9P4SBxbv9NE15FxeFL6Tce/AIW795D/t6yx625wBtkRFdaN8ym/Xoksuuubw1a5hVL7qbE5Cadlk78tNpY/e1BGTPPUuaUmmcnWHsKsa98BoFHjtxhn3xzU62/ts9bPvun2pcDf8zt3ljdmWnXNajay67NCfh2wOFF4ixClXV/w3OsEsp8fkWFB7gB+BTGKHkpN3IPvlyG1u5bnudT8BwWlJF0bFx24/spp4dWM/Lgk4xhcvGtOvG5j/oEjrFYz19RkY6iQ7rNu1iH6/bxr7bcSBmUagBoGPD1r2sd8/2rM9VHUQvuEit5CIrJaWMFnTRokWusrLjK9Bl6ROzpnHe+PORk+yDz75lK9ZsiTOn6rfTO0f/azux/td1Yhnp4p4/5AD7WNnZ6sLZ9FfDJulClzOePlvBVqzeYtgKjUmYGchWbr6+C2vWuL6Z2UaVF7q5nzRp0qD/iBEj/MZSv4EDB14Prk6MKhcTE/948Ch768Ov2KqvdpiYa2VWFV4f24L3Ei+W3rXNvYilYGBJRMBqEWODJoBv60B7cZKrF1E+bYmcS1ZsYO+s3MSobs0OO388zI6dOG0MJDWon2529hHlB1NpVV5+5t0lS5bsMfopuq4K29iIBn6WfbyRrdu8OyLhY0304erv2NLSDcaoXqx5xHMfdQlTHOA4i3QQ1b2lEVmqQ6rLRAayRbLJugYlE1k+5V3FyaoXCexszT94Mfz9/qrNbC3eJXiEDz7/jpWa3IWORm7aGdruQaQOVHdUhzwC2STZJtmooGBw0uXxeFKzshp4IEQz3oKUrtmKJ9U3XIuludRmGGanuTDeAdNzRjeXd7lmlkeeI0S0oF99t8doPc9WmN+tDYXPrn1lrH5GujF9FypNAuNdV199VYnaokWLziikawILCpr1Xoycrfxye9BriYw8imH5TzBKfOpMeSKLCZq30fqcn9gKmsTakZBdRAtKdUV1RnXHO5CNkq0KCF2Jmyr6ukRQ7mH1xh/Yvp+Oci+XCvwG0y9rv+HTrQ5UkDwuYFOdwChbnZPsIrwXUl1RnYkIZKNkqyICcRPWorfjXfi+n49hcpk/QQL1pC4TvtoJjOJyLsLAzVJMhOxUR1RXIgM9IMhm+Qe9HVpQpTXvgr/9fj87cuwU72KrlbcZMmzavq9aHI8fIozcLL1EyE51RHUlMpTBVslmeQfiJrWg+IKFb6C1tVYI23ZFvzQsXrnt7HlAhOwi6ihYHYuxWT2XCJoTTKBExR0/eYbtwmSwFcIPAuQQNcFvBt4iZBdRR8GwIpsl2+Ub9BwQVMnmWSgt6Tty/DTPIkOWRaDzHs2llTh2Dbxlp7qxysOcbJZsl29QskFQlsWzUPqEzCqBPlGi9wuegZb82TXwlp3qhurIKkGA7WZxJ+hpAfOPdVVwOceJb5JDIcRtGnjLzrtuwlWLANs1CMrVZMgzgpWCJmCqxUr6W1kWq9WNANvFp6G6zm/tFKzBZTVXE7ynQnmXZyYDecvOu7wwWPG2XeIm9odg5n5QF0bJ+hlpYVLwvZxZj688dm6wecvOu27CWR5v2yVuonurhHbeEk7iGK43ysqI4a7E3JJpOJHiTVCLNQtRQMt75VVWZhqjOrJK4G+7Shm5PCGCtuQFwsXNGrIG8HJw3OQv4WOR/5LsRqxBfb4+i7Al/Ot6it+W2zliD5YZwPmeWLCO5R6qG6ojKyxWIJsl2+UcytxoRveh69KdV8HUTWgHp17rv93Nq8iQ5bTL5f6FHUZx1V0ez28PhRTKwheKiuZiATXfHgDVkRUISjYroIu7T8U3itw/E+jQiuvaiJAm3wEuOnkHXffzXwBskpIiZBdRR8HgEmGzxE0MEik7gwmUyLhOIEbTRuKcMpFuXdtdzEgO/kER33WIWWn+slMdUV2JDGSrImyFuEmjuNy/mr4Uvkiv6srttTdo3XbvnCvEgRi+UPg+qEA2iBQhOzl5o7oSGchWyWZ5B+ImRnH9W3kXTOVdc3kr1iKnkYiiWbcOLQzH1gIK356e7uL+QDRLz3Oyc5efnJBTnYkIZKNkq2KCf6u6b98+OAVS+HhiCtCy1SVN2Y09uH8rbrzok4Ni3qO3pDqmKTaOHDmS67xzAORxn5LspEPcGUWZAdUV1RnvQRoSk2yUbJV/UL4jbqpwGoaVRPqX/AUg5dsbnt95lj2gV2dhXSZ0Wdbz1DURZYnSgbq5VHc8A+1KQDYqJuhfEjfRxaUnu7ZOhBDp2JlsUO+u3N5Hybv8L3p1EaGqUaai6GuFFW5SwSJ1oLqjOuQR6L2TbJNsVESo4qRBUEVxrREhBJXZrHEWu6XP5QknKVXskJu6sbTU89vRcFUZc81b0D38gmuhCSiMdCBdEpB12Cyp7qgOE01SIifZJNmmqFDFSYOg+/fvWYWuy6eihKGtA+8aeBXre01H00Woh/1Yhve7gt0+oLuxgsn0AiLMEB87r8zPz7flAoVAFUkH0iUwjuc5reihuhyGOqW6NTuQDZItkk2KCsRF4iSVb2xUUlpaqg8ffmsb/L5JlFC0uWqnNjnGdoG0IQ5tKxdv6Ny2ORt67olLm/2KDJiimL506Vtfi5TBrLKHDr2tEYzoDrPyizYfqkual2zSMBNbeVSwQyZ4Omh1SROj1Rzc+zJjk99oZTIzPbBd8Oijj3xIeZ7v7+Hd4gMY0ROIE2bJqSluYycy2liVXO/TcsD9Mbg7bN2iKbv6stbsuitaCxmtDVJZW1wuzQA8yDXbRZEu2EuWurl8XghDIHRtt9asMx7qqzfshL3sZLTxUbSB1tf26NIS9iJu2q+GzH7iYlVcNf8bhYVzl+DisKqLov8fPHwcOyZX7vW5Yy922D4ceodtegLScHgHkJtWnogYkg+FF97ZphcU5P0m1HU7xmNd7jQML1pGp5Onyw33nNvgMXLXvsM4Qn+kld00C9s5NGO00XPH1tksp2kDy1QBGsmlBQWjh1cJdL4FpQh8vr0cxmQZghJwdPTBHBht7kutKXlWI2dSfvymVSa052fTxpnsIizH4u0zpwrEMP+9Lpf+dpg0trusqtoytKIPQnAxw5w1EKMHMrWodGAgix06epIdPnKK0XaFtAGSC87a6PtSmlOlVhPv0TVysMZP4mCgJNUI6vd7l6lqCs3V9QhMZIVzApRWdYhafRQHBm9iO/P347jfkreSTkVFJW9CuF9aTUB6UNMIrMhR2BgxWU8cDLzXGMWtihg3btxOdFsWV/2W/01BgIzYqcHJugmoM31xJQcvFF2NoBSNT4rewF/uy7kuiOSos7ew1tnBRmzoBh1liB8BfWMl96rnVIugBQUFm/E2urB6MvkrFgTwLrQQ84bW8NIdiwJh7iHdSMcwyeTliBBQF1Zyr3riWgSlyykpCoEubDK6uoi2/fVaQcEYxxvvOR1fs20tWUPwlec4V0uaoAQdNWrUDqR8tVZqGREhAvp+tCxktHz9g0QoncnJoKr+GsZl9pmcbzJl9+o5ztXSOShBKVXHju1eAeiv1LpDRoRFAHNZxWhZHDdyG0px0hXuOUpCXZfxoRGo5Jg/ZGMYkqD9+/f3qaoBOt5JZYgUAQC+DPOexZGmd0o6XU+ZQ7o7RR9OemwmjuFd3huqvJAEpRvy8vI+BegzcaqFykDGV0NgN1qSQswR7q0WmwQ/xo174EfSHaruTgJ1zVBRI24Rx+rKrE6C0o1jx+bNgseFv9SVibxWiQAAfxlL+pYkKx6kO2GQrPpHp7fyl0pu1X1XWILS7T6f/jKA/2fdWSX7VX1mo0YNZiQ7CucwkA/0OgyBuITXoIgeZBER9MEH87Zj4OPPyPjzOspN4kvKG36/a+qIESMqkhgEQ3XCwO9XsZCeYcGLDDURIA4Rl9C1jcj5WkQEpULy80djXlR7ATMH3B2M1VTSWr/1fymKOmX8eGNqylqiCZKGsIBHgCmwlX8JEsGixRJ3tBcquRSZiBETlLIbO3bsYhjjH3H6Q2TZOz2Vgq/e1efGjh1pe1cmZtdUJSbqcxi/MDwDmJ2/DfP7gbhDHIpG9qgIShmPHTv6f/FvIo4kJ6nh9mMinoYrCBcZaiNwDhvYijgXKbWlEhJDXJl4jjtRCaBElTogMT41uhfAP4VuTNeA6GQ5XaGq6h/HjBnlGC8Jiay44uLiAfh2dALK6J/IcqyZt4J1BPqz+fl5f41FvpgJSoUVF8+7DR9SPwYBboilcJve8w90a/EeMWq1TeUXInZR0bzr8P4FW2F3ChFASKHKKnzH/AIe5DHPgMRFUNJ5zpw5N+i6+ihOHQ883MEUAvAXIx2BE2ITFi60pKSkPR7oj2IUs8DCYpol2j8URXsR75xxvYPHTVDSBl2YNujCPIQh5AfhbSLVLA2tkg/0wh6qNG+lzXDy52M88F60aFG9I0eO/RpeDx6CrVzCo0yeZcBWKqDXTLgueRkryuIepzGFoFUAFBUVj8V76Xj8vrIqzu7/Afj7AHwW3iEc/OE1/1rCGMbtwHY8sB3Iv/SElfg1XvdgK2PmmFWCqQQlodCNudbnY3kAPw8/Tc/fLMUjyOcgwJ7v8ylzaaFGBOllkigRmDmzpL3brY+GmYzErSI2a41S4pDJ0cFiJW43K8Hrz5qQqWK4kDACFRYW349uzP2Q6eYY5BJ6C9D+O2R/Ba2m47zxCQU2ROFoTYfi0gM4LOeALITIgdHwJ60vwCd3CwIjzTpPGEFJwNmzX22hqhV34/Q/8JS8xiyhE5UPnoLv4/OfhSkprr+OtPE2gYnCJ5H5zp8/P93r9d+LQaS78XC0QbfX2Gfnb5qWupC+5EkUNgklaJXQNIjk9yt3YRT0DhDVilMy5IsU0yf+/8Mg0LEqueV//ggUFRU1xOYG1JLSrMAt/CUIV6K+CqPQi7HY/Q0zBoHClcaFoFVCzJ69INvl8g7RNO0WPCUHI16kS+/dKP89dE+WHzjw41LsxVhRJaf8Lx4B1Edq8+YthsFOiKSDcLQUJ5VyHNsBvoPFKcv9/pRl48bd/xMvWbgSNFApzJ+iy6tihYneH5XQG9cyA68n6Pxn5FuKAaxSr1df8eCDY75NUDkyWxMRmDmzuAucavXHK0g/9MD6YvAu28TsQ2V1Cg/vlZj3XoHptQ8xnylkvbUwggaigj1hrkT39xoA0hNk7YFrl+GoH5gmxvMydEe+wpzUV6jcdSkp6uehnDPFmL+8jTMC8+bNa+v1ar3wkO2JuffusJvuEKGJCWKcRB6bYIPrYYPrYDdfYI8UTJuIDZYgaE0IZs+e3VpR3B3QwrZDRbTCE7MF/jcHyagiGuF3Oq65cO4HoCcB6HFU1M84P4jzPWiVd+JJ+72ue7+Dp25u3ZGaesjfiUcAtpKtKCmdYRPt0Nq1hg3kwgZyQLBmOG+Ac3rQw1Y0P2ziLM6Pwpbw4GYH8PtH/N+Fa7AV37aaXt0TL334Ev4fo1K9sJemR6oAAAAASUVORK5CYII=;imageBorder=default;" vertex="1" parent="1">
          <mxGeometry x="40" y="500" width="123.73" height="80" as="geometry" />
        </mxCell>
        <mxCell id="Az45LCxhIKdniQeji25l-6" value="" style="shape=image;verticalLabelPosition=bottom;labelBackgroundColor=default;verticalAlign=top;aspect=fixed;imageAspect=0;image=data:image/png,iVBORw0KGgoAAAANSUhEUgAAAOgAAACWCAYAAADUgcTJAAAAAXNSR0IArs4c6QAAAERlWElmTU0AKgAAAAgAAYdpAAQAAAABAAAAGgAAAAAAA6ABAAMAAAABAAEAAKACAAQAAAABAAAA6KADAAQAAAABAAAAlgAAAAAy237FAAAfnklEQVR4Ae1dCXxU1bk/d2aykI01CYsBJOyLChFBAQlaqSBoqy3P2lcVSEjA1vbZaitgHUDbaisofZAVrPa9LrbWWqi4VBMVF3YLoqzKHnYEQiCZmXv7/+5kwiSZycyduXO3Oef3m9ybe8/ynf85//ud5TvnMMYdR4AjwBHgCHAEOAIcAY4AR4AjwBHgCHAEOAIcAY4AR4AjwBHgCHAEOAIcAY4AR4AjwBHgCHAEOAIcAY4AR4AjwBHgCHAEOAIcAY4AR4AjwBHgCHAEOAIcAY4AR4AjwBHgCHAEOAIcAY4AR4AjwBHgCHAEOAIcAY4AR4AjwBHgCHAEOAIcAY4AR4AjYGgEBENLZ0LhfvXTX7VvSEzsKXlsXSXGsm0C64RsdGBMShWZlMyYzWEzYb4CiSzBMZvQIEniReTpvCRKZ5iNnbQzR40k2Go8jlP7nU6nGCgsfxYeApyg4eEU0Nei+b+9kjHPMFGUhjGBDWIS648K2g9XEJI7ILAfv10Sk3aCwNuZKGyr9TRsffrpn57n6ISHACdoeDjJvn7x6NJMl809GmpjtCCJo5ggjMCLjgqi4F4Z2wkQNgpMWM887KOf/+pHGzgowRHgBA2OjfzG6VyaIbjEW9BcvUlgYj5jwuAQQfjrMBFA5XMB12q0OKokQXrb+eRD68MMGjfeOEGDFLVz3uLrBEGYjNe3ogKNCuKNP1YPga8Egb2J5vDr0iXPP52/efi4elGbNyZO0BZl55y/+FZBYneiCfYNfN0zW7zm/2qBgMTWoaXyipQovux0PrRHiySNmgYnaGPJOOc/M1mQbNOgLadhwKedUQsszuTaivJ4SUqU/hyvRI17gjrnPTPaxuzfwzTI96Ax0+OMAKbILsplI5q/Lya56l/82VM/O2sKoVUSMm4J+uTcZ7PdTJoBbXk/sOyvEp48mpgiIL2K6J9//MmH6BoXLi4Jumj+c5MxGFGEefbb46KUrZXJkyi7cua2lzmf+uEBa2WtdW7iiqBPPfJU+iVH0hwmSLMBRa/WcPAnZkEAJF0tSMLyx3/xP2vMInMkctojCWTGMAsfWzzEbbM70aR9BPJzSx8zFqKfzBhl749psNHjb5woVr//hmXnT+NCgy6av3iiJAk/xmDDRL8y5rfWQKBBYsLiRNG2eO4vHzxhjSxdzoXlNSg05zSQcwGyPOZytvmdhRCwQ8uMhSVSx/Fjbt1evfaNMxbKG7M0QRfMf246E9lC2ZDdSqXG8xIIgRE2u5A9YfzEXVXvvWEZKyTLEnTh3CWYQpEWoiT5YFCg6mzNZ0Nh2JCVP/a2T6vXrrFEc9eSBHXOfeZemIpRszbHmvWQ5yo4AsJgQZC65I+duLV67ZungvszxxvLEXTR/Gcxt2lbgGZtrjmKgEsZAwSGCoItZeLYKR+8vfa1izGIX7MosY7WOs4577kbsGsBplGkgdbJFc9JZAhIM11218ORhTVOKMto0CfnLumGkTxq1t5qHHi5JLoiILExN9046VTV+6+bdp7UMhrUJQgPojJ8W9cKwRM3FgKwZoDF0Q9oCaGxBAtfGkto0AXzlnwXX5pFyHZi+FnnPuMEgc7gafv866e8W/3BGtPthWR6DYpBoQEYECqElVBqnFQ4nk3lCEwVHO5C5cH0D2F6gmJHvemY+xqvP5RcAiMjgPWkMxfNX3KTkWUMJJupCYq+xUTsrHdfoIzxZxwBfwTQwsrBD3VFgmWgeZypCQqsvwPAu5oHbi6pnghgm+17F8x7bpqeMihN27QERd9zCj6FpgJbaeFw/+ojgEX607DbvUP9mGMTo2kJ6pGkuwBJSmxg4bFaFQH0Re8UXOl3mCV/piTowkcXj4P2/IZZQOZyGg0BGydoTIvEZqOJZ74rQkxBtnTkty989FlTbEZuOg3qdC7uBOsQvjOCpfkT88y1xyFXt8Q8FRUSMB1BBZc853mtCnnnUcQ1AtLNZsi+6QjKBNs4MwDLZTQ8AuMWPrrE8NvgmI+gojTW8EXPBTQ8AjBasKOZa/h+qKkIuvCx5/JgdzvS8KXPBTQFAqIkGb4umYqgokccZoqS50KaAgHsq5sHowVDr4AypF1iWVlZT5stoS+sPnJhytcT22b2wD4z2W6XdA2edcdkM7Ycwg/tFJhvMUmUGIzmmceDq0dkHjfu3SJzu0T5uSlqCxcyIgRsNoE5EnD8lYN+ArPZccVGnPRcoF+QuiLXF9STpBTHwqQkx7ui6NpTVFR0ICIhYhjIEAQtLV05GMS7zmYTMTorHys/FHmO+qQxKgR3g8hcDR7vrx7kBYG5My8CRMSERPrZ5Z8D90RGFRytFf0Un/vNomjDaWrC+uLiGZ+pEG9UUaiSs0gkqKioyBNFdhMIOR7hb8CvYyTxKAkjQsM21LtZwyUPrh5ZwyoJz/3qgwBpyMQkO0tMxi/JAS2pSbWlDbA/BGHftdnYO4WFhZv0yL0mOfVlrLKyshNIeRuapZPxbBJ+7X3vtL5SE7geRK2/6JZ/WqfP0wuNQFI7B5N/ICZpTh0dnUm6Bs3l10DWfxYUFJzWShZNCFpS8nxvm83zTWSK7Gdv1Cpz4aZDJL1Uhx+u1J/lTj8EqN+YDGImp3jJqZ8kQVN+D2/+Lor2V2bPnr4vqC+VXsSUoGjGZqM9jzWb7G40FQw/51R/CSS94GYXL7hUgpdHowSBdqkJLDkVxEw2w2owYR3y9ieMm/wRzd9jSvKpxG/MCFpaWvHf6GjjaHnznShG2pRISpqVu9gjQM1YmZzQmiZ0b2KA8/fFxYX/FwvZVSfo8uUVeRjmpg2a6KdrxyEawGhAqQ4kvVjrkqdsoomLhw2MAPUr26UlsBRoTo0GfgILEv1TmhqowDRfxZw56g4mqUrQsrLKAnSkizEIlBd9no0RA2nROpCUa1N1y4O0Zkp6gkmas+HlHXV/E+p+aVFRQWV4IUL7UoWgK1euzHG7xQchHG0ebWjLjNCQtPZB2vTC+QZWhx/yyF0UCJDhQEp6IkvFz+RaMxgKDcjjUofDtnTGjBkHg3kK93nUBC0tXXE9Y+JD6G9+K9xEzeqv7rxLJipN0XCnHAFq0hIxSXPGgfsLLOCWFBfP/CiavEZF0NLSyqmYF/optIrhl+1EA5J/WBpAunCuQbZM8n/O79tGgCx/UjMS5emTtn1a5y006QeY93+quLhgVaS5ipigGKX9Do54exTTJ3FnwE6WSLXn6mWLpEiBj6dwZAGUlpEkWwLFU769eRW2SZL4S4zy/jGSvEdE0PLyyu9BazqRYJ9IErVCGDIVrD3LSRqqLGVytgc5YaoXx+4LaFPnrFkFv1eKgeJpEIzU3gNy/hwJxS05CWSqcGlU8aAduAuMACdnEy59iDMVFSvJaEeRU0TQ8vIVOL2azcevr6JULOqZSEr9KupfcdccAcIkDdjEueb0B6WvKIqPNXLI/3mb92ETFIbuGAii06vZoDZjjLOXZJZGJNXZmNtQqMujtUROU5jsaQoduCM94uVSeOmGRVDY1F7p8bCfxNNobXjweX2RYXdqfEwdhAULYUGYcNcaAeIQcYk41fpt6ydhERRDxWSAwHdyb41f0xPf5HvTgzi98c5zWs5WRe3S/EYjp0LGG5KgMEQoxqJqIih3IRCQTddgwhavzme+F6/5V5Zv4UEvt9oO1SZBS0oqxwiCOAdRtOmv7STi5y31vVJg/E174sSbozzLedd3YbWZYLcRt4hjbQkdlHhYQiNgr5eZ0J5xZ4jQFmCh3slLp0DSeHO0KoXyzp0SBIRhxDHiWrBQQecHunW7YiYmVx8PFpA/D46APcGO/Y488u6CwX1Z540839khWa3Nu6wDTHg5Gb5x4+aDq1ev2hLIe0ANimHgXjB+vz9QAP4sNALU3KMFyPHiKK/x2KxXq3yJa8S5QPEFJChGmO6BZ37EQiDEwnxm4h0Cwsyh1xtNp8TTx0gROOF7HtvIuVYhWhF0+fIVA+ALewhxFy0CVHHRTbCso7xxcqpWvHc3cq9ZhK0IareL38Jk6lXNfPF/IkKABk2SUqzb1KW88YGhiKpGq0DEOeJeyxfNCLps2cocjNre1dIT/z9yBGgLSas6K+dNnzIT7vJy8HLqzWqPw+GZAoIOv/zaOHduHNlw9ORZdv7CJVZ3sYHhZCrmsNtZu6QE1rlDKuuEnx2rx43mZC0Km1Ta0tNKjmyQjao9PejQnf7qAjuF38V6F3PDtg6TjiylXSJLT01mXbu0R90xXl1B/Rju5SAr8dWVZgRFnZ9spD4TAbzzy6Ns1/5jbO+BE+z4aTo+I7Dr2a0T63NFF9a/dzYb0q87S040RtOS8ExsZ7ccQSlPRqorlxpcbPvuI2zXvmPsi0Mn2YGa04ErCp5mdUpnuT0zWf9e2WzAlV3lD3xQzxq/IA4iySaCNg1hwHg3XxSFN/BSd0PKQ8fOsC2fHWT/3nmQHTxKR2Qoc317ZrHhg3LYyKG9Wfv0dsoCx8A3nbJ25nidfPpaDKLXPEqaUumYlSKfKqZ54i0SPHv+Itvw6T625fODbM+B4y3ehv43p2tHdvWAHDZ8cA67IjvmxwOFFoixBptN+jo2w64mz00aFDvA34SlMLqSk04je3/zbrZ20542v4ChckkFRb9tuw+zG/P6sbwhAaeYQkWj2nv58B80Ca2yYz0tI6M86e02bd/P3tu0m+344mjEopACoN/WXYfY2Ly+bNyIfnobXCR6uciqKVOyBn3ppZfsp0+fq0KTZVzEOY0y4Ikzteztjz5nVet3RhlT8+DU55hw3QA2YdQAlpKs3/eHNsA+e/pSc+FM+l/7TsnyhtN6iV93qYFVrdsp1xUak1DTUV25+fpBLLNjmprRKooLzdz3O3XKmDBt2jSPbOp3yy23XA+uLlAUi4qeDx/7iv3jnU/Yh598oWKs3qgaXG62E/0SF0zv+uR0YQmOoNaNqqftHyGsReQDmgC+qR2dxUlbvei1py2Rc1XVVvb62u2MylZtt+/wKXb2fJ08kJSRlqx29GHFh6rSq77+4hurVq06KLdTJMmm28FGNPDz2nvb2KbPDoQlfKSe3lm3g62u3iqP6kUaRzThqEmYYIGNsygPejVvaUSWypDKMpaO6iLVybYGJWOZPsXt46SvI4GTrbV3LreHvfXhZ2wj+hJauLc/3sGqVW5CK5GbToY2u9MzD1R2VIZaOKqTVDepjurkZE7anU5nYnp6hhNCZGotSPX6XfhSfaoo2RGDslm3zDT5V3PygqKw5JnmUjMxzE5zYVo7TM/JzVyt01UzPdo5Qg8N+smOg7L2vNSgfrM2GD77j5xmaSnJ8vRdMD8xfG6/9toRlY4ePXoMRMUZHMOEAkZ9CCNnazfvCfgu1MMRA7NlL77r5h3HWM2JC6zmZG2ooOwrDMu/j1Hifr2yWGq7pJD+1fQgax8aljNrPxSy66FBL1ysl8uMyk5rR3V0AObWr8B0jMZuMHHTgbbuQD1qzLptX7Ijx79SnGcfKf0Dys+QC3JEVvn6ufcq/9Piz6eYftn46X42fmT/Fm9i+y/tuIBDdbBW1Jxnu5DseuxeSGVFZaaHozpKdVUHglI/dCDmQaVcrTN+5MRZTC4r73d26xJ66NtHYLpSE5i0aiDtSk2mG6/tB2sYUmnaOargZiWoHuTEbgOMykpPRx+I66/JZd0zte4WSbnQoEJvrTXo53tr2JmzyvuP3TJTFZVTty6pjH4sgHb9DDJs33OEDe3XQ1Gc0XrWo5JHK7MvvB6yUxlRWenpTqOuUp3VmqDETdKgWMGirSPb2khcOBq0rXhbatdjJ09qT1ATbyimx64Ju/crN99rqw5E+o7q7M2jG7/0kUaiOJyUQwTFiIt2zbxztRfZfkwGR+JkbRhJwABhfHFt+PdW+W2Prt6Bp+7Z3muAIKo80muCXw3h9ZD9ywjrihr59Y+D6izV3Yw0LW27pWwQVMjyFyTW92TSd+ZcneJkaHollu7wUa9Wp2ssyUqWOGZ1WstOo7eRfszVxpjqLNVdbQkqZIGgLF3tzLQVHy0hM7rzJ2t6WhoKJRXrCNNYOq7ROq0HpaKV1z+81rJT34+WkRnFUd3NzdHUXCBdc4LW4asYifP1HyMJG02Y87W1jH6MeTVstNpVMLExkday12tolBBOHYm07oYTdxA/MkE1rTK0M4JSF+3gkNL02vIfS+3aVrrx+C6SuhJLnHSQx4ZpFsmNpgtpUk2cPYKtJpROr2iSESQSkXY1qxURgaqx7LRNiZFcJHU3GvmJmw5aBYVIQlsARJOSX9i0FOXmdUbSoH5ZaXXrr12DNYXNvNxMa9m1NsVsVaAtHkRSd1tEoehf4iaN4tLmLZoRtEN6iiIhybNvSkRxQB0D+JOVxCDC0kBTol35B0rHbDRLmqx6tHTpqUmwl05kF7BJnBFcJHU3OrmF09S0JYL2jC6i8EN3g7lUBnY5OKdgJXzlK1uZb5pFr8Gi8HMY2KeXsN6BJptg/zX56p7Z4+nAvo35FGewLIVk39FKOprS6J7VgRnBWIHqLNVdjd1pauIewYfxGq0SpmZCLjb12vL5AUVJbm40fvdd5WVnsM01o3YVJc/DlPlDxw88DGPgalhFv4uNcKor//fZakWgaOy5rGzFfq07ojStYQSCUp3VoYl7xIGlZoe17ovTUi+lBG1ZF71E9WokU2tXScpH3vKZKD5eMOdByuYC+lO5fKmTrkZykuQ5Img819IPS71oexO9HdVZrR1xExpU2Kf1V5HW13XukIaNhUOv3wwHFJ9WpSsNKNGor3wlQ3nzucdJZJD1cZ92NQ5ZBWXNHhWwp7oyOLebrgbzVFdJDq0dcZOauHs07vvLa+tGDO4pbymhdqbl5WXywm3raFeZrF6gdNWuWF2xV+vWFm3yds3AHF0JSnVVj/WgxE0MEnl26XHC/cihvQD6EUY7+sXSBdKuZh1oAk6XtasOTeHkZPuehgYPbYPRN5Zl1jJu2oR8267D8j7HLd/F+v8e2R2wAXqvWCcTJH7PLnteXt7J9PT20+CjSxBfMXlMQ9Z0Zsb2Pdqt9auta2Dn69xs+BBsZj20v3x0QQZsbc/XGt8+OEAh5ONZ/oiRo5wjrhtN1ytHjLqebV7/8b4AflV59Oqrr7qnTJk6AU2vQapEGGYkSTjGIzHRIW9Q3YDtU7V0k8YNwSkFmk1y+GVN2FFTc3iBvbq6Wpw69fYb8GaY31tNbrtndpAPQtrfxjkaagty67ih8m7zFC8ZwtOP5iip6WZisvZGdvIxGny/TNiRowRc8zdvWFeN56o61BXsEyNMUDXSMCKjTd7I1G7nl96uSxhBovZCpxJ8fewQbFOjy17Kb/7kJw/9leZBUa7iJozO0anamrpknEw2cexgVgsD+s0x3heXMka7y39tdOCPv28dKF1Jo56/UIv1f7jKhvKawqJGYpebwipP4wiCtBF9UTVkVBwHlR3tJE+7ysfaUb+T6ibVUT0ccZLSlQkqCPb1Wo/k+jKd2TGdTYJWIxdLkhI5J984jCWhqRTK0bIy+nVvHLg7csz71fZZB4UKb6j3Kk/jwJpoAwYVd6LFMUDrfFLZURmSiyVJiZxUJ6lu6uW8nGRM1t3Yf/NQRkbG1yCMHo1t+QSy3t07MzrXcf+RU6pi0g7nsUxCM4UKNlLbTv+mMDWDk5LojBeBNTQYwwRNIWD58O/tu0bQFF69enXd7bffQYYtIxSmq4p3IikZDVCzkw49cqu8sTTt9Dg1/yo9rIaa8MHH74OamkML0f283FYpL69chC/j/CZfOtzQWRsfbNnLPvpkL4ga/HzHcEUb2KcrGzO8L7tuWO9wgyj2Z2rt2jq3C8KxaCotXXEvmrovtA6u7ZP12/ahvuyJ6nQzn8S9uneSd+4bMzyXJSaEbmX5wsXiCoI+MWtWwWMUd1NnovF80H/hmS49Yv+M0tQLbb1P1kY12KJTqevdozO7dkhvNuqq3ppuUWE5sgL4QEYSqCtX4CxZqiuaN3Nb1gXaJ2jd1n2oL/sYHXyk1JF9LY3SXosjKmlKxQDOg/NBv+Y7H7SJoCQYvoyr8GWcYgAhZRGOnTqHE5O9Z31+cQgnbJ8KfsI2fQF7oZncD6cmk+WJ1naTgTAjwpp4oOlylgIMNMEudwnGLX502ZO+d7V19bIxw27svkfdpLZaYFmd03GcQyajg577985i2Z0z9BXeL3UMwK0uLp451feoGUHRzJ2DZu4y30sjXelwX9Km9MWkzaQ8+J+sTOjMz84dU1kXmGNhfs5IIvtkceGLeNu6LdvGND6QR1h9L016XZCWktJnUL++d0N+fYY52wCOlsWdhBnpqTMXGB1XSAcg2bFZG41B0AoZ0ppab4DWhrjNXqEKP4Dm7XLfw2Y1uqSkpLfNlvA3vBzu88CvUSPwl6KiAjIEaXIF3/8RGcfn44syHnNc+U0vTHjj21TNN01lwiwYSeQtoui6c/bs2ft8QjUjKD0sK6tA51RY6PPAr1Ej8F0Q9A9txQJbW2fje9Nr12A7SbSVf/7Oh4D086KiwkW+/+jaargKS4pexhzMt0HSYf4e+X1ECPwDts5/DxXSbyDG2aRdG+1uQ4U12nvfXDFdOVmVlI60jbjXMkQrDUoeMAAwFwMAT7b0zP9XhgD6QvcUFxf+UVmo5r6tol19TWG19hdujpIV/hPmFRXN/EXLnAQk6MqVK/u4XOIL8Dy2ZQD+f9gI/B5N2/vgWwo7RAiPViErZZNr12aFvTYhwXbfjBkzvmj2FP8EJCh5KiurLMClgu65U4qAVIOBxPugPd9SGjJc/01NYQsNNMWxdi3Ex7wyUNkHJWhVVZVj9+69Faho9wcKyJ8FRwCYLSwuLtB0wIdr1+DlYeQ3mFb5Hfqes4qKigKecRGUoJSpkpLKMTYbK8ftYCNn0kiyAfDXYOxRBEuQQ3rJZSXtavGm8Gd2O5tVUFDwQbC60iZBKVCj8cJvcWsLFgl/3oTAAWjP70N7rmp6YoAbq2lXizSFRXzMf+BvlBCoqoQkKAXCqO5zGOt4MFAE/NllBAD4wwD8N5efGO/OamQlhM1pJCEsxajtD0PVkFbzoIECuN3SbxMSWC9ohzsCvefPCAFpWYcO7ZcaHQv/OVeSVSasSQea/OdczTSNgw/5qzD/pFZpSBeWBqVYoEXHom/1a5B0dMhY486D8LLHIzwyZ07rYXIzQcG1a+xLC+T8GAbxD0N7rg0ntbAJSpGVl5d/E5FjMlUYGE7k8eFH+hcOh5s7a9b0DVbKr5UGmnzaVf+msLQDSg51ZdYr4dYVRQSlSMvLV3wXFjJkL3hluIlY15/wIfI2H1/DKuvm0Zszrl2jLuEvsdrqsVmzZv6/kpgUE5QihxEDWcjQPF8ck1SgJsoikPNNXOPKNWlXk9oL+wpr5NVX+W5jff0SCSyAMcILShOKiKCUCEh6D5q68zA4Eo9zpFU2m+2JwsIZ7ygF3Ir+zahdaX5Voybv5yjzJ0KtaApWLyImKEVYUbHyDiykfgQkvSFYAhZ8jvWytqeLimass2Deos6SWciqDUGFD7Ew/Gl8yF+NFNioCEqJYuDoBkmy/Ri3d0YqhFnCoYNfCsCfgeXHHrPIrKecTU1hA07jaNC8/ZsgiM9gQIjGKSJ2UROUUsYmUldiE6kfYAj5AUzDJEYsjUEDIl84Q5XmrURMLhfVGVRMw4tF2hVdAxx5KaJrpJ+jUd2BuX1iIgDqSgM4sIzmOWHuSX3PqJwqBPVJgN0YZqFfOgf/X+17ZvYrAH8LgC9HHyLkwmuz51VL+R9b+MR8j9sz/eKl+j5a794fw+btv9HdQ10pJPt1VZyqBCWJKisrr3O7WQEqdgH+VT1+VXIdXiTYTl563u0WVjzwAG/ShgeZMl/LllX2dTikmagm07EDoryPv886SFlMynwPzM2VTw5QFqpN32hgsUqHg1Wi+7O+TZ8KX8aMQKWlFdjcWLgX8tysUCbdvQPtv0L230Fr/lN3YeJAAMwI3IZs0tQdttphLNb7C6vc/3wb9eVFrP19kWRX28WMoCRoSckLPWy2Btqa8b/wlRyptvBqx4ev4FtYXvenhAT7H6ZPn35J7fh5fMEReP7555NdLs89OP3jbrS+bvH3qeb+wuo1byWyHPuzKCb+afbs+w77y6vmfUwJ6hOUBpFgq3oXRkG/CaIacUpmDWTF9IkHW2QWnfXJza/aI1BWVtYehxuQJqVZgUktJYhWu0ZPUOlDmLu+YrdLL6sxCNQyfy3/14SgvkRLSl7MsttdkzGKNwlNyFvxPMP3TofrAaT5Jpona44ePbza6XQ26CADTzIIAiiPxK5de0xBPSGSTsSv1cFekRwTGVnzVjiH4wBfxwj0Go8n4bXZs+89HkRs1R9rSlB/6TF/iiav7SYYOkxAIdDmZKn+72N0fwLxVqMJVe1ySVUPPFBIVh7cGRyBZcsqBiUkCBPQBclHC2w8Bu+yAokcSrsqnF65gI/3Wsx7V2F67R3MZ1KTVnOnG0H9c4ozYa5G83ckAMkDWYfj3RD80vz9RHh/Gs2RTzAn9QkKdxN2Tvs40M5pEcbNg+mAQOOOk6Pxkc3D3Ps1qDfXQIxOLUXxaVf/UeEQzdtaxLEddXAL6uAm1JsNOCMF0yb6OkMQtCUEdAQFlnD1g4bNRUH0whezB65dQTIqiA74Pxnv7Lj3ANBaAHoOBXUC98dwfxBaeR++tHslybUD2+hr1hxpmQ/+f+wRQF3JEoQELH+UcqHteqMO5KAOZINgmbjPwD196O1Hjh1Nge0ttaC+Ql3Ch5sdRR05jOt+aEjUFfdu/yMXYi95eCn8BxCeRJET/J9KAAAAAElFTkSuQmCC;imageBackground=none;imageBorder=default;" vertex="1" parent="1">
          <mxGeometry x="180" y="500" width="123.73" height="80" as="geometry" />
        </mxCell>
        <mxCell id="Az45LCxhIKdniQeji25l-7" value="" style="shape=image;verticalLabelPosition=bottom;labelBackgroundColor=default;verticalAlign=top;aspect=fixed;imageAspect=0;image=data:image/png,iVBORw0KGgoAAAANSUhEUgAAAOgAAACWCAYAAADUgcTJAAAAAXNSR0IArs4c6QAAAERlWElmTU0AKgAAAAgAAYdpAAQAAAABAAAAGgAAAAAAA6ABAAMAAAABAAEAAKACAAQAAAABAAAA6KADAAQAAAABAAAAlgAAAAAy237FAAAiU0lEQVR4Ae1dB3wcxbmf3btTb26SbWFbWO4FW5JNsw2iYzAmQB4toVhWs0l4PF4gocsGXhISIIFnLFnCBEiFEEJsMCVgAabYuOECboB7ARdsy7Klu9vN/9vTySfp2t7tbbmb+f32dm92yjffzH+/Kd98wxh3nAOcA5wDnAOcA5wDnAOcA5wDnAOcA5wDnAOcA5wDnAOcA5wDnAOcA5wDnAOcA5wDnAOcA5wDnAOcA5wDnAOcA5wDnAOcA0I8sKCsrCxTkqTeoiTmMYGlCUxw4O5mMjsquaRDLtG17cUXXzwWD2XlZUgsDlgSoNN/PH0QE9npoiyOk5lchOchAGPfQFWHMAcA2nW41kpMWm4X7R/X/aFuc6Dw3J9zwCwcsBRAK26pmAqwXc4kdgkk5IAomPgt4r4Oqft6+oH0hU8verolirR4VM6BmHHAEgAFMK8BB66TZflq3G1ackMQhH8C9C8dbj780ssvv+zWMm2eFudAtBwwNUCn3zR9FABUia5pOUCUGm1hg8VH+vU2yVY774/zVgYLx99xDujJAU2lkZaEV9xccRXAWYM0r8Pl0DJtf2nhI1AiC3JRydiS4ys/X7nWXxjuxzmgNwdMCdDpN08vByN+iWuszgzJx2TTBIC0BSBdpnPePDvOgS4cMB1ACZyQZg+B0n5dqNXDQ2AZ6O5OGDdmHEnSpXpkyfPgHAjEAVMBlLq1IJQkpzHgbOMSPhDJeCwpGV2ye+Ua3t1tYwu/GcAB0wAUM7UjIblIcurdrQ3E9nQs5fQfO2bsulWfr9oZKBD35xyIJQfEWCauJm1JlsoQ/nw1cXQIOw7SdJoO+fAsOAf8csAUyyxlt5RdLMjCnwGGHn6pNNazGXT9uP6F+lfDIeNXP/9VdmtSUn/ZLfaWGcsTBdYd8XIYk9MlJqcwJtpN81UMp0BBwmBdWmai0CrL0nGU6agsyYeg1bXfxux7ZEHc47Yf2FZTUyMFSYK/CsEBe4j3urwWmTgVGZkRnFT+NLRDUpToAtCH73/6VMbcoyVJHo3u8HDMAA9pEdlgaDrlMEGGF2BJKbQ5AB1P6Mh7Pax+V4pD5RQ8ZcLXiJwbDGCyxARn9rZZ9z25CSXeCACvZ5Kwtsnduuaxx35+1OpF14t+D0f1ys1PPqRXK4jCm3hV6Oe1WbwOgcZLTu0zeqtTdJ0JsXGmIEtnMEEoBoHdzEKkRejYCDqXA9TLgORPHvzVHZ9ZhG5DyDQeoDdPvxGV9SdDSq8i08yMnh/mdMuFlBdGqIjGgwbhABqfE72JRojfxVASebfm0Tv52nMnfpkBoI8DoHd2ost0f9PTu7Hu3QNumDEdvRYk6HtBYG+jO/ymfML9es1v76INDQnvDAdo+c3l1L29xOw1kZSUyvLyBpqdzPigT2ZQEBFelZOkV2pq7twSH4WKrBSGAxTKCavx1RwTGfn6xbLbHaxPnyH6ZchzIg6sQff3JTlJ/luiAtUMAP0GAC0we3sURRvLzx9mdjLjkj6MU5ej+/tCsrPlhV/8+heH47KQAQpl+JIcwGmJzdLYWROAhdw71hwA58dBkj7VYk96ftZ9T1wZ6/zMlL7hqn7FY4qngCGDzMQUf7Q4HCksI4OvqPjjjX5+ArowwoWl51ySU3r2ZVsaP3oz7qWp4RIUM7iWsA1ktyfp1w55TsE40BNt5l5md8+Zde+Tk4MFjId3hgMUTFxlBUYmJUFLjzvTcAAgnYJhx9M19z3xE9MQFQNCDO/ilowpIXOYZDUhPQbl0yzJ7OxcZrPF3LCDZvQmSELdAVR0eSenXzzxsjXvLlnUHG/lNhyg2BR9AOPQoWAsqc2Z0qWlZbHMTLOqCpuSZXoSZcMk0kRoInU7d8Kl6xuXvHVIz8xjnZcZurikbP0aCmpai3qpqVmxrgeefpQcwFJMuWgXHp39wBOjo0zKVNENl6DEDUjRTcVji/vgcZypuANi0tNzID17Qi+eL7OYrW780DMKyzG5pRMvX9e4ZNF3ft5bzssUEpS4JopiPW4rzMRBmrklgHJwmqlWQtEiXCOI7gdr7nk8LtS+TCFBieUrVq/YUzSmqAXd3Qn4a/iEET4YLCurF0tLyw7VIvh783EA9pTFtIsnTvno3SVvHDcfeeFTZBqAEsmw/fN50dgiFzZwn4O/hk6ZEjipa8udZTlQLImS3PjBW/+2bAlAuKkASowESD/F0stxqACSPaA0vZnrlZx83Kk352OQH2wcn3/O5AOLP3zTsvtMTQdQqiZMGn2CpZd9AOhA/M2LQdX5TZLGnF7JycedfllkLU80IBA8qPTcS7ZAklpy25opAUqtgLq7JaeVfAmgEI1jyC+WjsaafMwZSw4blnYP4DS79Kwp7zd+tMhytpBMC1CqThiN3lY4pPBfKfaU7fibhe9hAflr6ZKT0wDMngo4HQ6yV81dHHJgqCBKRxs/fOt9q5XNMot7lTdU9pQd8lTYz70MUvUCMBqmLCNz1H1NScnAlclSUzO4Cl9kbLRULDT0Haj2Wx945H/esxLhlgGoL1PLbiobh8mcs6Eb+wN0Xya5XK0hzYfS+JIU3pOS0hhJTTJhwl1icQAAfeHBR+64FVvWLGP51JIA9TarmvuefA4WWW91OluZJLmY2+1iMKKMC1WAkmEtDAoQMKMMcyWk6E7/uUt0DgjXP/ToHX+zChcsC9CH7//dFEmWidG6L8VYpXI5nV05gI/3P1jS4etg8d7V9a35fCwrUtwea+8cnOZrU6amCD2rqwVn5pWmJtKHOEsCdPY9T0yC6P+BTzn4I+eACg6IHKAquKU+qCheikgRz+Kqz5DHiDMOTJ19z+/OsEKZLCdBa2qe6A41wIutwFxOo2k5kI1T2C4yLXU+hFkOoIKTnQv6Tbdv1Ien/NESHJBpLd30znIAZYI4yfRc5QRagQOTZt/zJG1tNLWzHkAleaKpOcqJswQHsFRuQzfX9ONQSwF09gO/L4E+7nhLtABOpOk5gHV007clSwFUcktxZRDK9C04zgmETnYJFBZMbZHclJpEdXV1/UXRMQhHzxfiLPX+sizkC4Kc53LKY+HXl9T4lJ1+6KeQWp8syVD1k6Hqh7tbYm4Xnl0SczklxT/O21lCF08UBWZ3iMxmp0tgog13GOIkf5yKrqh8+msrSntBO0lOs89OTra/L0nOLVVVVdvNxkxTALS2dv4IAO90UZQwO6scKz8KjMqMlllUCa5WiTlb3Z6rBeAFgLmzLgcIiI4kumzKZcczgVEDR3tF1+Fzv1KSRJymJiyrri77QoN0o0pCk5JFQkF9fX2JJLHzAUhaNjkbV8xPJpIgYVtbXKz1hBt3tyJhI6Gdx9GXAyQhk5JtLCkFV7IdUlKXZnsIpfwYgH0f9uPeq6ioMMTipC4l9VZnQ0NDd4DycnRLL4MfHXyT7X2n9526wC0Aastxl3LpnT/PLzQHklPtTLkATJKcBjo6RW0RhlZvAKyvl5eXH9SLFl0AOnfucwWi6L4KhSL9WbLYZypHID3RjAt3Gs9yZxwHaNyYAmCmpHnAaRwlAXP+AG/+KUm2V2fMmLY1YCiNXsQUoOjG5qE/fwNovR5dBdOvObWcAEiPudjxY06N2MuTUcOB1HQHS0kHMFNC7r9Xk2yMwgpLkfBfMW/yF3R/98UoE2V+KyZp19bW/xgD7ZuQuOX0ZkmaEkhJsnIXew5QN1YBJ6SmBd3bmOB8sbq64o+xoF1zCfrMM/UlmOauALF0GTpwiIZhNKHUDJAeb3IqSzbRpMXj+ucAjStTMxwsDZJTp4kf/4RE70tLA/VY5qufOVPbySRNAVpX11COgXQ1JoFKoi+zOVIgKdoMkHJpqm19kNRMy3RYpDsbXtnR9leg7ddWVZU3hBcjdChNADp//vx+Lpd0O4i7HVmaWjMjNEu6hiBpeuxoK2vGhTJyFwUHSMkkLROHUuGyuNQMxIVWlPEpu118qqysbEegQOH6Rw3Q2tpnz2JMuhPjzR+Gm6lVwzUfdSpApSUa7tRzgLq0BEySnAngXoYG3JPV1dM/iaasUQG0trbhCqwL/RxSxfTbdqJhkm9cmkA6dqRV0Uzy9efPwTlAmj/pWUnK8knwkPHzFpL0I6z7/7q6unxBpKWKGKCYpb0BZizvwfJJwimwkyZS05EWRSMpUsYnUjzSAMrISlY0gRKp3J6yCmthCvaXmOX9SyRljwig8+Y13ASpWYMMB0aSaTzEIVXBpsMcpKHqUgFnNsAJVb0Edl9DmtZUVpa/qJYHqpdBMFN7I8D5IDJKWHASk6nBZVDDg3Tgzj8HODjb+TKQMFNfP5+UdlQ5VQCdN+/ZqUj9flyDVOUSp4EJpDSuovEVdx05QDzJAG8SXHL6MmWQJEkPtGHI1z/oc9gAhaI7JoLku5Ha8KApJthLUksjkBqszG0qriuztQROS6js6co6YEe+24Ol8PINC6DQqT3V7WY/S6TZ2vDY5wlFit3pibF0EBZbiBfEE+66coAwRFgiTHV929UnLIBiqpgUELgl9678a/fxLr63eyTog2edM+50VbSuzR+0YSpkuiEBCkWEamyqJoByF4IDiuoaVNgS1XnV9xK1/OrKLdzuwVbwWEEBOnduwwRBkGYiiaDhgmeROG9p7JUG5W+yiZNojsqslN3YjdVWYrtI2CKMBSM6IPCwhUaArZfpkJ4Jp4gQjGGh3ilbpwDSRHO0K4XKzp0aDgijCWOEtUCxAq4P9OlzynQsrj4UKCL3D8wBm8MGe0duxbpg4FDx80ZZ78xJ0cp4V/wwJrySFC1fvnLHwoULVvkL7leCYhp4AJTfb/UXgfuF5gB192gDcqI4Kmsiduu1ql/CGmHOX3p+AYoZphsRmB+x4I9jYfpZ2EJAmCX0BKPllET6GKliTviBJ7ZhrkuMLgB95plnhyIUbAhxFy0HqOFimBC3jsrGwalZ9V7fhr0OCXYBqM0m/RCLqad1CMX/RMQBmjRJTovfri6VjU8MRdQ0ukQizBH2Or/oANA5c+b3w6ztNZ0D8f+Rc4BMSMari+eyGVNnwjUeDJ7MvUPrsdvdUwDQopOvzfPkwpENe/cfZkePnWDNx1sZTqZidpuNpSY7WI+cdNYdlw27x83mFCkKnVQy6RlPjnSQzSo93RjQHfz+GDuA63iLk7mgW4dFR5aWmsQy01NY757ZaDvmaytoH0UeDLK53rbSAaBo85eZacxEDN74zV62ads+9tX279i3B+n4DP+uf5/ubOApPdmQgjw2cnBflpJkjq4l8TMp1RZ3AKUymamtnGh1svWbd7NNW/exr3fuZ9v3HPTfUOCb2z2TFfbvxYYMyGNDT+2tfOADBtb5BWEQWbYDtH0KA8q7pZIkvIWXhitS7tx3iK36Ygf7fOMOtmMvHZGhzg3qn8uKhvdj40cVsOzMVHWRYxCaTlk79G2zcvpaDJLXPUlaUumWm6acKqZ75p0yPHz0OPts3Va26ssdbMv2bzu9Df23X+9ubMzQfqxoRD92Sl7MjwcKTRBjraIoXwJj2I0UuF2CwgL8+dgKYyg46TSyD1duZktWbAn6BQxVSqooutZu3sXOKRnMSkb6XWIKlYxm75XDf9AljBeL9bSNjMpktFuxfhv7YMVmtuHrvRGTQgKArjWbdrKJJYPYpOLBRitcJHmwyBqpUIoEfemll2wHDx5ZjC7LpIhLGmXE7w41sXc/+ZItXrYxypQ6Rqcxx3mnD2XnnTGUpaUY9/0hA9iHD57oSJxF/2V3T1EMThtFfvOJVrZ46UalrdCchJaO2soFZw1nvbplaJmsqrTQzf2we/es86699lq3oup30UUXnQWszlKVioaBd+37nv3rvdXs49Vfa5iqJ6lWp4ttxLjECdW7gf16Moc9oHaj5nn7JghtEeWAJjDf0o7O4iRTL0bZtCVwLli8hr25ZD2jutXabd11gB0+2qxMJGVlpGidfFjpoakMaGk5/taCBQt2KP0UWRYNO9iIJn7e+GAtW/HF9rCIjzTQe0s3sIWNa5RZvUjTiCYedQkdcWA4i8pgVPeWZmSpDqkuY+moLVKbDDYpGcv8KW0vJr0DCZxsrb9zutzsnY+/YMsxltDDvfvpBtaocRdaDd10MrTVnZFloLqjOtTDUZuktklt1CCnYNJWU1OTlJmZVQMieulNSOOyTfhSrVOVbfHwPNanV4Zy7dl/TFVcCkxrqb0wzU5rYXo7LM8p3Vy989UyP7IcYYQEXb1hhyI9T7Rq360NxJ9tuw+yjLQUZfkuUJgY+tvGjStusOfn5w9DwxkRw4z8Jr0TM2dLVm7x+y6UZ/GwPCWI975ywz6257tjbM/+plBR2feYlv8Qs8SDB+Sy9NTkkOG1DKBIH5qWs+o4FLQbIUGPHW9R6ozqTm9HbXQo1tZPwXKMzm4EYdOOvu4wI1rM0rXfsN3ffq+6zF5Q+kZU/FAKcgRW5f6l56786fSzDssvy9dtY+eOH9LpTWz/ksUFHKqDvaLWPNuFaDfCeiHVFdWZEY7aKLVVAwBK49BhWAeVC/Uu+O7vDmNxWf24s0/P0FPfXgDTnbrAJFX9SVfqMp0zbjC0YUik6eeogVsVoEaAE9YGGNWVkY4+EGeNLWR9e+k9LJILIUGFAr0l6Jdf7WGHDqsfP/bpla6qnvr0TGd0MT/S9QvQsH7LbjZqcL6qNKMNbEQjj5Zmb3wjaKc6oroy0h1EW6U2qzdACZskQbGDRV9HurWRuHAkaLB0O0vXffv36w9QCxsUM8JqwuZt6tX3grWBSN9Rm73gzLYvfaSJqI4n9yOAYsZFv27ekabjbBsWgyNxijSMJKKfON60Pvt8jfI2v7dn4qlvnufuJ4omXkYt8GtBvBG0fxNhW9GivL5pUJultpuVoadut5wHgAq5voTE+plU+g4daVadDS2vxNLt2uuR6nSPJVhJE8eqTm/aafY20o+51jymNkttV1+ACrkAKMvUujDB0qMtZGZ3vmDNzMhApaRjH2EGy8Q9Wqf3pFS09PrG15t2GvvRNjKzOGq7hf10VRfI1B2gzfgqRuK848dI4kYT52hTE6OLMY+EjVa6ChZWJtKb9hYdlRLCaSORtt1w0g4QRgGork2GLCOoddFODqnNL1j4WErXYPkm4rtI2kos+WQAPSKWWWQXui4kSXVxtghMTahdXtGlIMgkIulqVS0iYqrOtJOZEjO5SNpuNPQTNu20CwqJhNYAiCYnn7gZaerV68wkQX2K0uXRV7oG6gpbebuZ3rTrrYrZpUI7eUTSdjsloeovYZNmccl4i24AzclMU0UkBfYuiaiOaGAEX7ASGQRYmmhKsqn/QBlYjA5Zk1aPni4zPRn60knsGIzEmcFF0najo1s4SF1bAmj/6BIKP3YfqEtlwcrBERU74RteXcO8yyxGTRaFX0L/IT2A9Uw0iYLtNxSqb6/8x/yHNqcvzmB5CpTdoBd1tKTRNzeHmUFZgdostV2d3UHq4u7Gh3GsXhlTN6EQRr1WfbldVZYr25TfvXdl2xl0c60oXSXZfRcVfue32++CMnAjtKLfhyGcxob//12jKqboHLiu7tlteg9EaVnDDAClNmtAF3e3HVvNduk9FqetXmoB2rkteoDqkUiWlq6yXIqylTJJeqh85u1UzFn00/DMUzV0N5OTZfduQee1lsHY6kXmTYx21Gb1doRNSFBhq95fRdpf1yMnA4aFQ+/fDIcpXqlKd5pQollf5U6K8tZzDxHJAOtDXulqHrAK6ro9GvCe2sqIwj6GKsxTWyU69HaETeribtF57K/srSse0V8xKaF1oZXtZcrG7fiRrgpYPYwyVLpid8VXeve2yMjb2GH9DAUotVUj9oMSNjFJ5N5kxAn340cNANN3M7LoF0vnT7padaIJfDopXQ3oCqek2La0trrJDMagWNZZ57TJCPnaTbsUO8ed38X6f35eDgygD4h1NgHSd2+ylZSU7M/MzL4WIXoGCBUTb5qypjMz1m/Rb69fU3MrO9rsYkUjYcx61BDl6IIs6NoebTK/frCfSiiFX2nx+DNqik8/k+6nFp9xFlu57NOtfsJq4vXaa6+5pky54jx0vYZrkmCYiSTjGI+kJLtioLoV5lP1dJMnjcQpBbotcvgUTdiwZ8+uWbbGxkbpiiumno03o33e6vLYt1eOchDStiDnaGhNyKWTRinW5ildUoSni9YoqetmYbAWoDilmA2+VQHs+DME3EtXfra0Ef6aOrQV2IkRztM00TASIyNvpGq38RvP0CWMKFEHoVMJLpk4EmZqDLGl/PbPfnbn32kdFPUqrcDsHJ2qratLwclkF08cwZqgQL8yxnZxqWBkXf7CM/1//L37QOlOEvXosSbs/8NdUZTXlS1aZHayK6zxMo4gyMsxFtWCRtVpUN2RJXmyKh9rR+NOapvURo1whEnKVwGoINiW6T2T6y10r26ZbDKkGrlYgpTAedk5o1kyukqhHG0ro6tv28Td7n2er7ZXOyhUfFO913gZB9pEn2FScSN6HEP1LifVHdUhuViClMBJbZLaplHOg0nGFNkN+5s7s7KyLgQxRnS2lRPICvr2YHSu47bdBzTlSSrOY5mMbgpVbKS6nb5dYeoGJyfTGS8Ca201hwqaSoaVIrxn7BpBV3jhwoXNU6deSYotxSrz1SQ4gZSUBqjbSYceuTQ2LE2WHq8oPc0IraF2/uDj99GePTtnY/h5sq8yb17Dw/gy3t8eyoAHOmvjo1VfsU9WfwWgBj7fMVzShg3szSYUDWKnjy4IN4rqcJaWrl1LOyscjaba2mdvRlf3+a7R9fVZtnYr2suWqE4381I8oG93xXLfhKJCluQI3cvyxovFHQB9pLKy/AFKu30w0XY+6L/hZ8iI2LegtPRCpvdJ22gPTHSqdQX5Pdi4kQXsjNMKdDVREXdgBeP9KUmgrZyCs2Sprejeze3cFshO0NI1W9FetjI6+EitI/1amqUdhyMqaUnFBM6N80Ev9J4P2g5QIgxfxgX4Mk4xAZEKCfsOHMGJyZ6zPr/eiRO2DwQ+YZu+gAPQTR6MU5NJ80RvvUl/PCPAWnii6WSR/Ew0QS/3Scxb3HEykLFPTc0tijLDZljfo2FSsB5Ybo9MHOfQi9FBz0MKcllejyxjiffJHRNwC6urp1/h9eoAUHRzZ6KbO8f70kx3OtyXpCl9McmYlBv/ScuEzvzs0S2d9YQ6FtbnzESylxYnvoiXL121dkKbhzLD6n1p0fusjLS0gcMHD7oe9BszzRmEcbQtbj/USA8cOsbouEI6AMkGY200B0E7ZEhq6m0ALQi5HV6hCd+G7u0zXs8OLXru3LkFouj4B14WeQPwe9QceLmqqpwUQdpd+U/uIOX4UnxRzsUaV2n7Cws+eI2qeZepLFgEM5G8SpKcV8+YMWOrl6gOACXPurp6DE6F2d4A/B41B34EgP45WCrQta1pe2956RrIkkSw8vN3Xg7ID1ZVVTzs/Uf3LtNV2FL0CtZg/gsgHe0bkD9HxIF/Qdf5n6Fi+kzE1LRL1za921Bxzfbeu1ZMdw5WNbUjryXsdY7RRYJSAEwA3IsJgEc7B+b/1XEAY6Ebq6sr/qIuVsfQ8SJdvV1hrewLd+RSPPwT7quqmv5/nUviF6Dz588f6HRKzyPwxM4R+P+wOfAiura3ILQcdowQAeMFrFRMLl07VPYSh0O8pays7OsOvvjjF6AUqK6uoRy3enrmTi0H5D2YSLwF0vMdtTHDDd/eFY6jiaYElq4V+Jg3+Kv7gABdvHixffPmr+rR0G71F5H7BeYAeDa7urpc1wkfLl0D14eZ32BZ5Q8Ye1ZWVVX5PeMiIECpUHPnNkwQRTYPjyPMXEgz0QaGvwFljypoguw0iq54kq5x3hX+wmZjleXl5R8FaitBAUqR2pQXnsajGCgR7t/Oge2Qnj+B9FzQ7mOCh3iTrnHSFZbwMf+pr1KCv6YSEqAUCbO6v8dcx+3+EuB+JzkAht8Fhv/2pI/5nuINrMRhaypJCE9h1va/Q7WQLuug/iK4XPLTDgcbAOlwpb/33I84IM/Jycl+yuy88F1zJVoVwFp0osl3zdVKyzj4kL8G9U/qlYZ0YUlQSgVSdCLGVr8BSM8MmWrCBRBecbuFu2fO7DpNbiVWcOka+9oCOD+FQvxdkJ5LwsktbIBSYvPmzbsKiWMxVRgWTuKJEUb+Nw6Hu7eyctpn8VTeeJpo8kpX47vC8gYIObSVylfDbSuqAEqJzpv37I+gIUP6gqeGm0n8hhM+Rtnux9dwcfyW0VMyLl2jruFvsNvqgcrK6X9Sk5JqgFLiUGIgDRla50tgkArURXkY4Hwb94Ry7dLVovrC3soaP+Y072Os798gg1lQRnhebUYRAZQyAUhvRFf3PkyOJOIa6WJRFB+pqCh7Ty3D4zG8FaUrra/q1OX9EnX+SKgdTYHaRcQApQTr6+dfiY3UdwOkZwfKIA79sV9WfKyqqmxpHJYt6iJZBaz6AFT4GBvDH8OH/LVIGRsVQClTTBydLcvi/+Lx6kiJsEo8DPBrwfDHofmxxSo0G0lne1fYhMs4OnRv/yEI0uOYEKJ5iohd1AClnGFE6lQYkfopppBvwzJMUsTUmDQiyoUzVGndSsLiclWzSck0PVkkXTE0wJGXEoZGxjma1R1WODAmBKCttAIDc2idE+qeNPaMymkCUC8FsMZQiXHpTPwf4/Wz+h0MfwcMfwZjiJAbr61eVj3pf2D2I/e7Xe5px0+0DNTben8Mu7efY7iHtlJB+uuaOE0BShQ1NDSc7nKxcjTscvzVPH1NSh1eIjAnLz/ncgnP3nYb79KGxzJ1oebMaRhkt8vT0UymwQKiYsffqx2kLiV1oYcVFionB6iLFTQ0OliswW5nDRj+LAsaUuXLmAGotrYexo2Fm0HPBSppMjw4uP130P4HSM3XDScmAQjAisDlKCYt3cHUDmOxti+s8fjzXbSXF7D39wWiXWsXM4ASoXPnPp8viq1kmvE6fCXHa0281unhK/gOttf91eGw/XnatGkntE6fpxeYA88991yK0+m+Ead/XI/e10W+IbW0L6xd91YmzbG/SVLSX2fMuGWXL71aPscUoF5CaRIJuqrXYBb0KgDVjEsyi0Arlk/cMJFZddhLN7/rz4G6urpsHG5AkpRWBSZ3piBa6Ro9QOWPoe76qs0mv6LFJFDn8nX+rwtAvZnOnftCrs3mvAyzeJPRhbwU/lnedwbctyPPt9E9WbR3766FNTU1rQbQwLMMwAHUR1Lv3vlT0E4IpBfj6nKwVyTHREbWvRWO4DjANzEDvcjtdrwxY8bN3wYgW3NvXQHqSz3WT9HlFc+HosN5qAQyTpbu+z5Gz98h3UZ0oRqdTnnxbbdVkJYHdybnwJw59cMdDuE8DEFK0QM7F5N3uf5IDiVdVS6vHMPHewnWvRdjee09rGdSl1Z3ZxhAfUuKM2HGoPs7HgwpAViL8G4krgzfMBE+H0R3ZDXWpFajclfActqn/iynRZg2j2YAB9osTp6Jj2wJ1t7Hot2MBRndO5Pila6+s8IhurdNSGM92uAqtMEVaDef4YwULJsY60wB0M4soCMosIVrMCRsISpiAL6Y+bj3BsioInLwPwXvbHh2g6FNYOgRVNR3eN6H5x2Qylvxpf1Klp0bYEZft+5I53Lw/7HnANpKriA4sP1RLoS0K0Ab6Ic2kAeA9cJzFp7pQ2/bvW9vGnRvqQf1PdoSPtxsL9rILty3QUKirbg2+x65EHvKw8vhP6XR6UB2H70+AAAAAElFTkSuQmCC;imageBorder=default;" vertex="1" parent="1">
          <mxGeometry x="40" y="600" width="123.73" height="80" as="geometry" />
        </mxCell>
        <mxCell id="Az45LCxhIKdniQeji25l-8" value="" style="shape=image;verticalLabelPosition=bottom;labelBackgroundColor=default;verticalAlign=top;aspect=fixed;imageAspect=0;image=data:image/png,iVBORw0KGgoAAAANSUhEUgAAAOgAAACWCAYAAADUgcTJAAAAAXNSR0IArs4c6QAAAERlWElmTU0AKgAAAAgAAYdpAAQAAAABAAAAGgAAAAAAA6ABAAMAAAABAAEAAKACAAQAAAABAAAA6KADAAQAAAABAAAAlgAAAAAy237FAAAj2UlEQVR4Ae1dCXwURbqv7jlyH1zhiEAk3KBAwqECErxR1FX3ee16hYQEcH0+3+quq0hA97237vNYV85EXPXtrusergvruUpUPEAuQZRTuQ/lEAiBJDPd7//1pIfJZI7umZ4+Zrp+v57uqa7jq6/q399XVV9VMWY7mwM2B0zLAYdpKbMJszkQAwcq7r67rGTU6OdLxozeuWblyh0xJGGqKE5TUWMTY3MgDg5UzLh7GRNYmZSEKN25OJIzRVTeFFSkIBH0pU/BYiekyBXT767BJTIfKP15kL//j0UfLP+FsQrf/YAU2SypIXGsvm7usxOtQr8Z6ZR4KvMzHIE8m1j37LP14V6b3d9WcRNUQ+0AKQRlFPS1D3pr/43AAT8wZXU2Qlh8DGfhdX2kIGZ+Z0tQjWqnHSCVpGvxr7uSImodRupnqv24WZjPtgSNsQW1A2SwhFSSrsW/7kqKqFWY1v4kdQ/UOwvz2QaowurWBJAK87KDneGAX51VKzXPJMGoz0/pWLEvagM0sCIDnnUBZDyNLoDWZHz0A1NJP1MJAwS2DMEs16WzHMGh6qK8vDxHEIRuvMB3RRVkcoxz4e7Fl/OE4BGOenjPzpdeeulkqLiyXztAyi8Sfbdw/yhRrImpn6mMmNl1856tURbUHKEsCdApP57Sl/FsNC/yIzH5NQLP/QHGHuFYijCHAdovcG0QmLDKyTs/9ma7CqXw0YbpwyWqlb893eLnpL+f6fdJwIPFPoiWUnEr76i8BmC7CtYil6Pqeotc64hBlIEDALMTc/ATEGwC505jXgfsM2IZ1ElAe7GTZMyvzuqh8ltswMgSAAUwb0BDvkkUxetxdyjqSRAIyblRRPnZ52OuXz0apblK7KfGD0yt+pn+lJPnwdQq7pTbpgzlOG4qJGAFJGeGIrZnuM0NyFCFsJjaFaoIav0S2M8MTQq6Eviwz7baSK5pJWjl7ZXXgdM/ATAn4grN9FC+ZpaWoeglP4upXeGKodRfd3AyAHOutQaHZF6aEqBTbp9CEnMmiOwlE6r47kXn0oogVVzAJAgISYaPUpkOJbHcqG0wT0y3moXACZV2FghVD04qXbMnuIz2f5NxQFIzSeVMlKO0qdtgsSmVUOwwVR+U1FpIzqdBaGzgpBKS9KR+qJmd3Dgt2CfSkq3SEjEtE7RoPzMSC0yj4mKkdghGae8GsbGDk0pKKq7ZnA3IcDUyGy9IW9LCWbafGanwppGgUG2fgGp7XyRiFb8zeiTXBqTiqtJgwMjy/cxIzDIFQMvvKL+ME7k/SAYFkahV+k5vNTcAkH2zzlrb7Hb3Er18N4w9d+U51hFk52OoNktgYjpjvNN0HX+lfA0KB41HZDzXLIrCKZTphCiIR9H3O+Rgzv0ix+/3Og/vrKmpiajSSHOhPjvZoNSj/E1CdTZUiU0B0Io7Kp7FqN6MUATG5JdogLYCMsOVsaggu/CkIIjnYI5tEMrQHw20H+4ApO3AgZ24tmBcYTMAvJEJ3IYGb/P6xx//2YlA7qiSoikCTJk/hgOU7Go5nnsTBBXLRGlyz4aw0soJggeSYr2LT3+0W16hF2LjPE4UxjCOK0EWHbTKJkXS2YxyroK2tBLLGT555H/u/UyFFE1qdTZU/RsP0Nun3IrK+n0o4uLyi6cfKg800ZRN63NOducP8zsUdMKKpcFx0WVH9nMAja8F3YB6aBzL9h7b8UNB9NIHL5RLOWDKTDDDKG6pTIymdwKX0umWEIAMpgWNZ7wFlxMGF8NU/wFOFwi6FN2DSwvzi77ffXR7W/pSTJ1tW3jfP8MBCuk5JBRhCfVTAMjg/FtaTgd72f+15UB+XkZHduzUEaxvSDue5cp5OSsn99c1Nfdt0zYba6VmuIoL44R1GEQYlhC2yf3QGAAZTI/T6WLdu/cP9rb/a8yBJs8plub0r4tYD/X3FdEt/ilVgWoGgH4DgBZpXM++5Gg0VwZnnBnwvIMVFg6MMxU7eiwcgCq8iuPYi2ktTS/+/Fc/PxZLGlaNY/iUHMDZlDDmaQROog/L3hJGpp1wZA6A8yMhSZ9pcrpfmP3Qk9dGDp1cbw0/PKlkWMlksLSv2dnqcqWz7Gx7RsXYeuKgwnCXlF14eX7ZBVduq//ozaSXpoZLUAwSbTW20pXl7nSa3ABfWTGSIVRntJlfMKd37uxfPDUpGQoUqQyGAxTErY1EoFneud0aGj6YpVAWpgMgnYxux29rHnqSFlgkrTNcxS0dVkrbYd6EK8vMXM7LK2AOB03b2c5EHOgIoELlnZR12bgr17+7/I1GE9GmCSmGA3TN52sOox86AKUJZ0WiSUHjSSQzM5fl5MCIyHZm5IADg0jjsMNjhwljr9hYv/yto2YkMlaazKDiwpCEew0F8MZaiETHy8jITXQWdvpxcgBTMRW8k/vlnJlPnhNnUqaKbrgEJW5Aim4pGV7SHY8jTcUdEJOVlQ/p2dmeZjFbxYSmZyimYwrKxl31Rf3yN74LHcRavqaQoMQynudrcVttJvbRyC0B1J4DNVOtRKOFu4HjvY/UPPhEUph9mUKCEstXr1u9f8SwEU1Qd8fir+EDRvhgsNzcLiwzMy9ai7Dfm48D2E+Zz7xs3OSP3l3++inzkaecItMAlEhe+/naz0cMH+HhGX8h/ho6ZErgJNXWdpblQInAC2L9B2/9y7IlAOGmAigxEiD9FFMvp2ACOBLSNFNv5sqS0+536s35BOQnsrEXXTjp8LIP31yZgNR1SdJ0AKVSY9DoE0y9HARA++BvV104gUyozylLTrvfqRfXE5gPGhBS71s24fJtkKSWXLZmSoBSlZG6W3pu6VcACtE4jPwS6aivafc5E8lhw9LuBJzmlZ0/+f36j95osxeSYRSpyNi0AKUyrFm/Zmdx/+J/pDvTd+FvLr6HReSvpUtLywQwO0vgdLnStEzaTss8HBjA8cKJ+g/fet88JCmjhFQAS7ipt0ztLLrEawRRuBJS9WIQHfPOeaS+pqdn48phGRnZtgmfJVpAfESioe9Gtd8587H/eC++lPSNbRmABrKl/LbykRjMuQC2sT+A+jLe42mOunUL9S/J4N3tzmQkNd1u/6r9wKTt5yTmAAD64iOP3XsnlqzB8MgazpIAlVlb89BTz3NMvLOlpZnRzpher4dhE2VctMCaLkzYYCcE2q6EDN3pv+1SnQPczbN+ee+frMIFywL00YefniyIIjFa96kYq1SuTWd7DuDj/TfmPnYTdrzHto/md5YVKV5RvAHstcFp/jZmKgqhWV3PteRcayqiIhBjSYDOefDJ8RD9P4hQLvuVzYEIHOBtgEbgTvyveP4KJBLzKG78BNgpWJwD18x58OkxViiD5SRoTc2THWEGeJkVmGvTaFoO5OGQq0tNS10AYZYDKNfCJoB+060bDeCp/WgJDog0l256ZzmAMo7HGSm2szkQNwfGz3nwKVraaGpnPYAK4jhTc9QmzhIcwFS5A2qu6fuhlgLonJm/KYU97ihLtACbSNNzAPPopm9LlgKo4BWSakMo07fgJCcQNtmlMFgw9Y7kprQkWrhwYS+ed/UVRbGYMbGXKHKFHCd29bSIw+HXg8z4pJV+0FPIrE8URJj6iTD1wx3nsXg9ePYIzNMiSP5J3s5Sung8zzGni2cOJ10c43FglgMbcZI/Tm6XTD5DtRWpvaCdpGU656SlOd8XhJZtVVVVu8zGTFMAdMGCxYMBvNE8L2B0VjpWfigYlRMvs6gSPM0Ca2n2+q4mgFfDA5Xipc+Or54DBESXmy6HdDnxTGDUwNFa0S/wuV8jCDxOU+NWVleXf6lBunEloUnJYqGgtra2VBDYRQAkTZtcgCvhJxMJkLDNTR7WfNqLu1eSsLHQbsfRlwMkId1pDuZOx5XmhJTUpdkeRSk/BmDfx/5x71VWVhqy46QuJZWrs66uriNAeRXU0ivhRwff5Mnv9L6TCtwEoDad8kiX3vnb+UXnQFqGk0kXgEmS00BHp6i9ga7V6wDrPysqKo7oRYsuAJ0///kinvdeh0KR/Szt2GcqRyA93YgLd+rP2s44DlC/MR3ATM/0gdM4SsLm/AHe/F0QHK9Om3bXjrChNHqRUIBCje0Kff4W0HozVAXTzzk1nQZIT3rYqZMtGrHXTkYNBzKyXCw9C8BMj7r+Xk2yCQrLrUDCL2Pc5I9Qfw8mKBNpfCshaS9YUPtjdLRvQ+KWs5slaUogJclqu8RzgNRYCZyQmhZ0b2OA86Xq6sr/SwTtmkvQefNqSzHMXQli6TK04xAPw2hAqREgPdXQIk3ZxJOWHTc0B6hfmZHtYpmQnDoN/IQmJH5fAUnUYpqvdvp0bQeTNAXowoV1FehIV2MQqDT+MpsjBZKijQCpLU21rQ+Smpk5Louos8rKjra/Gm1/QVVVRZ2yGNFDaQLQxYsX9/R4hHtA3D3I0tSWGdFZ0j4ESdOTJ5pZIy6U0XZxcICMTDJzcCgVLotLzXBcaEYZn3E6+WfKy8t3hwuk1D9ugC5Y8Nz5jAn3ob/5Q6WZWjVc44kWCag0RWM79RwglZaASZIzBdyfYQH3VHX1lE/iKWtcAF2woO5qzAv9DFLF9Mt24mFSYFwaQDp5vFmyTAr0t58jc4Asf7Jy3dL0SeSQyfMWkvQjzPv/qrq6YkmspYoZoBilvQXbWD6I6ZOUM2AnS6SG402SRVKsjE+leGQBlJ2bJlkCpVK5fWXlNmAr2P/GKO8fYyl7TABdtKjuNkjNGmTYJ5ZMkyEOmQo2HLNBGq0uJXDmAZww1Uth9zWkac3UqRUvqeWB6mkQjNTeCnA+goxSFpzEZGpw2dTwIB1sF5oDNjj9fOlDmKmtXUxGO6qcKoAuWvTcNUj9YVx9VeWSpIEJpNSvov6V7dpygHiSDd6kuOQMZEpfQRBmtmIo0D/is2KAwtAdA0HiA0htUMQUU+wlmaURSA025jYV16XRWgKnJUz2dGUdsCM+4MOSsnwVARQ2tWd7veynqTRaq4x9vlBk2J2VGlMHithCvCCe2K49BwhDhCXCVPu37X0UARRDxWSAYO/k3p5/fh958t3vkaIPvnnOpLNV0bo2f9CKqajpRgUoDBGqsaiaAGq7KByQTNdgwpaqTjbfS9Xyqys3d48PW5FjRQTo/Pl1YzlOmI4kIoaLnEXqvKW+VyaMv2lPnFRzVGap7MYurLYS23nCFmEsEtFhgYclNBz2epkC6ZlyhgiRGBbtnbR0CiBNNUerUqjstlPDAe4cwhhhLVyssPMD3bufNQWTq7PCRbT9w3PA4XJgvyOvtLtg+FDJ80aa78xP12rzruRhjLKSjFi1as3upUuXrA0VPKQExTBwbxi/3xkqgu0XnQOk7tEC5FRxVNZUVOu1ql/CGmEuVHohAYoRplsR2D5iIRTHFPpZeIcAhSX0BaPplFT6GKlijvLA41ox1y5GO4DOm/fcAITCHkK2i5cD1HDRTUhaR2WzwalZ9d7cir02CbYDqMMh/BCTqee2CWX/iYkDNGiSlpm8qi6VzR4YiqlptItEmCPsBb9oA9C5cxf3xKjtDcGB7P+xc4C2kExWl8xlM6bOuBt8GDyTe5vW43R6JwOgI868Ns+TB0c2HDh0jJ04eZo1nmpmOJmKOR0OlpHmYp3ys1hHXA6sHjebk6QobFJpS89kcmSDbFbp6UWH7sj3J9lhXKeaWpgHtnWYdGSZGW6Wk5XOunXOQ9sxX1tB+xjhwyCbL7eVNgBFm7/STH0mYvDmbw6wLTsPsu27vmPfHqHjM0K7Xt07sj5ndWb9i7qyIf16sHS3OVRL4qc7w5F0AKUymamtnG5uYRu37mNbdhxkX+85xHbtPxK6ocC3oGMOK+7VhfXv3ZUNOLub9IEPG1jnF4RBZOkHqH8IA8a7ZYLAvYWXhhtS7jl4lK39cjf7fPNutvsAHZGhzvXtVcBGDOrJRg0tYnk5GeoiJyA0nbJ29NtG6fS1BCSve5I0pdKhIFM6VUz3zIMyPHbiFPvsix1s7Ve72bZd3wa9jf63Z7cObNiAnmzE4J7srK4JPx4oOkGMNfO8eDk2w66nwH4Jih3gL8JSGEPBSaeRfbhmK1u+elvEL2C0UlJF0bVh6152YWk/Vjok5BRTtGQ0ey8d/gOVMFl2rKdlZFQmo93qjTvZB6u3sk1fH4iZFBIAdK3fsoeNK+3Lxpf0M9rgwu3DIqunQkkS9JVXXnEcOXJ8GVSW8TGXNM6I3x1tYO9+8hVbtnJznCm1jU59jomjB7CJYwawzHTjvj+0AfaxI6fbEmfRf3kd06UNp40iv/F0M1u2YrPUVmhMQktHbeXi8wexLh2ytUxWVVpQcz/s2DF34o033uiVTP0uvfTS84HV2apS0TDw3oPfs3+8t459vO5rDVP1JdXc4mGb0S9pgeldn56dmcsZ1rpR87wDE4S1iHRAE5hvaUdncdJWL0btaUvgXLJsPXtz+UZGdau127H3MDt2olEaSMrNTtc6eUXpoan0bmo69daSJUt2S3qKKPKGHWxEAz+vf7CBrf5ylyLiYw303opNbGn9emlUL9Y04olHKqErCTbOojIYpd7SiCzVIdVlIh21RWqTkQYlE5k/pS1jUu5I4GRr/V2Lx8ve+fhLtgp9CT3cu59uYvUaq9Bq6KaToa3ujCwD1R3VoR6O2iS1TWqjBjkJk46amhp3Tk5uDYjoojch9Su34Ev1hapsSwZ1Zd27ZEvX/kMnVcWlwDSX2gXD7DQXprfD9Jyk5uqdr5b50c4RRkjQdZt2S9LzdLP2am04/uzcd4RlZ6ZL03fhwiTQ3zFyZEmds7CwcCAazuAEZhQy6T0YOVu+ZlvId9E8SwZ2lYLI9zWbDrL9351k+w81RIvKvsew/IcYJe7Xu4BlZaRFDa9lAEn60LCcVfuhoN0ICXryVJNUZ1R3ejtqowMwt34WpmN0doMJm07ougONaDErNnzD9n37veoyy6AMjCj5oRTkCKzS/SvfXfoT9PMFpl9WfbGTTRjVP+hNYv/Sjgs4VAdrRa15tgvRbsTuhVRXVGdGOGqj1FYNACj1QwdiHlQs1rvg+747hsll9f3O7p2jD33LAKY7qcAkVUNJV1KZLhzZD9YwJNL0c9TArQpQI8CJ3QYY1ZWRjj4Q5w8vZj266N0tEoshQbkivSXoV9v3s6PH1Pcfu3fJUlVP3TtnMbpYCOn6JWjYuG0fG9qvUFWa8QY2opHHS7Mc3wjaqY6orox0R9BWqc3qDVDCJklQrGDR15FtbSxOiQSNlG6wdD146JD+ALXwhmJG7Jqwdad6871IbSDWd9RmLz6v9UsfayKq44k9CaAYcdFPzTvecIrtxGRwLE6ShrFEDBFHTuuzz9dLbwu7+QaeenT13UNE0cTLqAl+LYg3gvZvYmwrWpQ3MA1qs9R2c7P1tO0WuwKgXEEgIYl+JpO+o8cbVWdD0yuJdHsP+KQ63RMJVrLEsarTm3YavY31Y641j6nNUtvVF6BcAQDKcrQuTKT0aAmZ2V0gWHOys1EpWVhHmM1ycI/X6T0oFS+9gfH1pp36frSMzCyO2m5xT13NBXJ0B2gjvoqxOLn/GEvceOKcaGhgdDHmk7DxSlfOwsZEetPepKNRgpI2EmvbVZJ2mDASQHVtMrQzgloX7+CQ2vwihU+kdI2Ubyq+i6WtJJJPBtDDY5pF9EB1IUmqi3PEsNWE2ukVXQqCTGKSrla1IiKm6kw7bVNiJhdL242HfsKmk1ZBIZHoFgDx5BQQNztTvXmdmSRoQFHaPQZK13CqsJWXm+lNu96mmO0qNMgjlrYblISqv4RNGsWlzVt0A2h+TqYqIimwPCWiOqKBEQLBSmQQYGmgye1Q/4EysBhtsiarHj1dTlYa7KXd7CQ2iTODi6Xtxkc3d4RUWwJor/gSUh67O8ylcrHLwXEVK+HrXl3P5GkWowaLlJcwdEgfYH0DTTzn+DWF6tGl8PHQoc3pizNYngFlt+hFHU1p9CjIZ2YwVqA2S21XZ3eEVNx9+DAO1ytjUhOKsanX2q92qcpyTavxu3yXlp3BNteK0lUQvfdT4fd8u+t+GAPXwyr6fWyEU1/37NP1qpiic+CFC5/bqXdHlKY1zABQarMGqLj7nFhqtlfvvjgt9VIL0OC26AOqTyJZWrqKYhnKVsYEYVbF9HuomLPpp27eMzV0N5MTRe8+Tue5ln5Y6kXbmxjtqM3q7QibkKDcDr2/irS+rlN+NjYWjr5+UwlTZKlKdxpQolFf6U6G8tZzs4hkgHWWLF3NA1ZOndqjAe+prQwu7m6owTy1VaJDb0fYJBV3m859f2ltXcngXtKWEloXWlpeJi3cTh7pKoHVxyhDpStWV2zXW9uiTd6GD+xpKECprRqxHpSwiUEi7xYjTrgfNbQ3mL6P0Y5+iXShpKtVB5rApzPS1QBVOD3dsa252UvbYPRNZJ0Fp02bkG/Yslfa5zj4XaL/F3bNxwbovROdTZj0vVscpaWlh3Jy8m5EiM5hQiXEm4as6cyMjdv0W+vX0NjMTjR62Igh2Mx6aH/p6IJc2NqeaDC/fXCISiiDX1nJqDE1JaPPo/vZJWPOZ2tWfrojRFhNvF577TXP5MlXT4TqNUiTBBUmkoZjPNxup7RBdTO2T9XTTRo/BKcU6DbJEVA0btP+/XtnO+rr64Wrr77mArw5J+CtLo89uuRLByHtjHCOhtaEXDF+qLTbPKVLhvB00RwlqW4WBmsRilOG0eA7JcCOGsPhXrbmsxX18NfUoa1gnxhuoqaJKkiMNnkjU7vN3/i6LgqixB2ETiW4fNwQbFNjyF7Kb//0p/f9heZBUa/CaozO0anaurp0nEx22bjBrAEG9GsSvC8uFYx2l7/kvNAff3kdKN1Jop442YD1f7hLhvK6skWLzM6owhpP43CcuAp9US1oVJ0G1R3tJE+7yifaUb+T2ia1USMcYZLylQDKcY6Veo/kyoXu0iGHTYJUI5dIkBI4r7zwHJYGVSmao2VldPVoHbjbd9D31Zatg6LFN9V7jadxYE30GQYVN0PjGKB3OanuqA7JJRKkBE5qk9Q2jXI+TDImyW7sv7knNzf3EhBjhLItnUBW1KMTo3Mdd+47rClPMnAeyySoKVSxsdp2BqrCpAanpdEZLxxrbjaHCZpKhpUhvK/vGoMqvHTp0sZrrrmWDFtKVOarSXACKRkNkNpJhx55NN5YmnZ6vLrsXCOshvz8wcfvo/3798xB9/OMrrJoUd2j+DI+7A9lwAOdtfHR2u3sk3XbAdTw5zsqJW1gn25s7Ii+bPQ5RUqjqA5naenavrSzlVg0LVjw3O1QdV9oH11fn5UbdqC9bIvrdDOZ4t49Oko7940dUczcruhalhwvEXcA9LGpUytmUtr+zkTr+aD/gp8hPeLAgtLUC229T9ZG+7FFp1pXVNiJjRxSxMacW6TrFhVJB1YwPpSRBNrKWThLltqK7mpucFugfYJWrN+B9rKD0cFHah3Z19Io7UgcUUlTKiZwXpwPeol8PqgfoEQYvoxL8GWcbAIiJRIOHj6OE5N9Z31+vQcnbB8Of8I2fQF7Q03uh1OTyfJEb7vJUDwjwFp4oOlMkUIMNMEu9ymMW9x7JpCxTw2NTZIxw1bsvkfdpEgaWEGnHBzn0IXRQc/9iwpY1065xhIfkDsG4JZWV0+5WvZqA1CoudOh5s6VX5rpTof7kjSlLyZtJuXFf7IyoTM/O3XIYp1hjoX5OTORLNPSgi/iVSvWbhjb6iGNsMovLXqfnZ2Z2WdQv743g35jhjkjMI6WxR2CGenhoycZHVdIByA5sFkbjUHQChmSmnpvgBaB3Dav0IRnQL2dJ3u2adHz588v4nnX3/ByhBzAvsfNgT9XVVWQIYjfVdx9LxnHl+GLMgFzXGX+FxZ8kDdVk6epLFgEM5G8VhBarp82bdoOmag2ACXPhQtr0Tnl5sgB7HvcHPgRAPqHSKnA1ram9b3lpWu4nSQild9+J3NAfKSqqvJR+R/d2w1XYUnRXzEH828A6TmBAe3nmDjwD9g6/z1azICBmBq/dG21u40W12zv5bliuttgVVM74gbCXnCMdhKUAmAA4BcYAPhlcGD7vzoOoC90a3V15R/VxWobOlmkq6wKa7W/cFsuJcM/7qGqqin/FVySkABdvHhxn5YW4QUEHhccwf6vmAMvQbW9A6FFxTGiBEwWsFIxbenaprKXu1z8HeXl5V+38cWfkAClQAsX1lXgVkvPtlPLAXE/BhLvgPR8R21MpeH9qnASDTSlsHStxMe8LlTdhwXosmXLnFu3bq9FQ7szVETbLzwHwLM51dUVug742NI1fH2Y+Q2mVX6HvufUqqqqkGdchAUoFWr+/LqxPM8W4XGwmQtpJtrA8Ndh7FEFS5A9RtGVTNI1yVXhLx0ONrWiouKjcG0lIkApUqvxwm/xyIdLxPb3c2AXpOfdkJ5L/D4meEg26ZokqrCAj/lPAo0SQjWVqAClSBjV/Q3GOu4JlYDtd4YDYPj9YPj/nvEx31OygZU4bE0jCe4ZjNr+e7QW0m4eNFQEj0f8rcvFekM6XBvqve1HHBDn5ufnPWN2XgTOuRKtEmAtOtAUOOdqpWkcfMhfg/knaaVRnSIJSqlAio5D3+rXAOl5UVNNuQDcX71e7oHp09sPk1uJFbZ0TXxtAZyfwiD+fkjP5UpyUwxQSmzRokXXIXFMpnIDlSSeGmHEf+FwuF9MnXrXZ8lU3mQaaJKlq/GqsLgJQg5tZeqrStuKKoBSoosWPfcjWMiQveDZSjNJ3nDcxyjbw/gaLkveMvpKZkvXuGv4G6y2mjl16pTfq0lJNUApcRgxkIUMzfOlMEg5UlEeBTjfxj2lnF+6WtReWK6sUcPOlR8Tff8GGcyGMcILajOKCaCUCUB6K1TdhzA4kopzpMt4nn+ssrL8PbUMT8bwVpSuNL+qk8r7Fer8sWgrmsK1i5gBSgnW1i6+FgupHwBILwiXQRL6Y70s/3hVVfmKJCxb3EWyClj1ASj3MRaGP44P+WuxMjYugFKmGDi6QBT5/8Tj9bESYZV46OAvAMOfgOXHNqvQbCSdflXYhNM4Oqi3f+M44QkMCNE4RcwuboBSzthE6mxsIvUTDCHPwDSMO2ZqTBoR5cIZqjRvJWByuarRpGSaniySruga4MhLAV0j4xyN6g4s7pMQAtBWmoGBuTTPCXNP6nvG5TQBqEwBdmOYin7pdPwfJvtZ/Q6GvwOGz0MfIurCa6uXVU/6Z8557GGvx3vXqdNNffTevT+B6u3n6O6hrVSS/bomTlOAEkV1dXWjPR5WgYZdgb+ap69JqZUlgu3kxec9Hu65GTNslVYZy9SFmju3rq/TKU5BM7kLOyBK+/jL1kHqUlIXemBxsXRygLpYEUNDwWJ1TierQ/dnZcSQKl8mDEALFtRic2PudtBzsUqaDA8Obv8FtP8OUvOfhhOTAgRgRuAqFJOm7rDVDmOJ3l9Y4/7nu2gvL2Lt74tEu9YuYQAlQufPf6GQ55tpa8ab8JUcpTXxWqeHr+A7WF73ssvl+MNdd911Wuv07fTCc+D5559Pb2nx3orTP26G9nVpYEgt9xfWTr0VyXLsT4LgfnnatDv2BtKr5XNCASoTSoNIsFW9AaOg1wGoZpySeQO0YvrEiy0yq47JdNt3/TmwcOHCPBxuQJKUZgUmBVMQr3SNH6DixzB3fdXhEP+qxSBQcPmC/+sCUDnT+fNfLHA4Wq7EKN4kqJBXwD9XfmfAfRfyfBvqyRsHDuxdWlNT02wADXaWYTiA+nB361Y4Ge2EQHoZrnYHe8VyTGRs6i13HMcBvokR6De8Xtfr06bd/m0YsjX31hWggdRj/hQqL38RDB0mohJoc7KswPcJev4O6dZDhapvaRGXzZhRSVYetjM5B+bOrR3kcnET0QUpgwY2AYN3BaFIjiZdVU6vnMTHeznmvZdheu09zGeSSqu7MwyggSXFmTDDoP6OAkNKAdYReDcEV3ZgmBifj0AdWYc5qXWo3NXYOe3TUDunxZi2Hc0ADrTuOHkePrKlmHsfjnYzHGR0DCZFlq6Bo8JR1NsGpLERbXAt2uBqtJvPcEYKpk2MdaYAaDAL6AgKLOHqBwlbjIrojS9mIe7dADKqiHz8T8c7B569YGgDGHocFfUdng/ieTek8g58abeLYssmbKOvmzoSXA77f+I5gLZSwHEuLH8UiyHtitAGeqINdAXAuuA5F8/0oXfsO3ggE7a3pEF9j7aEDzc7gDayF/edkJBoK56tgUcuJJ5yZTn8PwhMqgoTZJRIAAAAAElFTkSuQmCC;imageBorder=default;" vertex="1" parent="1">
          <mxGeometry x="180" y="600" width="123.73" height="80" as="geometry" />
        </mxCell>
        <mxCell id="Az45LCxhIKdniQeji25l-9" value="" style="shape=image;verticalLabelPosition=bottom;labelBackgroundColor=default;verticalAlign=top;aspect=fixed;imageAspect=0;image=data:image/png,iVBORw0KGgoAAAANSUhEUgAAAOgAAACWCAYAAADUgcTJAAAAAXNSR0IArs4c6QAAAERlWElmTU0AKgAAAAgAAYdpAAQAAAABAAAAGgAAAAAAA6ABAAMAAAABAAEAAKACAAQAAAABAAAA6KADAAQAAAABAAAAlgAAAAAy237FAAAlDklEQVR4Ae1dB3gcRZau7plRTg6SgxyE5WyDbckBsA0yYMBgYAlH2gWDLFkOLMftAXtEywbubtlbYFkcJeyFvdu8y7L2EhcswAQbHLAxzkHOOSpY0kz3/a9HLY+kCd0zPR1mur6vp3u6q6tevaq/36tXr6oYs4PNAZsDpuWAw7SU2YTZHAiDAyUPPVRUMGr00oIxo6vXrl69J4wkTPWK01TU2MTYHIiAAyWzHlrBBFYkJSFKZy6C5EzxKm8KKuKQCPrSx2Gxo1LkkpkPleMQmReULXnQ/ZY/Fr2w/BfGKnxvAaTIZksNiWNVlfNem2AV+s1Ip8RTmZ+BCOTZhMrXXqsK9Njs920VN0o11A6QQpuM2nzt2zy1/wbhQAswZXU2SFx8DGfjcVWwKGZ+ZktQjWqnHSCVpGvxr7uSImodR+pnqv24WZjPtgQNswW1A2RbCakkXYt/3ZUUUas4zf1J6h6oDxbmsw1QhdWtCSAV5mVHu8CBFnVWrdS8kASjPj+lY8W+qA1Q34r0udYFkJE0Oh9aY/GyBZhK+plKGCCwFYhmuS6d5Qj2VxfFxcXpgiB05QW+C6oghWOcC2cPvpznBLdwys27q++44w6e8zQUcDyfKgpCLc+Eo5Nvu3uznF47QMoPon22cP8oWqwJq5+pjJg5lfNfK1cW1RyxLAnQqT+a2pfxbDQv8iMx+DUC1/0Bxu7+WJqZmc569sqtz+3RlSUnJyXLcURBPHm+oXH9lt3VXar3Hxwi39f9bA+3tLC8pZ/ZcicKFxb7IFpKxS2dUnozAHkjvEWuQ9X1Frlmi0EAw0HXrtls4KC+LKtDZgsw5SrneK5jcnLiVUP6XcQSnA62fc8++ZF91pkDLeqsHiq/xQxGlgAogHk72sxdoijehrNDSU+iQ+cOrO+APgTOoM0tweVig/v1YR6PwHbtOxA0blQe6tEoo0J45Im2AFOrfmbkJJkuBVOruFPvmzqU47hp6FOWQHK2k4J+uZmcAAjzbPjg/iyvh1+t1+9rZ2tq2ap1G1lt/Xm/z6N602Jqlxa8iGI/0z956Ergwz7HapZc00rQ0vtLbwWnfwxgTsDhn+n+7gKcHTIzWPcu2f6eBryXkZbKuuZ0Zjur9weME7UHFlO7IuWD7uBkAOY8axmHZB6bEqBT759KEvMZENlLJlTxGapqWkoyI9VVbejcIcsYgKol1OrxIclobFKHYljOatuWJ6abzULghEo7G4SqByeVrtHNkhKh5oYRkpMSw3jLfkUtByQ1k1TOaAVKm7oNFhtS8ccOU0lQUmubJWcPf8RG+x76u9HOwpu+3Dgt2CfSikE0k0eaIqZVgpSORfuZwVhgGoDCUjsEVtqHQGx4klMuJVRc0wUbkIGqZA4ekLakRbBsPzNY4U0DUEEUiqHaXhWMWMXPRBVGJcWJqohoA1IRs0gFhcHoygj7o5bvZwZjlikAWjyl+FpU0pRghKp6FqYUDVvF9QFk39Qe6xoTEnqJHr4rPhM95j71ysOgPQse26kCE5MY452m6/irYu6FyNB4RMZzjaIo1KNM5+CddQp9v+MO5jwkcvwhj/NEdXl5eXCVJlyDUQyqsxc4e+FKp07XhQz9XZVMKXkNAJ3l71k49y7K78WGDRus+tXDx06wrzAWGjI0AzLZlbw4Jy23VhDEi9H/GYQy9EcD7YczAGkHcKAaxzbYFbYCwJuYwG2s8TRuePHFn57z5Y6qYZc4AabMH8MlqORXK7LrZYK0OJ893ar+FSd5+myA9wTBDUmxwcUnPdc1M9cDsXEpJwpjGMfNE0SxQ4tnE33uDNauFRdWn4i9kU1vdF0mSmwBSlP5hK1znnr5G9xbjekMXz773498TQ4E4FuRApJisp8ZrNyGAxQSZzQIzA9GpNpnZ86cYwePHFPlrFB/voEdP3nam5WsImPIhnmvnelpnWuzMnNegKlwMEco1Mviq7bw5o8/ACQOgFT9IedgTQBrFdi54sCZPWsF0VMQgPyY7mcGKLN023iAMlYYjMBwnrndbla9ez/rlJXJEhWOie47eIgdP3hUBmS7bNF4xpMd3w7acQCfOfImmQi2TszNyju979TO1onHmTrbuvDef1A6jA1QdaIy1esIJOjW3dWssbEpZAH37N7HqrfvDQhOSqCpyQAf3ZCUx1SErMzkjlKBEpyJZzskd17cI7tPqdV8Z7WuEcNXli8cVvgoCtVV64IxGBhP1dezmrp65nI4WFpqSrss6uEYv33bLrZl8w7W0NDY7rnvDbLwpqd38r1lX2vMgURnMktyJbPM5E6JCc6kQk7giiaMv75T0dXXHaqqev+kxtlZIjnDdTZ4D+1GfyQvKtyC4zz1IRMTEzHtLIPR5O2EBJc0tay2to6dOHGK1dbUKcqa5x0sN3egorh2JG05AFX4G3wf30xsanjzP372H2e0Td3cqRkO0JL7S7aARWQ4MHVwOJyse3fTk2lqHkZOnPg20lg6+4Wf0DkuguEqbsGwgsngdF+zc9vlSmJpaR3MTmaM08dBheGuKbriuqyiy2/YUfX5ezEvTc1gJNpuhVbldIY3Q8YKZbMYjZ1hWHySOT3z5jz58iSL0a6aXMMBCorXqabagBcSEuClZwfTcAAgnQzD3a/Kn3qJJljEbDBcxYUVtxbcvQtHqpm5nJmZwxwO9ZPAzVymGKCtI4AKlXdS6rXjbtjw0cp3lVn8LFRwwwG69tu1J9APJetLIC8Sw9mZkpJhD7EYXgsBCXDA0jkOKzx2uHLs9ZuqVr5/KmBMCz4wg4oLRxKOrHIes/IvOTnDrKTZdDVzAEMxJbyTe2HuMy9dHEtMMVyCEjMhRbcVDC/ohsuRZmNuamoWpGdnuN4aPiJlNtaYkZ6h8OvNKRp343dVK989ZkYC1dJkCglKRPM8X4HTGrUFiGZ8stwSQG1wRpPLWqfN3c7xnmfLn/hFf61TNiI9U0hQKvia9WsOjRg2ogHq7lj8NdxghA8Gy8jIZikpwRe+NqLS7DxDcgDrKfMp146b/PlHK9+pDxnbxBFMA1Di0bpv1307YvgIN8/4K/DXUJMpgZNUWztYlgMFAi+IVZ++/0/LlgCEmwqgxEiA9CsMvdTDP3ckpGl7D/coc1uWnHa/M8qM1iN5kY296opJJ1Z89t5qPbKLRh6mAygVEkajLzH0cgQA7YO/XaJRcH9pUp9Tlpx2v9Mfhyx2Dw0IFPctuvK6HZCkOyxGvUSuKQFKlJG6W3hJ4WYAhWgcJlEbxR/qa9p9zigy2LikOwGnmUWXTf6k6vN3A6xpYxxxoXI2LUCJ8LUb1lbn98//e5IzaS/+ZuB7mEf3tQyJiSkAZmcJnC5XopZJ22mZhwMDOF44V/XZ+5+YhyRllFhmcG/aPdM6iy7xZqyfewOk6tUoXtgr55H6mpSUhiMdm/qm2S58ytqKpWOhoe9DtT/wzPP/9rGVCmIZgPoytfi+4pEw5lwO39gfQH0Z73Y3hlxbifqX5PCekJCCCdwpOCvbzdA3X/va2hwAQN989vlHHsCUNTgeWSNYEqAya8ufenkpVth7oKmpkdHKmB6PGyudYHlosB+VgQMDNlgJwel0SVKS/tsh3jnA3T37hUf+YBUuWBagzz39ymSsSUuM1n0oxiqVa9PZngP4eP+VJZy5CyveY01V8wfLihSPKN4O9trgNH8bMxWF0Kxu45rSbzEVUUGIsSRA5z7x0niI/h8EKZf9yOZAEA7wNkCDcCfyRzxPW0WEbcWNnAA7BYtz4Oa5T7wyxgplsJwELS9/qSPcAK+1AnNtGk3LgUxsOTLRtNT5EGY5gHJN7ErQb7p5oz48tS8twQGRxtJNHywHUMbx2CPFDjYHIubA+LlPvExTG00drAdQQRxnao7axFmCAxgqd0DNNX0/1FIAnfvMLwvhjzvKEi3AJtL0HMA4uunbkqUAKniEmFoQyvQtOMYJhE92IRwWTL0iuSk9iRYtWtSL5119RVHMx5bVvUSRy+U4sYu7SRyOe93JjU+a6Qc9hdz6REGEq58IVz+csVmSx41rt8DcTYJ0P8bbWVwXj+c55nTxzOGkg2M8NsxyYCFOus/REaCtSO0F7SQxxTk3MdH5iSA07SgrK9trNmaaAqALFy4ZDOCN5nkB1lmO1scdiiM9UmZRJbgbBdbU6PEeDQCvvHt2pInb7xvCAQKiK4EOh3Q4cU1g1CDQXNHv8LlfKwg8dlPjVk+fXvy9BulGlIQmJQuHgoqKikJBYFcBkDRscjmOqO9MJEDCNja4WeN5D84eScKGQ7v9jr4cIAmZkOhgCUk4Ep2Qkro021Mo5RcA7CdYP+7j0tJSQ1ac1KWkcnVWVlZ2BChvhFp6A+7RxjeZ8jO9z6QCNwCoDfVu6dA7fzu/0BxITHYy6QAwSXIaGGgXtXehLr8DsP6jpKREt82EdQHoggVL83jecysKSf6ztGKfqQKB9HwdDpypP2sH4zhA/cYkADMpxQtO4ygJmPOnePI3QXC8NWPGg3sCxtLoQVQBCjW2C/T5e0Dr3VAVTD/m1HAeIK11s/raJo3YayejhgPJqS6WlApgJoWcf68m2SjF5VYh4d/DbvI7qL9HopSJZAuNStoLF1b8CB3t+5C45fxmSZoSSEmy2iH6HCA1VgInpKYFwwcwcP5m+vTS/40G7ZpL0PnzKwph5i4FsXQY2nGIhGFkUKoDSOtrmqQhm0jSst/1zwHqVyanuVgKJKdOhh//hER+V0ASFRjmq5g5U1tjkqYAXbSosgQd6ekwAhVGXmZzpEBStA4gtaWptvVBUjMl3WURdVZZ2dH216DtLywrK6lU9kboWJoAdMmSJT3dbuFhEPcwsjS1Z0ZolrSPQdK09lwjq8OBMtohAg6Q40BKOjalwmFxqRmIC40o46tOJ/9qcXHxvkCRlN6PGKALF75+GWPCT9DfvENpplaNV3euSQIqDdHYQT0HSKUlYJLkjIPwJ3jAvTx9+tQvIylrRABduLDyJowL/RRSxfTTdiJhku+7ZECqPdsoeSb53revg3OAPH9SMxKk4ZPgMWPnKSTp5xj3/9n06SXLwi1V2ACFlfYeLGP5BIZP4s6BnTyRas42SB5J4TI+nt4jD6C0jETJEyieyu0tK7cRS8H+F6y8vwun7GEBdPHiyvsgNcuRYZ9wMo2Fd8hVsOaMDdJQdSmBMxPghKteHIddkKbl06aV/EYtD1QPg8BSey/A+SwyiltwEpOpwaVRw4N0sIN/DtjgbOFLH8JMRcUSctpRFVQBdPHi129G6k/j6KsqlxiNTCClfhX1r+zQmgPEkzTwJs4lpy9T+gqC8EwzhnzvB71WDFA4usMQJD6O1AYFTTHOHpJbGoHUYGduU3FdstYSOC3hsqcr64Ad8XEvlpTlqwig8Km9yONhj8aTtVYZ+7yxyLE7NT6GDhSxhXhBPLFDew4QhghLhKn2T9vfUQRQmIrJAcFeyb09/1ruyIPvLTfi9MI7zhlzvipa1+YPmjEVMt2QAIUjwnRMqiaA2iEEByTXNbiwxWuQ3ffitfzqys097MVW8LeCAnTBgsqxHCfMRBJB4wXPIn6eUt8rBc7ftCZOvAUqs1R2YydWW4ntPGGLMBaM6IDAwxQaDmu9TIX0jDtHhGAMC/VMmjoFkMZboFkpVHY7qOEAdzFhjLAW6K2A4wPduvWYisHV2YFetO8H5oDD5cB6Rx5pdcHAsWLniTTemZWk1eJdscMYZSUZ8c03a/ctX75snb/ofiUozMC94fz+gL8X7HuhOUDqHk1AjpdAZY1HtV6r+iWsEeb8pecXoLAw3YvI9hYL/jim8J6FVwhQWEJvNBpOiaePkSrmKI88rhlz7d5oB9D5818fgFhYQ8gOkXKAGi66CTEbqGw2ODWr3rubsdcqwXYAdTiEOzCYekmrWPafsDhARpPElNhVdalstmEorKbR7iXCHGGv7YNWAJ03b0lPWG1vbxvJ/h8+B2gJyVgNsVw2Y+qMu92LwQu5t2o9TqdnMgA64sJj81y5sWXD4eNn2Lna86yuvpFhZyrmdDhYcqKLdcpKZR1xODB73GxBkqLwSaUlPWMpkA+yWaWnBx26k6dr2Qkc9Q1NzA3fOgw6spTkBJaemsS6ds5E2zFfW0H7GOHFIFsgt5VWAEWbv8FMfSZi8Nbdh9m26iNs595j7OhJ2j7Df+jVrSPr06Mz65/XhQ3p150lJZhDtSR+JiQ7Yg6gVCYztZXzjU1s0/aDbNueI2zX/uNs76GT/hsK7uZ0TGf5vbJZ/95d2ICLukof+ICRdX5AGESWLQBtMWHAebdIELj38dBwR8r9R06xdd/vY99u3cf2HaYtMtSFvr1y2IhBPdmooXksMz1Z3ctRiE27rJ06WiftvhaF5HVPkoZUOuSkSLuK6Z55mwzPnKtnX3+3h63bvI/t2Hu0zdPQf3t27cCGDejJRgzuyXp0ifr2QKEJYqyR58XrsBh2FUVukaBYAf4qTIUxFJy0G9lna7ezlWt2BP0ChiolVRQdG7cfYFcU9mOFQ/wOMYVKRrPn0uY/UAljZcV6mkZGZTI6rNlUzT5ds51t2XU4bFJIANCxYdt+Nq6wLxtf0M9oh4sELxZZFRVKkqB//OMfHSdPnl0BlWV82CWN8MVjp2rYR19uZitWb40wpdavU59jwugBbMKYASwlybjvDy2Afebk+dbEWfRfZsckacFpo8ivO9/IVqzaKrUVskloGaitXH3ZIJbdIU3LZFWlBTX3s44dMybceeedHsnVb+LEiZcBq3NUpaJh5ANHTrO/f7yefbF+l4apepNqbHKzreiXNMH1rk/PzszlDOjdqHnevgnCW0TaoAnMt3SgvThpqRej1rQlcC5bsYG9t3ITo7rVOuw5cIKdOVcnGZIy0pK0Tl5RemgqvRsa6t9ftmzZPklPEUXesI2NyPDzzqcb2Zrv9yoiPtxIH6/awpZXbZCseuGmEcl7pBK6YmDhLCqDUeotWWSpDqkuoxmoLVKbDGaUjGb+lLaMSbkjgZ2t9Q9Nbg/78Ivv2TfoS+gRPvpqC6vSWIVWQzftDG31YGQZqO6oDvUI1CapbVIbNShImHSUl5cnpKdnlIOIbL0JqVq9DV+q71RlWzCoC+uWnSYdh47XqnqXItNYajbM7DQWpnfA8Jyk5uqdr5b50coRRkjQ9Vv2SdLzfKP2am0g/lQfPMnSUpKk4btAcaJ43zFyZEGlMzc3dyAazuAoZuQ36f2wnK1cu8Pvs1A3CwZ2kaLI57VbjrBDx2rZoeM1oV5lp2GW/wxW4n69c1hqcmLI+FpGkKQPmeWs2g8F7UZI0Nr6BqnOqO70DtRGB2BsvQeGY3QOgwmbTui6A41oMas27mYHj55WXWYZlL4vSvdQCgoEVum82XuW/rT5+Q7DL998V82uHNW/zZPo/qUVF7CpDuaKWnNvF6LdiNULqa6ozowI1EaprRoAUOqHDsQ4qJivd8EPHjuDwWX1/c5unUObvmUA05lUYJKq/qQrqUxXjOwHbxgSafoFauBWBagR4MRqA4zqyshAH4jLhuez7tl6d4vEfEhQLk9vCbp55yF26oz6/mO37FRV9dStcyqjg/mRrt+Dhk07DrKh/XJVpRlpZCMaeaQ0y+8bQTvVEdWVkeEk2iq1Wb0BStgkCYoZLPoG8q0NJyiRoMHSbStdjxw/rj9ALbygmBGrJmyvVu++F6wNhPuM2uzVlzZ/6cNNRPV7Yk8CKCwu+ql5Z2vqWTUGg8MJkjQM50U/78hpff3tBulpblev4al7F+/Zzyua3DJqgF8L4o2gfXeYbUWL8vqmQW2W2m5Gmp6+3WIXAJTL8SUk2tfk0nfqbJ3qbGh4JZrhwGGvVKdzNMFKnjhWDXrTTtbbcD/mWvOY2iy1XX0ByuUAoCxd68IES4+mkJk9+II1PS0NlZKKeYRpLB3nSIPeRqlI6fV9X2/aqe9H08jMEqjt5vfU1V0gXXeA1uGrGE6Q+4/hvBvJO+dqahgdjHklbKTSlbOwM5HetDfo6JSgpI2E23aVpB0gjgRQXZsMrYygNkRqHFKbX7D40ZSuwfKNx2fhtJVo8skAengMs4huqC4kSXUJjjCWmlA7vKJLQZBJWNLVql5ExFSdaadlSswUwmm7kdBP2HTSLCgkEtoDIJKcfN5NS1HvXmcmCepTlHaXvtI1kCps5elmetOutytmuwptcyOcttsmCVV/CZtkxaXFW3QDaFZ6iioiKbI8JKL6RQNf8AUrkUGAJUNTgkP9B8rAYrTKmrx69AzpqYnwl05gtVgkzgwhnLYbGd3cSVJtCaC9IktI+dvd4C6VgVUOzqqYCV/51gYmD7MYZSxSXkL/Mb2A9RqaeM7xc4rVPTv3Rf+xzXkXe7C8Csru0Ys6GtLonpPFzOCsQG2W2q7O4SSpuAfxYRyuV8akJuRjUa91m/eqynJts/O7fJamncE314rSVRA9j1Hh9x/d+xicgavgFf0JFsKpqnztlSpVTNE58qJFr1fr3RGlYQ0zAJTarAEq7kEnppod0LsvTlO91AK0bVv0AtUrkSwtXUWxCGUrYoIwu2Tmw1TMOfRTOf/VcjqbKYii5yCn81hLP0z1ouVNjA7UZvUOhE1IUG6P3l9Fml/XKSsNCwuHnr+phCmyVKUzGZTI6iudyVHeemE2kQywzpalq3nAyqlTezTgPbWVwfndDHWYp7ZKdOgdCJuk4u7Que8vza0rGNxLWlJC60JL08ukiduxI10lsHoZZah0xeyKnXprW7TI2/CBPQ0FKLVVI+aDEjZhJPJsM2KH+1FDe4PpBxmt6BfN4E+6WtXQBD5dkK4GqMJJSY4djY0eWgajbzTrrG3atAj5xm0HpHWO2z6L9v/cLllYAL13tLMJkL5nm6OwsPB4enrmnYjROUCsqNwmkzXtmbFph35z/WrqGtm5OjcbMQSLWQ/tL21dkAFf23M15vcP9lMJRbhXVDBqTHnB6EvpfFHBmMvY2tVf7fETV5Nbb7/9tnvy5JsmQPUapEmCChNJxDYeCQlOaYHqRiyfqmeYNH4IdinQbZDDp2jclkOHDsxxVFVVCTfddPPleHKxz1NdLrtnZ0kbIVUH2UdDa0KuHz9UWm2e0iVHeDpojJJUNwuDNQ/FKYI1+AEJsKPGcDgXrf16VRXuaxrQVrBODDdB00QVJEaLvJGr3dbd3q6LglcijkK7Elw3bgiWqTFkLeUPHn30J3+mcVDUq7AG1jnaVVvXkISdya4dN5jVwIF+bZTXxaWC0ery11zq/+MvzwOlM0nUc7U1mP+Hs+QorytbtMjsgiqs8TAOx4nfoC+qBY2q06C6o5XkaVX5aAfqd1LbpDZqRCBMUr4SQDnOsVpvS65c6OwO6WwSpBqFaIKUwHnDFRezRKhKoQJNK6Oje7Ph7uAR71db9g4K9b6pnms8jANvoq9hVNwKjWOA3uWkuqM6pBBNkBI4qU1S2zQqeDHJmCS7sf7m/oyMjGtAjBHKtrQDWV73Toz2daw+eEJTniRjP5ZJUFOoYsP17fRVhUkNTkykPV441thoDhc0lQwrQnxv3zUMVXj58uV1N998Czm2FKjMV5PoBFJyGiC1kzY9cmu8sDSt9HhT0SVGeA218Acfv88PHdo/F93PC7rK4sWVz+HL+HRLLAMuaK+Nz9ftZF+u3wmgBt7fUSlpA/t0ZWNH9GWjL85T+orqeJaWru1LO0eJR9PCha/fD1X3jfav63tn9cY9aC87ItrdTKa4d/eO0sp9Y0fkswRXaC1Lfi8aZwD0+WnTSp6htFs6E837g/4T9wzpEfsWlIZeaOl98jY6hCU61Ya83E5s5JA8NuaSPF2XqIg5sILx/pwk0FZ6YC9Zaiu6q7lt2wKtE7Rqwx60lz2MNj5SG8i/lqy0I7FFJQ2pmCB4sD/oNfL+oC0AJcLwZVyGL+NkExApkXDkxFnsmOzd63PXfuywfSLwDtv0BewNNbkfdk0mzxO9/Sb98YwAa2FD04Ui+TE0wS/3ZdgtHrkQydirmroGyZlhO1bfo25SMA0sp1M6tnPIZrTRc/+8HNalU4axxPvkDgPc8unTp94k32oFUKi5M6HmzpMfmulMm/uSNKUvJi0m5cF/8jKhPT87dUhlneGOhfE5M5Es09KEL+KNq9ZtHNt8Q7Kwyg8tep6TlpLSZ1C/vneDfmPMnEEYR9PijsON9MSpWkbbFdIGSA4s1kY2CJohQ1JT7wXQgpDb6hGa8Cyot/Plm61a9IIFC/J43vVXPBwhR7DPEXPgT2VlJeQI0hJKHnqEnOOL8EW5EmNcRS0PLHghL6omD1NZsAhmInmdIDTdNmPGjD0yUa0ASjcXLapA55SbK0ewzxFz4IcA6G+DpQJf2/Lm55aXroFWkghWfvuZzAHx2bKy0ufkf3RuZ67ClKK/YAzmXwDSi30j2tdhceDv8HX+W6g3fQwx5S3StdnvNtS7ZnsujxXT2QarmtoRNxL22r7RToJSBBgAnoQB4IW2ke3/6jiAvtC906eX/k7dW61jx4p0lVVhrdYXbs2lWPjHPVVWNvU/25bEL0CXLFnSp6lJeAORx7V9wf6vmAO/gWo7BbFFxW+EiBgrYKVi2tK1VWWvdLn4KcXFxbta3cUfvwClSIsWVZbgVEHXdlDLAfEQDIlTID0/VPum0vgtqnAMGZriWLqW4mNe6a/uAwJ0xYoVzu3bd1agoT3g70X7XmAOgGdzp08v0dXgY0vXwPVh5icYVvk1+p7TysrK/O5xERCgVKgFCyrH8jxbjMvBZi6kmWgDw9+Bs0cZPEH2G0VXLEnXGFeFv3c42LSSkpLPA7WVoACll5qdF36FSz5QIvb9Fg7shfR8CNJzWcsdE1zEmnSNEVVYwMf8x75OCf6aSkiA0kuw6v4Sto6H/SVg37vAATD8MTD8fy7cMd9VrIGVOGxNJwnuVVht/zVUC2k3DurvBbdb/JXLxXpDOtzi77l9jzggzsvKynzV7LzwHXMlWiXAWtTQ5DvmaqVhHHzI34b7J2mlIYMiCUqpQIqOQ9/q5wDppSFTjbsI3F88Hu7xmTPbm8mtxApbuka/tgDOr+AQ/xik50oluSkGKCW2ePHiW5E4BlO5gUoSj4844j+xOdyT06Y9+HUslTeWDE2ydDVeFRa3QMihrUx7S2lbUQVQSnTx4td/CA8Z8he8SGkmsRuP+wJlexpfwxWxW0ZvyWzpGnEN78Zsq2emTZv6f2pSUg1QShxODOQhQ+N8cQxSjlSU5wDOD3COq9AiXS3qLyxX1qhhl8iX0T7vRgZz4IzwhtqMwgIoZQKQ3gtV9ykYR+JxjHQFz/PPl5YWf6yW4bEY34rSlcZXdVJ5N6POnw81oylQuwgboJRgRcWSWzCR+nGA9PJAGcTgfcyX5V8sKyteFYNli7hIVgGrPgDlvsDE8BfxIX87XMZGBFDKFIajy0WR/3dc3hYuEVZ5Dx38hWD4L+D5scMqNBtJZ4sqbMJhHB3U279ynPALGITIThF2iBiglDMWkboIi0j9GCbkWRiGSQibGpO+iHJhD1UatxIwuFxWZ1IyTU8WSVd0DbDlpYCukXGBrLoD8/tEhQC0lUZgYB6Nc8Ldk/qeEQVNACpTgNUYpqFfOhP/h8n3rH4Gwz8Ew+ejDxFy4rXVy6on/c/Mff5pj9vzYP35hj56r94fRfX2W3T30FZKyX9dk6ApQImiysrK0W43K0HDLsFfzdPXpNTKEsFy8uJSt5t7fdYsW6VVxjJ1sebNq+zrdIpT0UwexAqI0jr+sneQupTUxR6Yny/tHKDuraCxoWCxSqeTVaL7szpoTJUPowaghQsrsLgxdz/ouVolTYZHB7f/DNp/Dan5D8OJiQMCMCJwI4pJQ3dYaoexaK8vrHH/8yO0lzcx9/dNol3rEDWAEqELFryRy/ONtDTjXfhKjtKaeK3Tw1fwQ0yv+73L5fjtgw8+eF7r9O30AnNg6dKlSU1Nnnux+8fd0L4m+sbUcn1h7dRbkTzH/iAICb+fMWPKAV96tbyOKkBlQsmIBF/V22EFvRVANeOQzLugFcMnHiyRWXZGpts+68+BRYsWZWJzA5KkNCowqS0FkUrXyAEqfgF317ccDvEvWhiB2pav7X9dACpnumDBmzkOR9MNsOJNggp5Pe5nyM8MOO9Fnh9APXn38OEDy8vLyxsNoMHOMgAHUB8JXbvmTkY7IZBei6Pdxl7hbBMZnnrLncV2gO/BAv2ux+N6Z8aM+48GIFvz27oC1Jd6jJ9C5eWvgqPDBFQCLU6W6vs8StfHkG4VVKiqpiZxxaxZpeTlYQeTc2DevIpBLhc3AV2QImhgV8J4l+OP5FDSVeXwSi0+3isx7r0Cw2sfYzyTVFrdg2EA9S0p9oQZBvV3FBhSCLCOwLMhONJ844R5fRLqyHqMSa1H5a7Bymlf+Vs5Lcy07dcM4EDzipOX4iNbiLH34Wg3w0FGx7akyNLV1yocQr2tQRqb0AbXoQ2uQbv5GnukYNjE2GAKgLZlAW1BgSlc/SBh81ERvfHFzMW5K0BGFZGF/0l45sC1BwytAUPPoqKO4foIrvdBKu/Bl3anKDZtwTL6uqkjbcth/48+B9BWcjjOhemPYj6kXR7aQE+0gS4AWDauM3BNH3rHwSOHU+B7SxrUabQlfLjZYbSRAzhXQ0Kirbi3+265EH3KleXw/5DYEnV8BfWWAAAAAElFTkSuQmCC;imageBorder=default;" vertex="1" parent="1">
          <mxGeometry x="40" y="700" width="123.73" height="80" as="geometry" />
        </mxCell>
        <mxCell id="Az45LCxhIKdniQeji25l-10" value="" style="shape=image;verticalLabelPosition=bottom;labelBackgroundColor=default;verticalAlign=top;aspect=fixed;imageAspect=0;image=data:image/png,iVBORw0KGgoAAAANSUhEUgAAAOgAAACWCAYAAADUgcTJAAAAAXNSR0IArs4c6QAAAERlWElmTU0AKgAAAAgAAYdpAAQAAAABAAAAGgAAAAAAA6ABAAMAAAABAAEAAKACAAQAAAABAAAA6KADAAQAAAABAAAAlgAAAAAy237FAAAms0lEQVR4Ae19CZwU1Z3/q+ru6bkPbhiOgeFGgzACHqCDBq+gSdQ1ajaiwwwzgPrPZqO7xoMBzbHuP2pUBGYGWHV3k82um7iSmOhGJgkYQQEDcl8zHAPIDXMw091V+/1VTzc9M31UdVXX0V3v86mu6lfv+L1fvW/9fu/3fvUeY3awOWBzwLQccJiWMpswmwNxcKD80UdLJ0+ZunrytKmNmzdubIijCFNlcZqKGpsYmwMqOFC+8NG1TGClUhGidOZUFGeKrLwpqEhBIuhNn4LNTkiTyxc8Wo1DZH5QBuug+OAfi15Y/g1jFb4HASmyRVJH4lh93dLXZ1qFfjPSKfE0wM9IBPJsZt3rr9dHum32eFvFTdAT6gFIoVtF3d723e7af6NwIAjMgDobJS1ehotwuz5aEjPfsyWoRk+nByDllGvxt7ucJmqdRhpnKn25WZjPtgSNswf1AGR3CSmnXIu/3eU0Uas0neNJGh4oDxbmsw1QmY9bE0DKrMtOdpkDQXVWqdS8XASjMT+VY8WxqA3Q0AcZcq0LINV0uhBak/EyCEw540w5DBDYWiSz3JDOcgSHexZlZWU5giAM4AW+Px5BJsc4F84+vDkvCl7hrJf3Nt57770852ufzPF8ligILTwTvpx99/07A+X1AGTgRqLPFh4fJYo1cY0z5RGzuO6N16vlJTVHKksCdO7fzh3JeDaVF/mrMfk1CdejAcZB4Vial5fDhgwtbCscPIBlZKRnBNKIgnjmUnvH57sONvZvPNI0IRCv+9mebgmyPDjODMYk4MJiL0RLqbgVcyruAiC/Bm+RW/Hoholcp8UgguFgwIC+bOy4kSy/IC8IzMAj53iuV0aG+6YJo4azNKeD7W04HLhln3XmQFCd1UPlt5jByBIABTDvQZ/5liiKd+PskDOSKOhTwEaOGUHgjNrd0lwuNn7UCObzCezA4aNR0ybkph6dMiGEqy80CEytxpnqSTJdCaZWced+Z+4VHMfNw5iyHJKzhxQMy82MNECYZ1eNH82KBofVesNmu9DcwjZs2cZa2i6FvZ/QSIupXVrwIoHjzPDkYSiBF/tiq1lyTStBKx6q+CY4/RiAORNHeKaHiwU4C/Jy2aD+fcPdjRiXm53FBvTrw/Y3HomYJmE3LKZ2qeWD7uBkAOZSaxmHAjw2JUDnPjSXJOazIHJogFDZZ6iq2ZkZjFRXpaFPQb4xAFVKqNXTQ5LR3KQOzbCc1bY7T0z3NQuBEyrtIhCqHJzUug4vS3dDzY0jZKS748hlZ1HKAUnNJJUzUYHKpmGDxaZUwrHDVBKU1NpOyTk4HLGJjsN4N9FV+MsPdE4Ljom0YhB9ySN9IqZVgVSORceZ0VhgGoDCUjsBVtpHQWx8kjPQSqi4pgs2ICM9ksW4QdqSFsGy48xojTcNQAVRKINqe1M0YmXfExUYlWQXqiChDUhZzCIVFAajG1WORy0/zozGLFMAtGxO2S14SHOiEaroXpxSNG4VNwSQI7MGb+lISxsq+vgBeE0MXvL0K4+D9nx4bGcJTExnjHeabuCviLmXE0PjERnPdYii0IY2XYR31lmM/U45mPOYyPHHfM7TjdXV1dFVmngNRkmozl7m7OUrnQZdlysMd1U+p/x1AHRhuHvxxA0vHsomThyvOOvxk6fZJ5gLjRk6AZnhyqjpl13YIgjilRj/jEMbRqODjsIZgLQDONCIYw/sCrsB4O1M4LY1+zq2vvjiP1wM5Y6iaZcUAWaAP4ZLUMmvVmS3BQjS4nzhXJfnL7vIcxci5BMELyTFVhef/vyAvEIfxMY1nChMYxy3VBDFgqBnE73uDNauZTdWn4TDUM0wDF1mSWwBSrP4tN2Ln375M8RtxOcMf3nuJ9/9lBwIwLdSGSQl5TgzWrsNBygkzlQQWByNSKX3zp+/yJpOnFTkrNB2qZ2dOnPOX1VARcaUDfNfO3Oy+7Tk5/X7IUyF4zlCoV4WX6WNN3/6MSBxDKTqtzkH8wCs9WDn2qPnGzYLom9yBPKTepwZoc1StPEAZawkGoHx3PN6vazx4BHWOz+PuWXOiR5uOsZONX0ZAGSPatF5ZpAd3w7acQCvOfImmQW2zirMLzp3+Oz+roWnmDrbtfH+f1A6jA1QdRLyqdcJSNDdBxtZR4cnZgMbDh5mjXsPRQQnFeDxGOCjG5PypEqQn5fRS2pQmtN9oSCjT83gviMqrOY7q/UTMXxl+ZKJJd9HowZo3TAGA+PZtjbW3NrGXA4Hy87K7FFFGxzj9+45wHbt3Mfa2zt63A+NIAtvTk7v0Cj7WmMOuJ0ZLN2VwfIyervTnOklnMCVzpxxW+/Sm289Vl//+zMaV2eJ4gzX2eA9dBDjkaKEcAuO8zSGdLvd+Owsl9HH22lpLunTspaWVnb69FnW0twqq2qed7DCwrGy0tqJtOUAVOHP8H58y+1pf+sf/+kfz2tburlLMxyg5Q+V7wKLyHBg6uBwONmgQaYn09Q8VE+c+C7KWL3oh9+jc0oEw1XcyRMnzwanR5qd2y5XOsvOLjA7mUlOHwcVhvtq6Q235pded8e++vW/S3ppagYj0V4r9CqnM74vZKzQNovR2AeGxR8wp2/p4h+8fLvFaFdMruEABcVbFFNtQIa0NHjp2cE0HABIZ8Nw91r10y/RBxZJGwxXcWHFbQF3v4Ujy8xczsvrxxwO5R+Bm7lNSUBbLwAVKu/tWbdMv2PrH9a9L8/iZ6GGGw7QzX/dfBrjULK+RPIiMZydmZm59hSL4U8hIgEOWDqnY4XHghuvv217/brfn42Y0oI3DLfiEs8w1TIbUy2/xqXhL4xwz7B378EsMzP66oDh8tlx+nIAKu8vGCf86Lnnv7dN35r9te0dOS3XlcYXM54f7vVxooMTpC95OJHnRQbvbdG7X/Dm7xm17/12ufSZAqBELL5oWQafzCq5hOuVLisrnxUUDILrrWlYpVfTLVqP+I4oOJ+r/vHjO/RqgMiq+YPjPvg2+sgDqDOq4Qpzuu8AsP86fOefSSDFDGYwEklE8jxfi4tNMSnWMQFZbgmgNjh1ZLrqqrh7ON73XPVTPx2tuigZBRyecG2vxgkf/gR95C0kjwpOKg6v+Xs4Tni7Ydz0Z0T2NzE1RtMAtGZ1zWaoua+hDSepIUYHvDCkcafbbWrbldFsMmv93+J4x5M/eur1hPtmehj3d/AqfUIJIyBFszFmfr5h3LGYFmjTAJQauPKtlW+C8B/DMtempMGJSJuT0weOCX7n7USUb5eZaA6Icz0OjyLgKKWo8Yrps7ENyWNK8wXTc8LCfWOvvS74P8yFqQBK9K18c+XLOEH8i6fD0JvwKJKcNKVCALWDxTkgsCex5ExMKRVvK2ECmgXVVoX1kBvl4Pkbo9VvOoASsbVv1b6E09/j2Er/9Qo05szL689yc/va4069mJ7IeqCK4UX/WPUzL92WkGpEdrXqcmOUYUqAUqNJ3eVE7nHw+G3VTJBRAE2jFBQMtNVaGbyyWJLR6EcLqp98Tf5GPTIbCMP+RJlJIyaDBIZ/ceRgWoASybVv1/7xXNu5RzD9Uo6jPnIz4r/jdmdKwKSplPT07PgLsnOamQN3ck5vhfYEim71ZYpRnbwtM7k374F5fUSXeBfWz70Db52bwZi4V85DfgmM6ek52NQ323bhU9/LTF8COvphPPaHn33h7z7SitiG8dd7YJFVtWwQ6NpXtGP9qEg0qSo8UqGJiK/5ec0plLuKjrLvlF0NY8518I39BlTgGV5vR8x20PiSHN7T0jLxAXcmzhmJINMu06QcAJCGgLQ5WHZxLWYj8dcawTISNBw7q59+eTVW2HvY4+lgtDKmz+fFSidYHhrsJ8cfjuPhdYVllJ0uSUrSfzukOge4+xf98Lv/oQUX9JCglu2xzz/zymxg8D7yzXC53JCKWZK/bFZWgfRhNZ3J8EPjSqfTLYFVi4dil2FtDmAx/Puw2n1MjcssrbQsQH2ieA+Y2HMlMLNw1qbDlByAZnU358n5uimJC0OUJQG65KmXZkB6fiNMe+womwMyOMDbAJXBpfiT8DxNPMdtxY2/YjtnknDgriVPvTJNTVvE0lKoydxxNWVQXphLonrMWU6CVle/1AveIbeoZYydP6U5kIctR2ap4QBXX499QcQGNWVIeTkWtQzLAZTzsBvRMPUuVqo5axdgbQ6INJeuLnBivboCkFsUP45WhuUAyjgee6TYweaAag7MWPLUy9erKUUU+TXI36SijC1YW/030fJbD6CCOD1ag+x7NgfkcABjPwfUXFXj0OE71m2AVfjHqO+snDq7pBHZQayH8tOhX3zcbceoLqlAooXCkmd/VoJpzykWItkm1cQcwN6uqvtS0fb1tPn0EjRTyd4xB+DM9HzxjvX/Fos9lgKo4BOujNUg+77NAbkcgE92CZwWojqryylr+M71r0CS3gvQ/Qzpd0E6w4DULXCMFiH4HMdPRE54YPiOj1d3SxH2ryld/VasWDGU510j4fVRjFH0UFHkCjlO7O/1iFchbhC58dHiLmSjJrc+LJcGVz8Rrn44Y7MknxfXXoF5PYIUH7bldmRScIDnOeZ08czhpINjPAZ1DizESfEcHRH6itRf0E/cmc4lbrfzj4Lg2VdZWXlIC6YcHHtNkc+Z5hP5dvROdFXBje4rcMXb1yku3xQAXb581XgAbyrPC7DOcrQ+7hU4cqhxagI9BG+HwDwdPv/RDvAGds9WU7Cd1zAOEBCxtCUOh3Q4cU1g1CBcRBlf4HW/WRB47KbGbayqKtNtZcBI9GvSskiFR4uvra0twZIRNwGQNyIdrcuS8J2JBEjYjnYv67jkw9knSdhoNNr3zMEBkpBpbgdLS8fhdkJK6tJtyfCDKRDxj1gF56OKiopNRnBDl5YGGlZXV9cLoPwa1NI7EEdLFOYF7ul9JhW4HUBtb/NKh9712/XF5oA7w8mkA8AkyWlgoF3U3oe6/FuA9Tfl5eVKDEKqyNYFoMuWrS7ied83QSn5z96giuIEZCaQXmrFgTONZ+1gHAdo3JgOYKZn+sFpHCURa/4T7vxaEBy/mj//kYaIqTS6kVCAQo3tD32eVtu+H6qCqjknjdobtZj2SwBpi5e1tXiiprNvJoYDGVkulp4FYKZb4WswbgO48AvYTX4O9fdEYjjit4UmpOzly2v/FgPt76DwWxJSQQILJWlKICXJaofEc4DUWAmckJoWDB/AwPl2VVXFvyaCds0l6Btv1JbAzE0LNNFh6MBBDcPIoNQKkLY1e6QpGzVl2XnDc4DGlRnZLpYJyamT4Sc8Iepj4RTEajHNV7tggbbGJE0BumJFXTkG0lUwApWob7M5SiAp2gqQ2tJU2+dBUjMzx2URdVZe29H3N6HvL6+sLK+TlyN2Kk0AumrVqiFer/A4iHscVar2zIhNtr4pSJq2XOxgrTjQRjuo4AA5DmTmYFMqHBaXmpG40IE2vup08q+WlZUdjpRIbrxqgC5fvvJaxoTvYbx5r9xKrZqu9aJHAipN0dhBOQdIpSVgkuRMgfCf8IB7uapq7l/UtFUVQJcvr7sT80L/AKmi6rMdNQ3QOy8ZkFoudEieSXrXbeX6yPMnKzdNmj6xcjuU0A5Juh7z/v9UVVX+npJ8oWnjBiistA9gGcunMH2Scg7s5InUfKFd8kgKZaZ9HZ4D5AGUneuWPIHCp0jmWG4bloL9May8P4+nlXEBtKam7juQmtWocEQ8lSZDHnIVbD5vgzTWs5TAmQdwwlUvhcMBSNPqefPK31bKA8XTILDUPghwPoeKUhacxGTqcNnU8SAd7BCeAzY4g3wZQZiprV1FTjuKgiKA1tSsvAulP4NjpKJakjQxgZTGVTS+skNXDhBPssGbFJecoUwZKQjCs50YCo2Pei0boHB0hyFIfBKljYtaYordJLc0AqnBztym4rpkrSVwWsJlT1fWATvik34syatXFkDhUzvc52PfTyVrrTz2+VORY3dWakwdyGIL8YJ4YoeeHCAMEZYIUz3v9oyRBVCYiskBwV7JvSf/gjGByfdgRIpe+Oc5k85XReun+Y1OTMUsNyZA4YhQBZ96AqgdYnBAcl2DC1uqhoD7Xqq2X1m7ucf92IqeKypAly2ru57jhAUoImq66FWkzl0ae2XC+ZvWxEm1QG2W2m7sh9VWYjtP2CKMRSM6IvDwCQ2HtV7mQnqmnCNCNIbFuid9OgWQplqgr1Ko7XZQwgHuSsIYYS1SrojzAwMHDp6LydVFkTLa8ZE54HA5sN6RT1pdMHKq5LkjzXfmp2u1eFfyMEZeSyZ99tnmw2vWvLclXPKwEhRm4GFwfn84XAY7LjYHSN2jD5BTJVBbU1Gt1+r5EtYIc+HKCwtQWJgeROLp4TLYcfI4YOEVAuQ1sDMVTaek0stIEXPkJ57eibkeOXoA9I03Vo5BKqwhZAe1HKCOi2FC0gZqmw1OzR7v/Z3Y61JgD4A6HMK9mEz9SpdU9p+4OEBGE3dm8qq61DbbMBRX1+iRiTBH2Ot+owtAly5dNQRW23u6J7L/x88BWkIyWUMyt82YZ8bd48fg5dq79B6n0zcbAJ10+bZ5rrzYsuH4qfPsYssl1trWwbAzFXM6HCzD7WK987NYLxwOfD1utiBJUfik0pKeyRTIB9ms0tOHAd2Zcy3sNI62dg/zwrcOk44sMyON5WSlswF98tB3zNdX0D8m+THIlgX6SheAos/fYaYxEzF498HjbE/jCbb/0En25RnaPiN8GDqwFxsxuA8bXdSfTRg1iKWnmUO1JH6mZTiSDqDUJjP1lUsdHrZ9bxPb03CCHThyih06diZ8R0Fsv145rHhoXzZ6WH82ZvgA6QUfMbHONwiDqDII0KAJA867pYLA/R43DXekPHLiLNuy4zD76+7D7PBx5Xujjhzaj00aN4RNuaKI5eVk6MzintXRLmtnv2yVdl/redd6MTSlUtAvU9pVzGjqz19sY59+0cC27DzM9h36UjE5QwYUsIljhrBJ44ewwf0Tvj2QHPo6eF68FYth11PioATFCvA34VMYQ8FJu5H9efNetm7TvqhvwFitpAdFx7a9R9kNJaNYyYSwU0yxitHsvrT5D1TCZFmxnj4jozYZHTZtb2R/2rSX7TpwPG5SSADQsXXPETa9ZCSbMXmU0Q4XaX4ssnpqlCRBf/nLXzrOnLmwFirLjLhbqjLjybPN7A9/2cnWbtytsqSu2WnMMXPqGDZz2hiWmW7c+4cWwD5/5lJX4iz6L69XurTgtFHkt17qYGs37Jb6CtkktAzUV26+dhzrW5CtZbGKyoKa++devXJn3nfffT7J1W/WrFnXAquLFZWiYeKjJ86x//noc/bx5wc0LNVfVIfHy3ZjXOKB692IIX2YyxnRu1HzukMLhLeItEETmG/pQHtx0lIvRq1pS+B8b+1W9rt12xk9W61Dw9HT7PzFVsmQlJudrnXxsspDVxnW3t72+/fee++wpKeIIm/YxkZk+Pntn7axTTsOySI+3kQfbdjF1tRvlax68ZahJh+phK4kWDiL2mCUeksWWXqG9CwTGagvUp+MZpRMZP1UdgCTgYEEdrbWP3i8PvbhxzvYZxhL6BH+8MkuVq+xCq2EbtoZ2urByDbQs6NnqEegPkl9k/qoQUHCpKO6ujotJye3GkT01ZuQ+o178Kb6QlG1k8f1ZwP7ZkvHsVMtivJSYppL7QszO82F6R0wPSepuXrXq2V9tHKEERL0812HJel5qUN7tTYSfxqbzrDszHRp+i5SmgTGO66+enKds7CwcCw6zvgEVhS26COwnK3bvC/svViRk8f2l5IEzpt3nWDHTrawY6eaY2Vl52CW/zOsxKOG9WNZGe6Y6bVMIEkfMstZdRwK2o2QoC1t7dIzo2end6A+OgZz64MxHaNzGE/YdELXHWtEj9mw7SBr+vKc4jYHQBmaUYpDKygQWKXzTv9Z+tPt5wtMv3z2RSO7ccrobncS+5dWXMCmOvhW1Jp7uxDtRqxeSM+KnpkRgfoo9VUDAErj0LGYBxWL9W5408nzmFxWPu4c2Ce26TsAYDqTCkxSNZx0JZXphqtHwRuGRJp+gTq4VQFqBDix2gCjZ2VkoBfEtVcVs0F99R4WicWQoFyR3hJ05/5j7Ox55ePHgX2zFD2ngX2yGB0sjHTdARq272tiV4wqVFSm2sRGdHK1NAfyG0E7PSN6VkaGM+ir1Gf1BihhkyQovmDRN5BvbTxBjgSNVm536Xri1Cn9AWrhBcWMWDVhb6Ny971ofSDee9Rnb76m800fbyGK84lDCKCwuOin5l1obmONmAyOJ0jSMJ6MYfIEyvr0r1ulu4UD/IanQf395zBZNIkyaoJfC+KNoP1gnH1Fi/aGlkF9lvpubraevt1ifwCU6xdKSKKvyaXv7IVWxdXQ9Eoiw9HjfqlO50SClTxxrBr0pp2st/G+zLXmMfVZ6rv6ApTrB4CyHK0bE608+oTM7CEUrDnZ2XgoWfiOMJvl4Kw26G2UUktvaH69aaexH31GZpZAfbd4iK7uAjm6A7QVb8V4QmD8GE9eNXkuNjczOhjzS1i10pWzsDOR3rS36+iUIKePxNt35ZQdIY0EUF27DK2MoDSoNQ4prS9a+kRK12j1puK9ePpKIvlkAD08pllEL1QXkqS6BEccS00onV7RpSGoJC7palUvImKqzrTTMiVmCvH0XTX0Ezad9BUUContAaCmppC82ZnK3evMJEFDmtLjMlS6RlKFrfy5md606+2K2eOBdouIp+92K0LRX8ImWXFp8RbdAJqfk6mISEocmBJRnNHADKFgJTIIsGRoSnMof0EZ2IwuVZNXj54hJ8sNf+k01oJF4swQ4um76ujmzpBqSwAdqq4g+bkHwl0qF6scXFDwJXzdr7aywDSLUcYi+S0Mn9IPWL+hiecc/0ypBvUtfDF8anPGYg+WV0HZA3pRR1Mag/rlMzM4K1Cfpb6rczhDKm4TXoxX6VUxqQnFWNRry85Diqrc3On8HjhLn53BN9eK0lUQfU9Q4498eegJOAPXwyv6j1gIp77u9VfqFTFF58QrVqxs1HsgStMaZgAo9VkDVNwmJz41O6r3WJw+9VIK0O590Q9Uv0SytHQVxVK0rZQJwqLyBY9TMxfTT90br1bT2UxBFH1NnM5zLaPwqRctb2J0oD6rdyBsQoJyDXq/Fen7ut752VhYOPb3m3KYEpCqdCaDEll9pTM5ylsvLCKSAdZFAelqHrByytQeDXhPfWV88UBDHeaprxIdegfCJqm4+3Qe+0vf1k0eP1RaUkLrRkufl0kfbiePdJXA6meUodIVX1fs11vbokXerho7xFCAUl814ntQwiaMRL49RuxwP+WKYWB6E6MV/RIZwklXqxqawKfL0tUAVTg93bGvo8NHy2CMTOQz6142LUK+bc9RaZ3j7vcS/b+wfz4WQB+W6GoilO/b4ygpKTmVk5N3H1L0iZAqIdFksqY9M7bv0+9bv+bWDnax1csmTcBi1leMlrYuyIWv7cVm8/sHh3kIpYgrnTxlWvXkqdfQefjkadeyzRs/aQiTVpOod9991zt79p0zoXqN06RAmYW4sY1HWppTWqC6A8un6hlunzEBuxToNskR0jRu17FjRxc76uvrhTvvvOs63Lky5K4ul4P65ksbITVG2UdDa0Jum3GFtNo8lUuO8HTQHCWpbhYGaxGaUwpr8MMSYKdM43Au3fzphnrEaxrQV7BODDdT00JlFEaLvJGr3e6D/qGLjCyqk9CuBLdOn4BlagxZS/mD73//e/9F86B4rsImWOdoV21dQzp2Jrtl+njWDAf6zQleF5caRqvLf/Wa8C//wHegdCaJerGlGd//4Sw5yuvKFi0qu6wKazyNw3HiZxiLakGj4jLo2dFK8rSqfKIDjTupb1IfNSIQJqleCaAc59iotyU30Oi+BTnsdkg1CokEKYHzjhuuZG6oSrECfVZGx6BOw13TCf9bO+AdFCu/qe5rPI0Db6JPYVTcDY1jjN7tpGdHz5BCIkFK4KQ+SX3TqODHJGOS7Mb6m0dyc3O/CmKMULalHciKBvVmtK9jY9NpTXmSgf1YboeaQg82Xt/OUFWY1GC3m/Z44VhHhzlc0BQyrBTp/WPXOFThNWvWtN5119fJsWWywno1SU4gJacBUjtp0yOvxgtL00qPd5Z+xQivoSB/8PJbf+zYkSUYfl7WVWpq6p7Hm/GZYCoDLmivjfVb9rO/fL4fQI28v6Nc0saOGMCunzSSTb2ySG4WxeksLV17tnaxHI+m5ctXPgRV982e2fWN2bitAf1ln6rdzQIUDxvUS1q57/pJxSzNFVvLCuRLxBkAfWHevPJnqezgYKJzf9D/RZwhI+LQhtLUCy29T95Gx7BEp9JQVNibXT2hiE37SpGuS1QkHVjB+HBOEugrg7GXLPUV3dXc7n2B1gnasLUB/aWB0cZHSgP515KV9mpsUUlTKiYIPuwP+tXA/qBBgBJheDO+hzfjbBMQKZFw4vQF7Jjs3+vzwBHssH068g7b9AYcBjV5FHZNJs8Tvf0mw/GMAGthQ9PlJoUxNMEv92XYLb57OZGxV82t7ZIzw16svkfDpGgaWL/eOdjOoS+jjZ5HF/Vj/XvnGkt8SO0wwK2pqpp7ZyCqC0Ch5i6Amrs0cNNMZ9rcl6QpvTFpMSkf/pOXCe352bsgi/WBOxbm58xEcoAWD96IX9uwZdv1nRGShTVw06LnxdmZmSPGjRp5P+g3xswZhXH0WdwpuJGePtvCaLtC2gDJgcXayAZBX8iQ1NR7AbQo5Ha5hS68EOrtG4HILj162bJlRTzv+m/cnBRIYJ9Vc+A/KyvLyREkGMof/S45x5fijXIj5rhKgzcseBFYVC0wTWXBJpiJ5C2C4Ll7/vz5DQGiugCUIlesqMXglFsSSGCfVXPg2wDov0crBb621Z33LS9dI60kEa399r0AB8TnKisrng/8o3MPcxU+KXoHczB/A5BeGZrQvo6LA/8DX+dfx8oZYoipDkrXTr/bWHnNdj8wV0xnG6xKno64jbDXPUcPCUoJYAD4AQwAP+ye2P6vjAMYCz1YVVXxc2W5uqZOFukaUIW1Wl+4K5eS4R/3dGXl3B91b0lYgK5atWqExyO8icTTu2ew/8vmwNtQbecgtSg7R4yEyQJWaqYtXbs87HUuFz+nrKzsQJdY/AkLUEq0YkVdOU61dG0HpRwQj8GQOAfS80OlOeWmD6rCSWRoSmHpWoGXeV24Zx8RoGvXrnXu3bu/Fh3t4XAZ7bjIHADPllRVletq8LGla+TnYeY7mFb5F4w951VWVobd4yIiQKlRy5bVXc/zrAaX483cSDPRBob/Fs4elfAEOWIUXckkXZNcFd7hcLB55eXl6yP1lagApUydzguv4ZKPVIgdH+TAIUjPRyE93wvGmOAi2aRrkqjCAl7mj4U6JYTrKjEBSplg1f0ZbB2PhyvAjrvMATD8CTD8/1+OMd9VsoGVOGxNJwnuVVht/1+sHtJjHjRcBq9XfM3lYsMgHb4e7r4dRxwQl+bn571qdl6EzrkSrRJgLWpoCp1ztdI0Dl7k78L9k7TSmEGWBKVSIEWnY2z1zwDpNTFLTbkE3Ds+H/fkggU9zeRWYoUtXRP/tADOT+AQ/wSk5zo5tckGKBVWU1PzTRSOyVRurJzCUyON+L/YHO4H8+Y98mkytTeZDE0B6Wq8KizugpBDX5n3K7l9RRFAqdCampXfhocM+QsOl1tJ8qbjPkbbnsHbcG3yttHfMlu6qn7CB/G11bPz5s39NyUlKQYoFQ4nBvKQoXm+FAYpRyrK8wDnBzinVAhKV4v6Cwce1pSJXwlcJvp8EBUshjPCm0origugVAlA+iBU3adhHEnFOdK1PM+/UFFR9pFShidjeitKV5pf1Unl3Yln/kKsL5oi9Yu4AUoF1tau+jo+pH4SIL0uUgVJGI/vZfkXKyvLNiRh21Q3ySpg1Qeg3Mf4MPxFvMjfjZexqgBKlcJwdJ0o8n+Py7vjJcIq+TDAXw6G/xSeH/usQrORdAZVYRNO4+ig3v43xwk/hUGI7BRxB9UApZqxiNRwLCL1GEzICzENkxY3NSbNiHZhD1WatxIwuVzZalIyTU8WSVcMDbDlpYChkXGBrLpji0ckhAD0lQ5gYCnNc8Ldk8aeqoImAA1QgNUY5mFcugD/JwbirH4Gwz8Ew9/AGCLmh9dWb6ue9D+75IVnfF7fI22X2kfovXp/AtXbv2K4h75SQf7rmgRNAUoU1dXVTfV6WTk6djn+al6+Jq2WVwiWkxdXe73cyoULbZVWHsuUpVq6tG6k0ynORTd5BCsgSuv4B7yDlJWkLPXY4mJp5wBluaKmhoLF6pxOVofhz8aoKRXeTBiAli+vxeLG3EOg52aFNBmeHNz+L9D+L5CavzGcmBQgADMCX0MzaeoOS+0wluj1hTUef/4B/eUtfPv7FtGudUgYQInQZcveLOT5Dlqa8Vt4S07Rmnity8Nb8EN8XvcLl8vx74888sglrcu3y4vMgdWrV6d7PL4HsfvH/dC+ZoWm1HJ9Ye3UW5E8x/5DENJ+MX/+nKOh9Gp5nVCABgglIxJ8Ve+BFfSbAKoZp2TeB62YPvFhiczK8wG67bP+HFixYkUeNjcgSUqzArd3p0CtdFUPUPFjuLv+yuEQ39HCCNS9fd3/6wLQQKXLlr3Vz+Hw3AEr3u1QIW9DfG7gngHnQ6jzA6gn7x8/fnRNdXV1hwE02FVG4ACeR9qAAYWz0U8IpLfg6LGxVzzbRMan3nIXsB3g72CBft/nc/12/vyHvoxAtubRugI0lHrMn0Ll5W+Co8NMPARanCwr9H6Crk+i3HqoUPUej7h24cIK8vKwg8k5sHRp7TiXi5uJIUgpNLAbYbzrF47kWNJV4fRKC17e6zDvvRbTax9hPpNUWt2DYQANbSn2hJkI9XcKGFICsE7CvQk4skPTxHl9BurI55iT+hwPdxNWTvsk3MppcZZtZzOAA50rTl6Dl2wJ5t6vQr+5CmT06k5KQLqGWoVjqLfNKGM7+uAW9MFN6DefYo8UTJsYG0wB0O4soC0o8AnXKEjYYjyIYXhjFuI8ACCjB5GP/+m458C1DwxtBkMv4EGdxPUJXB+GVG7Am3a/KHp2YRl93dSR7u2w/yeeA+gr/TjOhc8fxWJIuyL0gSHoA/0BsL64zsU1vegdTSeOZ8L3ljSoc+hLeHGz4+gjR3FuhIREX/HuDd1yIfGUy6vh/wAXd5aXLaz83wAAAABJRU5ErkJggg==;imageBorder=default;" vertex="1" parent="1">
          <mxGeometry x="180" y="700" width="123.73" height="80" as="geometry" />
        </mxCell>
      </root>
    </mxGraphModel>
  </diagram>
</mxfile>
